{
.appVersion = "3343";
.formatVersion = 3;
DisplayStrings = (
"ABIDE ACORN OF THE HABIT DACRON FOR THE BUDDHA GOUDA QUAALUDE BENCH BOGUS OF THE SCRIBE ROBOT FOR THE APLOMB JACOB RIBBON CENSUSCORAL OF THE SPICED JOCOSE FOR THE BASIC HAVOC SOCCER DEMURE DOCILE OF THE TIDBIT LODGER FOR THE CUSPID PERIOD BIDDER EBBING ECHOING OF THE BUSHED DECAL FOR THE APACHE ANODE NEEDS FEEDER FOCUS OF THE LIFER BEDFORD FOR THE SERIF PROOF BUFFER GENDER GOSPEL OF THE PIGEON DOGCART FOR THE SPRIG QUAHOG DIGGER HERALD HONORS OF THE DIHEDRAL MADHOUSE FOR THE PENH RIYADH BATHHOUSE IBSEN ICEMAN OF THE APHID NORDIC FOR THE SUSHI SAUDI SHIITE JENNIESJOGGER OF THE TIJERAADJOURN FOR THE ORANJ KOWBOJ HAJJIS KEEPERKOSHER OF THE SHRIKE BOOKCASE FOR THE SHEIK LOGBOOK CHUKKAS LENDER LOCKER OF THE CHILD GIGOLO FOR THE UNCOIL GAMBOL ENROLLED MENACE MCCOY OF THE NIMBLE TOMCAT FOR THE DENIM RANDOM SUMMON NEBULA NOSHEDOF THE INBRED BRONCO FOR THE COUSIN CARBON KENNEL OBSESS OCEAN OF THE PHOBIC DOCKSIDE FOR THE GAUCHO LIBIDO HOODED PENNIES PODIUM OF THE SNIPER OPCODE FOR THE SCRIP BISHOP HOPPER QUANTA QOPHS OF THE INQUEST OQOS FOR THE CINQ COQ SUQQU REDUCE ROGUE OF THE GIRDLE ORCHID FOR THE MEMOIR SENSOR SORREL SENIOR SCONCE OF THE DISBAR GODSON FOR THE HUBRIS AMENDS LESSEN TENDON TORQUE OF THE UNITED SCOTCH FOR THE NOUGHT FORGOT BITTERS UNDER UGLINESS OF THE RHUBARB SEDUCE FOR THE MANCHU HINDU CONTINUUM VERSED VOUCH OF THE DIVER OVOID FOR THE TELAVIV KARPOV FLIVVER WENCH WORKER OF THE UNWED SNOWCAP FOR THE ANDREW ESCROW GLOWWORM XENON XOCHITL OF THE MIXED BOXCAR FOR THE SUFFIX ICEBOX EXXON YEOMAN YONDER OF THE HYBRID ARROYO FOR THE DINGHY BRANDY SAYYID ZEBRA ZOMBIE OF THE PRIZED OZONE FOR THE FRANZ ARROZ BUZZING

",
Q,
R,
"4"
);
axes = (
{
name = Serif;
tag = SRFF;
}
);
date = "2023-03-03 21:18:27 +0000";
familyName = "Funky Serif";
fontMaster = (
{
axesValues = (
0
);
iconName = Light;
id = m01;
metricValues = (
{
over = 16;
pos = 800;
},
{
over = 16;
pos = 700;
},
{
over = 16;
pos = 500;
},
{

glyphs = (
{
glyphname = A;
lastChange = "2025-10-03 20:15:44 +0000";
layers = (
{
background = {
shapes = (
{
closed = 1;
nodes = (
(152,383,o),
(45,387,o),
(34,390,cs),
(4,394,o),
(6,400,o),
(2,432,cs),
(1,441,o),
(0,463,o),
(-2,482,cs),
(-1,487,o),
(-4,490,o),
(-8,490,cs),
(-54,488,ls),
(-58,488,o),
(-60,484,o),
(-60,480,cs),
(-56,463,o),
(-56,381,o),
(-56,366,cs),
(-56,331,o),
(-60,283,o),
(-62,262,cs),
(-62,257,o),
(-60,254,o),
(-56,254,cs),
(-12,252,ls),
(-7,252,o),
(-5,253,o),
(-4,260,cs),
(-2,273,o),
(2,286,o),
(4,308,cs),
(6,328,o),
(2,343,o),
(28,346,cs),
(75,351,o),
(144,351,o),
(160,352,c),
(160,290,ls),
(160,235,o),
(158,138,o),
(158,118,cs),
(157,66,o),
(132,46,o),
(102,40,cs),
(81,36,o),
(52,33,o),
(28,34,cs),
(10,33,o),
(2,34,o),
(-20,36,cs),
(-36,38,o),
(-62,36,o),
(-90,72,cs),
(-107,94,o),
(-118,135,o),
(-132,158,cs),
(-135,163,o),
(-138,164,o),
(-144,164,cs),
(-152,164,o),
(-217,163,o),
(-222,160,cs),
(-227,157,o),
(-225,154,o),
(-224,146,cs),
(-204,10,ls),
(-202,-2,o),
(-156,0,o),
(-136,0,cs),
(-102,0,o),
(-80,-1,o),
(-20,0,cs),
(40,0,o),
(59,0,o),
(216,0,cs),
(252,0,o),
(280,-1,o),
(300,0,cs),
(367,0,o),
(380,-1,o),
(388,0,cs),
(395,-1,o),
(400,0,o),
(398,6,cs),
(378,74,ls),
(376,79,o),
(367,82,o),
(360,78,cs),
(302,44,ls),
(261,20,o),
(252,43,o),
(252,80,cs),
(252,318,l),
(252,416,ls),
(252,498,o),
(255,638,o),
(256,648,cs),
(260,680,o),
(272,555,o),
(296,582,cs),
(374,668,ls),
(377,672,o),
(381,673,o),
(378,680,cs),
(354,736,ls),
(353,738,o),
(352,741,o),
(346,742,cs),
(325,741,o),
(296,708,o),
(220,708,cs),
(176,708,ls),
(77,708,o),
(-22,709,o),
(-120,710,cs),
(-137,709,o),
(-180,741,o),
(-186,742,cs),
(-190,741,o),
(-192,739,o),
(-194,736,cs),
(-197,722,o),
(-223,561,o),
(-226,552,cs),
(-227,547,o),
(-227,544,o),
(-224,542,cs),
(-218,539,o),
(-168,536,o),
(-162,536,cs),
(-156,536,o),
(-155,537,o),
(-154,540,cs),
(-152,543,o),
(-118,630,o),
(-94,646,cs),
(-73,659,o),
(-45,671,o),
(-18,672,cs),
(160,676,l),
(160,384,l)
);
}
);
};
layerId = m01;
shapes = (
{
closed = 1;
nodes = (
(486,278,l),
(499,238,o),
(540,110,o),
(548,74,cs),
(555,46,o),
(539,25,o),
(524,34,cs),
(488,56,ls),
(481,60,o),
(475,55,o),
(470,46,cs),
(452,12,ls),
(447,2,o),
(452,-2,o),
(462,-2,cs),
(485,-2,o),
(550,0,o),
(634,0,cs),
(714,0,o),
(756,-2,o),
(774,-2,cs),
(786,-2,o),
(785,4,o),
(782,10,cs),
(764,50,ls),
(763,53,o),
(756,60,o),
(744,54,cs),
(702,32,ls),
(680,20,o),
(671,48,o),
(654,82,cs),
(640,110,o),
(575,296,o),
(552,374,cs),
(533,438,o),
(455,662,o),
(436,726,cs),
(433,736,o),
(431,742,o),
(426,742,cs),
(420,742,o),
(417,738,o),
(412,734,cs),
(401,719,o),
(357,689,o),
(330,684,cs),
(322,681,o),
(258,676,o),
(256,664,cs),
(253,646,o),
(274,586,o),
(288,580,cs),
(300,575,o),
(329,637,o),
(326,628,cs),
(317,600,o),
(236,385,o),
(230,366,cs),
(200,283,o),
(127,98,o),
(120,82,cs),
(106,50,o),
(104,28,o),
(78,40,cs),
(48,54,ls),
(42,57,o),
(29,53,o),
(28,50,cs),
(12,14,ls),
(9,7,o),
(8,-2,o),
(14,-2,cs),
(28,-2,o),
(62,0,o),
(136,0,cs),
(194,0,o),
(234,-2,o),
(250,-2,cs),
(264,-4,o),
(259,6,o),
(256,12,cs),
(236,52,ls),
(234,56,o),
(224,59,o),
(220,56,cs),
(180,30,ls),
(172,25,o),
(166,44,o),
(166,58,cs),
(166,63,o),
(168,73,o),
(170,80,cs),
(174,101,o),
(229,253,o),
(240,278,c)
);
},
{
closed = 1;
nodes = (
(252,314,l),
(259,339,o),
(354,595,o),
(360,608,cs),
(362,616,o),
(366,623,o),
(370,624,cs),
(373,623,o),
(375,616,o),
(378,610,cs),
(383,594,o),
(464,344,o),
(474,314,c)
);
}
);
width = 794;
},
{
layerId = m002;
shapes = (
{
closed = 1;
nodes = (
(496,278,l),
(509,238,o),
(550,110,o),
(558,74,cs),
(565,46,o),
(556,36,o),
(528,36,cs),
(504,36,ls),
(497,36,o),
(494,35,o),
(494,30,cs),
(494,6,ls),
(494,0,o),
(497,-3,o),
(502,-2,cs),
(525,-3,o),
(560,0,o),
(644,0,cs),
(724,0,o),
(745,-3,o),
(764,-2,cs),
(770,-3,o),
(773,-1,o),
(774,4,cs),
(774,30,ls),
(773,33,o),
(771,36,o),
(766,36,cs),
(732,36,ls),
(707,36,o),
(681,48,o),
(664,82,cs),
(650,110,o),
(585,296,o),
(562,374,cs),
(543,438,o),
(465,662,o),
(446,726,cs),
(443,736,o),
(441,742,o),
(436,742,cs),
(430,742,o),
(427,738,o),
(422,734,cs),
(411,719,o),
(367,689,o),
(340,684,cs),
(332,681,o),
(330,677,o),
(330,674,cs),
(330,670,o),
(334,665,o),
(338,662,cs),
(344,650,o),
(339,637,o),
(336,628,cs),
(327,600,o),
(246,385,o),
(240,366,cs),
(210,283,o),
(137,98,o),
(130,82,cs),
(116,50,o),
(102,36,o),
(72,36,cs),
(38,36,ls),
(33,36,o),
(29,34,o),
(30,30,cs),
(30,6,ls),
(29,-1,o),
(31,-3,o),
(36,-2,cs),
(50,-3,o),
(72,0,o),
(146,0,cs),
(204,0,o),
(245,-3,o),
(260,-2,cs),
(264,-3,o),
(267,-1,o),
(268,6,cs),
(268,30,ls),
(267,34,o),
(264,36,o),
(258,36,cs),
(210,36,ls),
(188,36,o),
(176,44,o),
(176,58,cs),
(176,63,o),
(178,73,o),
(180,80,cs),
(184,101,o),
(239,253,o),
(250,278,c)
);
},
{
closed = 1;
nodes = (
(262,314,l),
(269,339,o),
(364,595,o),
(370,608,cs),
(372,616,o),
(376,623,o),
(380,624,cs),
(383,623,o),
(385,616,o),
(388,610,cs),
(393,594,o),
(474,344,o),
(484,314,c)
);
}
);
width = 794;
},
{
layerId = m003;
shapes = (
{
closed = 1;
nodes = (
(486,278,l),
(499,238,o),
(540,110,o),
(548,74,cs),
(555,46,o),
(546,36,o),
(518,36,cs),
(494,36,ls),
(487,36,o),
(484,35,o),
(484,30,cs),
(484,6,ls),
(484,0,o),
(487,-3,o),
(492,-2,cs),
(515,-3,o),
(550,0,o),
(634,0,cs),
(714,0,o),
(735,-3,o),
(754,-2,cs),
(760,-3,o),
(763,-1,o),
(764,4,cs),
(764,30,ls),
(763,33,o),
(761,36,o),
(756,36,cs),
(722,36,ls),
(697,36,o),
(671,48,o),
(654,82,cs),
(640,110,o),
(575,296,o),
(552,374,cs),
(533,438,o),
(455,662,o),
(436,726,cs),
(433,736,o),
(431,742,o),
(426,742,cs),
(420,742,o),
(417,738,o),
(412,734,cs),
(401,719,o),
(303,685,o),
(276,680,cs),
(268,677,o),
(266,593,o),
(266,590,cs),
(266,586,o),
(270,581,o),
(274,578,cs),
(280,566,o),
(329,637,o),
(326,628,cs),
(317,600,o),
(236,385,o),
(230,366,cs),
(200,283,o),
(127,98,o),
(120,82,cs),
(106,50,o),
(92,36,o),
(62,36,cs),
(28,36,ls),
(23,36,o),
(20,34,o),
(20,30,cs),
(20,6,ls),
(20,-1,o),
(21,-3,o),
(26,-2,cs),
(40,-3,o),
(62,0,o),
(136,0,cs),
(194,0,o),
(305,0,o),
(320,0,cs),
(330,0,o),
(332,23,o),
(332,30,cs),
(332,48,ls),
(332,48,o),
(332,49,o),
(332,56,cs),
(332,88,ls),
(332,98,o),
(332,104,o),
(332,118,cs),
(332,123,o),
(320,164,o),
(314,170,cs),
(294,192,o),
(229,253,o),
(240,278,c)
);
},
{
closed = 1;
nodes = (
(252,314,l),
(259,339,o),
(354,595,o),
(360,608,cs),
(362,616,o),
(366,623,o),
(370,624,cs),
(373,623,o),
(375,616,o),
(378,610,cs),
(383,594,o),
(464,344,o),
(474,314,c)
);
}
);
width = 784;
}
);
unicode = (65,97);
},
{
glyphname = B;
lastChange = "2025-10-03 20:15:44 +0000";
layers = (
{
background = {
shapes = (
{
closed = 1;
nodes = (
(260,318,l),
(291,313,o),
(331,312,o),
(368,312,cs),
(527,312,o),
(622,390,o),
(622,516,cs),
(622,573,o),
(593,629,o),
(546,662,cs),
(489,700,o),
(436,711,o),
(324,712,cs),
(290,711,o),
(231,708,o),
(214,708,cs),
(134,708,o),
(98,742,o),
(88,742,cs),
(82,742,o),
(80,740,o),
(78,736,cs),
(54,680,ls),
(51,675,o),
(54,672,o),
(58,668,cs),
(138,580,ls),
(157,559,o),
(165,670,o),
(168,650,cs),
(168,640,o),
(169,531,o),
(170,466,cs),
(170,350,ls),
(169,234,o),
(169,82,o),
(170,72,cs),
(170,45,o),
(168,25,o),
(138,40,cs),
(70,72,ls),
(66,74,o),
(55,74,o),
(54,70,cs),
(34,6,ls),
(32,3,o),
(34,0,o),
(42,0,cs),
(52,0,o),
(146,0,o),
(218,0,cs),
(312,0,o),
(391,-3,o),
(406,-2,cs),
(413,-3,o),
(416,1,o),
(414,6,cs),
(384,72,ls),
(382,76,o),
(374,80,o),
(366,76,cs),
(294,40,ls),
(276,31,o),
(263,50,o),
(262,72,cs),
(260,86,o),
(259,218,o),
(260,266,cs)
);
},
{
closed = 1;
nodes = (
(260,672,l),
(279,679,o),
(320,679,o),
(338,680,cs),
(396,679,o),
(518,644,o),
(518,514,cs),
(518,478,o),
(514,441,o),
(492,412,cs),
(466,377,o),
(412,344,o),
(352,344,cs),
(312,344,o),
(279,347,o),
(260,354,c)
);
}
);
};
layerId = m01;
shapes = (
{
closed = 1;
nodes = (
(172,318,ls),
(172,235,o),
(170,118,o),
(170,96,cs),
(170,64,o),
(172,23,o),
(148,36,cs),
(68,78,ls),
(61,82,o),
(53,76,o),
(52,72,cs),
(34,6,ls),
(33,1,o),
(36,-1,o),
(48,0,cs),
(67,-1,o),
(162,0,o),
(212,0,cs),
(254,0,o),
(293,-3,o),
(362,-2,cs),
(454,-3,o),
(511,7,o),
(554,34,cs),
(566,41,o),
(577,52,o),
(588,64,cs),
(614,99,o),
(630,146,o),
(630,184,cs),
(630,231,o),
(617,270,o),
(594,300,cs),
(564,338,o),
(521,364,o),
(468,382,c),
(466,384,l),
(543,424,o),
(587,449,o),
(588,548,cs),
(587,607,o),
(567,653,o),
(510,684,cs),
(475,704,o),
(411,711,o),
(334,712,cs),
(298,711,o),
(238,708,o),
(206,708,cs),
(134,708,o),
(89,741,o),
(74,742,cs),
(67,741,o),
(68,739,o),
(66,734,cs),
(46,680,ls),
(44,674,o),
(49,673,o),
(54,668,cs),
(134,576,ls),
(153,555,o),
(166,724,o),
(170,612,cs),
(169,594,o),
(172,472,o),
(172,436,cs)
);
},
{
closed = 1;
nodes = (
(260,362,l),
(292,362,ls),
(338,362,o),
(385,361,o),
(426,346,cs),
(485,322,o),
(526,269,o),
(526,188,cs),
(526,69,o),
(449,29,o),
(366,30,cs),
(282,29,o),
(260,70,o),
(260,162,cs),
(260,300,l)
);
},
{
closed = 1;
nodes = (
(260,470,ls),
(260,553,o),
(261,640,o),
(262,660,cs),
(262,669,o),
(268,676,o),
(276,678,cs),
(284,680,o),
(295,679,o),
(310,680,cs),
(360,679,o),
(410,670,o),
(446,646,cs),
(483,618,o),
(495,578,o),
(496,540,cs),
(495,496,o),
(480,451,o),
(440,420,cs),
(415,403,o),
(370,394,o),
(314,394,cs),
(296,394,o),
(279,394,o),
(260,396,c)
);
}
);
width = 664;
},
{
layerId = m002;
shapes = (
{
closed = 1;
nodes = (
(138,317,ls),
(138,235,o),
(136,103,o),
(133,80,cs),
(129,48,o),
(124,36,o),
(93,36,cs),
(45,36,ls),
(38,36,o),
(36,34,o),
(36,29,cs),
(36,3,ls),
(36,-1,o),
(38,-3,o),
(50,-3,cs),
(69,-3,o),
(128,0,o),
(178,0,cs),
(220,0,o),
(259,-3,o),
(328,-3,cs),
(420,-3,o),
(477,7,o),
(519,33,cs),
(531.6,40.8,o),
(543.2,52,o),
(553.2,64.8,cs),
(579.6,98.8,o),
(596,146,o),
(596,183,cs),
(596,230.8,o),
(582.8,269.6,o),
(559.2,300.4,cs),
(530.4,337.6,o),
(487.2,363.6,o),
(434,381,c),
(431,383,l),
(509,424,o),
(553,449,o),
(553,548,cs),
(553,607,o),
(533,653,o),
(476,684,cs),
(441,704,o),
(377,711,o),
(299,711,cs),
(264,711,o),
(204,708,o),
(172,708,cs),
(100,708,o),
(55,711,o),
(39,711,cs),
(33,711,o),
(31,709,o),
(31,704,cs),
(31,679,ls),
(31,674,o),
(33,672,o),
(39,672,cs),
(70,672,ls),
(116,672,o),
(132,670,o),
(135,612,cs),
(136,594,o),
(138,472,o),
(138,435,cs)
);
},
{
closed = 1;
nodes = (
(226,362,l),
(258,362,ls),
(304,362,o),
(351,361,o),
(392,345,cs),
(451,322,o),
(492,269,o),
(492,188,cs),
(492,69,o),
(415,29,o),
(331,29,cs),
(248,29.2,o),
(226,70,o),
(226,162,cs),
(226,300,l)
);
},
{
closed = 1;
nodes = (
(226,470,ls),
(226,553,o),
(227,640,o),
(228,660,cs),
(228,669,o),
(234,676,o),
(242,678,cs),
(250,680,o),
(261,679,o),
(275,679,cs),
(326,679,o),
(376,670,o),
(412,645,cs),
(449,618,o),
(461,578,o),
(461,540,cs),
(461,496,o),
(446,451,o),
(405,420,cs),
(381,403,o),
(336,394,o),
(279,394,cs),
(262,394,o),
(245,394,o),
(226,396,c)
);
}
);
width = 646;
},
{
layerId = m003;
shapes = (
{
closed = 1;
nodes = (
(158,318,ls),
(158,235,o),
(92,192,o),
(76,170,cs),
(54,142,o),
(54,134,o),
(54,102,cs),
(54,86,ls),
(54,79,o),
(54,64,o),
(54,60,cs),
(54,38,ls),
(54,14,o),
(58,0,o),
(70,0,cs),
(89,0,o),
(148,0,o),
(198,0,cs),
(240,0,o),
(279,-3,o),
(348,-2,cs),
(440,-3,o),
(497,7,o),
(540,34,cs),
(552,41,o),
(563,52,o),
(574,64,cs),
(600,99,o),
(616,146,o),
(616,184,cs),
(616,231,o),
(603,270,o),
(580,300,cs),
(550,338,o),
(507,364,o),
(454,382,c),
(452,384,l),
(529,424,o),
(573,449,o),
(574,548,cs),
(573,607,o),
(553,653,o),
(496,684,cs),
(461,704,o),
(397,711,o),
(320,712,cs),
(284,711,o),
(224,708,o),
(192,708,cs),
(120,708,o),
(75,711,o),
(60,712,cs),
(53,711,o),
(51,709,o),
(52,704,cs),
(52,488,ls),
(51,482,o),
(53,480,o),
(60,480,cs),
(90,480,ls),
(136,480,o),
(152,670,o),
(156,612,cs),
(156,594,o),
(158,472,o),
(158,436,cs)
);
},
{
closed = 1;
nodes = (
(246,362,l),
(278,362,ls),
(324,362,o),
(371,361,o),
(412,346,cs),
(471,322,o),
(512,269,o),
(512,188,cs),
(512,69,o),
(435,29,o),
(352,30,cs),
(268,29,o),
(246,70,o),
(246,162,cs),
(246,300,l)
);
},
{
closed = 1;
nodes = (
(246,470,ls),
(246,553,o),
(247,640,o),
(248,660,cs),
(248,669,o),
(254,676,o),
(262,678,cs),
(270,680,o),
(281,679,o),
(296,680,cs),
(346,679,o),
(396,670,o),
(432,646,cs),
(469,618,o),
(481,578,o),
(482,540,cs),
(481,496,o),
(466,451,o),
(426,420,cs),
(401,403,o),
(356,394,o),
(300,394,cs),
(282,394,o),
(265,394,o),
(246,396,c)
);
}
);
width = 658;
}
);
unicode = (66,98);
},
{
glyphname = C;
lastChange = "2025-10-03 20:15:44 +0000";
layers = (
{
background = {
shapes = (
{
closed = 1;
nodes = (
(298,676,l),
(476,672,ls),
(503,671,o),
(531,659,o),
(552,646,cs),
(576,630,o),
(610,543,o),
(612,540,cs),
(613,537,o),
(614,536,o),
(620,536,cs),
(626,536,o),
(676,539,o),
(682,542,cs),
(685,544,o),
(685,547,o),
(684,552,cs),
(681,561,o),
(655,722,o),
(652,736,cs),
(650,739,o),
(648,741,o),
(644,742,cs),
(638,741,o),
(595,709,o),
(580,710,cs),
(480,709,o),
(381,708,o),
(282,708,cs),
(238,708,ls),
(162,708,o),
(133,741,o),
(112,742,cs),
(106,741,o),
(105,738,o),
(104,736,cs),
(80,680,ls),
(77,673,o),
(81,672,o),
(84,668,cs),
(162,582,ls),
(186,555,o),
(198,680,o),
(202,648,cs),
(203,638,o),
(206,498,o),
(206,416,cs),
(206,318,l),
(206,80,ls),
(206,43,o),
(197,20,o),
(156,44,cs),
(98,78,ls),
(91,82,o),
(82,79,o),
(80,74,cs),
(60,6,ls),
(58,0,o),
(63,-1,o),
(70,0,cs),
(78,-1,o),
(91,0,o),
(158,0,cs),
(178,-1,o),
(206,0,o),
(244,0,cs),
(399,0,o),
(418,0,o),
(478,0,cs),
(538,-1,o),
(560,0,o),
(594,0,cs),
(614,0,o),
(660,-2,o),
(662,10,cs),
(682,146,ls),
(683,154,o),
(685,157,o),
(680,160,cs),
(675,163,o),
(610,164,o),
(602,164,cs),
(596,164,o),
(593,163,o),
(590,158,cs),
(576,135,o),
(565,94,o),
(548,72,cs),
(520,36,o),
(494,38,o),
(478,36,cs),
(456,34,o),
(448,33,o),
(432,34,cs),
(406,33,o),
(377,36,o),
(358,40,cs),
(326,46,o),
(301,66,o),
(300,118,cs),
(300,138,o),
(298,235,o),
(298,290,cs),
(298,352,l),
(314,351,o),
(383,351,o),
(430,346,cs),
(456,343,o),
(452,328,o),
(454,308,cs),
(456,286,o),
(460,273,o),
(462,260,cs),
(463,253,o),
(465,252,o),
(470,252,cs),
(514,254,ls),
(518,254,o),
(520,257,o),
(520,262,cs),
(518,283,o),
(514,331,o),
(514,366,cs),
(514,381,o),
(514,463,o),
(518,480,cs),
(518,484,o),
(516,488,o),
(512,488,cs),
(466,490,ls),
(462,490,o),
(459,487,o),
(460,482,cs),
(458,463,o),
(457,441,o),
(456,432,cs),
(452,400,o),
(454,394,o),
(426,390,cs),
(413,387,o),
(306,383,o),
(298,384,c)
);
}
);
};
layerId = m01;
shapes = (
{
closed = 1;
nodes = (
(549,-15,o),
(646,66,o),
(706,153,cs),
(709,158,o),
(707,160,o),
(704,162,cs),
(691,172,ls),
(688,175,o),
(686,174,o),
(683,169,cs),
(637,104,o),
(549,42,o),
(436,42,cs),
(369,42,o),
(312,50,o),
(244,126,cs),
(166,212,o),
(148,325,o),
(148,383,cs),
(147,529,o),
(219,688,o),
(398,688,cs),
(477,688,o),
(534,674,o),
(556,642,cs),
(590,593,o),
(596,578,o),
(610,546,cs),
(613,537,o),
(615,536,o),
(620,538,cs),
(625,538,o),
(674,540,o),
(680,542,cs),
(683,542,o),
(681,570,o),
(680,576,cs),
(678,588,o),
(677,592,o),
(674,606,cs),
(671,621,o),
(656,719,o),
(654,728,cs),
(650,744,o),
(647,743,o),
(642,740,cs),
(616,724,ls),
(607,719,o),
(588,709,o),
(574,712,cs),
(488,728,o),
(454,724,o),
(400,723,cs),
(291,721,o),
(201,676,o),
(150,622,cs),
(78,546,o),
(48,450,o),
(48,357,cs),
(48,261,o),
(83,145,o),
(155,77,cs),
(215,22,o),
(290,-15,o),
(408,-15,cs)
);
}
);
width = 746;
},
{
layerId = m002;
shapes = (
{
closed = 1;
nodes = (
(549,-15,o),
(646,66,o),
(706,153,cs),
(709,158,o),
(707,160,o),
(704,162,cs),
(691,172,ls),
(688,175,o),
(686,174,o),
(683,169,cs),
(637,104,o),
(549,42,o),
(436,42,cs),
(369,42,o),
(312,50,o),
(244,126,cs),
(166,212,o),
(148,325,o),
(148,383,cs),
(147,529,o),
(219,688,o),
(398,688,cs),
(477,688,o),
(530,654,o),
(572,611,cs),
(614,568,o),
(636,520,o),
(650,487,cs),
(653,479,o),
(655,478,o),
(660,479,cs),
(665.2,480.4,o),
(670,481.6,o),
(675,483,cs),
(679,484,o),
(680,488,o),
(679,493,cs),
(674,521,o),
(654,668,o),
(654,687,cs),
(654,701,o),
(652,703,o),
(643,703,cs),
(634,703,o),
(632,703,o),
(630,697,cs),
(622,668,ls),
(620,661,o),
(615,660,o),
(602,668,cs),
(566,689,o),
(491,723,o),
(400,723,cs),
(291,723,o),
(201,676,o),
(150,622,cs),
(78,546,o),
(48,450,o),
(48,357,cs),
(48,261,o),
(83,145,o),
(155,77,cs),
(215,22,o),
(290,-15,o),
(408,-15,cs)
);
}
);
width = 756;
},
{
layerId = m003;
shapes = (
{
closed = 1;
nodes = (
(531,-15,o),
(628,66,o),
(688,154,cs),
(691,158,o),
(689,160,o),
(686,162,cs),
(674,172,ls),
(670,174,o),
(668,174,o),
(666,170,cs),
(619,104,o),
(531,42,o),
(418,42,cs),
(351,42,o),
(294,50,o),
(226,126,cs),
(148,212,o),
(130,325,o),
(130,384,cs),
(129,529,o),
(201,688,o),
(380,688,cs),
(459,688,o),
(543,664,o),
(580,620,cs),
(591,607,o),
(584,558,o),
(582,548,cs),
(580,512,o),
(582,455,o),
(600,436,cs),
(608,426,o),
(621,417,o),
(632,416,cs),
(645,413,o),
(665,497,o),
(662,520,cs),
(659,549,o),
(636,668,o),
(636,688,cs),
(636,701,o),
(634,703,o),
(626,704,cs),
(616,703,o),
(609,702,o),
(604,702,cs),
(592,698,ls),
(584,697,o),
(584,697,o),
(560,702,cs),
(522,711,o),
(473,723,o),
(382,724,cs),
(273,723,o),
(183,676,o),
(132,622,cs),
(60,546,o),
(30,450,o),
(30,358,cs),
(30,261,o),
(65,145,o),
(138,78,cs),
(197,22,o),
(272,-15,o),
(390,-14,cs)
);
}
);
width = 720;
}
);
unicode = (67,99);
},
{
glyphname = D;
lastChange = "2025-10-03 20:15:44 +0000";
layers = (
{
background = {
shapes = (
{
closed = 1;
nodes = (
(276,318,l),
(308,313,o),
(348,312,o),
(386,312,cs),
(544,312,o),
(639,390,o),
(640,516,cs),
(639,573,o),
(610,629,o),
(564,662,cs),
(506,700,o),
(453,711,o),
(340,712,cs),
(307,711,o),
(248,708,o),
(230,708,cs),
(151,708,o),
(115,742,o),
(104,742,cs),
(99,742,o),
(97,740,o),
(96,736,cs),
(70,680,ls),
(68,675,o),
(71,672,o),
(76,668,cs),
(156,580,ls),
(174,559,o),
(182,670,o),
(184,650,cs),
(185,640,o),
(186,531,o),
(186,466,cs),
(186,350,ls),
(186,234,o),
(186,82,o),
(186,72,cs),
(187,45,o),
(185,25,o),
(154,40,cs),
(88,72,ls),
(83,74,o),
(72,74,o),
(70,70,cs),
(50,6,ls),
(49,3,o),
(51,0,o),
(58,0,cs),
(69,0,o),
(163,0,o),
(236,0,cs),
(329,0,o),
(408,-3,o),
(422,-2,cs),
(430,-3,o),
(433,1,o),
(432,6,cs),
(400,72,ls),
(399,76,o),
(391,80,o),
(384,76,cs),
(312,40,ls),
(293,31,o),
(280,50,o),
(278,72,cs),
(277,86,o),
(276,218,o),
(276,266,cs)
);
},
{
closed = 1;
nodes = (
(276,672,l),
(296,679,o),
(337,679,o),
(354,680,cs),
(413,679,o),
(535,644,o),
(536,514,cs),
(535,478,o),
(531,441,o),
(510,412,cs),
(483,377,o),
(429,344,o),
(368,344,cs),
(329,344,o),
(296,347,o),
(276,354,c)
);
}
);
};
layerId = m01;
shapes = (
{
closed = 1;
nodes = (
(194,384,ls),
(194,306,o),
(190,81,o),
(188,60,cs),
(185,44,o),
(179,28,o),
(164,36,cs),
(86,78,ls),
(80,81,o),
(72,77,o),
(72,74,cs),
(52,6,ls),
(49,1,o),
(52,-1,o),
(58,0,cs),
(71,-1,o),
(141,0,o),
(228,0,cs),
(273,0,o),
(349,-3,o),
(412,-2,cs),
(489,-3,o),
(627,-3,o),
(724,104,cs),
(789,175,o),
(822,251,o),
(822,366,cs),
(822,482,o),
(776,565,o),
(712,622,cs),
(623,696,o),
(515,711,o),
(386,712,cs),
(363,711,o),
(263,708,o),
(238,708,cs),
(147,708,o),
(117,741,o),
(106,742,cs),
(100,741,o),
(96,739,o),
(96,736,cs),
(72,680,ls),
(68,674,o),
(72,672,o),
(76,668,cs),
(158,578,ls),
(174,559,o),
(186,668,o),
(190,644,cs),
(191,627,o),
(194,485,o),
(194,460,cs)
);
},
{
closed = 1;
nodes = (
(286,434,ls),
(286,449,o),
(286,580,o),
(288,622,cs),
(288,644,o),
(292,660,o),
(306,670,cs),
(323,679,o),
(364,679,o),
(386,680,cs),
(497,679,o),
(585,640,o),
(638,584,cs),
(685,530,o),
(719,440,o),
(720,362,cs),
(719,271,o),
(688,189,o),
(646,138,cs),
(596,73,o),
(513,29,o),
(412,30,cs),
(361,29,o),
(321,40,o),
(306,62,cs),
(292,81,o),
(288,97,o),
(288,118,cs),
(287,179,o),
(286,349,o),
(286,362,cs)
);
}
);
width = 872;
},
{
layerId = m002;
shapes = (
{
closed = 1;
nodes = (
(164,384,ls),
(163,306,o),
(159,81,o),
(156,60,cs),
(154,44,o),
(143,36,o),
(124,36,cs),
(58,36,ls),
(52,36,o),
(49,34,o),
(50,30,cs),
(50,4,ls),
(49,-1,o),
(51,-3,o),
(56,-2,cs),
(70,-3,o),
(110,0,o),
(198,0,cs),
(242,0,o),
(318,-3,o),
(382,-2,cs),
(458,-3,o),
(596,-3,o),
(692,104,cs),
(758,175,o),
(791,251,o),
(792,366,cs),
(791,482,o),
(745,565,o),
(680,622,cs),
(592,696,o),
(484,711,o),
(356,712,cs),
(332,711,o),
(232,708,o),
(206,708,cs),
(116,708,o),
(72,711,o),
(60,712,cs),
(55,711,o),
(52,710,o),
(52,706,cs),
(52,680,ls),
(52,673,o),
(55,672,o),
(60,672,cs),
(116,672,ls),
(142,672,o),
(155,668,o),
(158,644,cs),
(160,627,o),
(163,485,o),
(164,460,cs)
);
},
{
closed = 1;
nodes = (
(256,434,ls),
(255,449,o),
(255,580,o),
(256,622,cs),
(257,644,o),
(261,660,o),
(276,670,cs),
(292,679,o),
(333,679,o),
(356,680,cs),
(466,679,o),
(554,640,o),
(606,584,cs),
(654,530,o),
(688,440,o),
(688,362,cs),
(688,271,o),
(657,189,o),
(616,138,cs),
(565,73,o),
(482,29,o),
(380,30,cs),
(330,29,o),
(290,40,o),
(274,62,cs),
(261,81,o),
(257,97,o),
(258,118,cs),
(256,179,o),
(255,349,o),
(256,362,cs)
);
}
);
width = 842;
},
{
layerId = m003;
shapes = (
{
closed = 1;
nodes = (
(158,384,ls),
(158,306,o),
(149,272,o),
(106,218,cs),
(73,178,o),
(48,165,o),
(46,128,cs),
(46,76,ls),
(45,71,o),
(44,34,o),
(44,30,cs),
(44,4,ls),
(44,-1,o),
(46,-3,o),
(52,-2,cs),
(65,-3,o),
(105,0,o),
(192,0,cs),
(237,0,o),
(313,-3,o),
(376,-2,cs),
(453,-3,o),
(591,-3,o),
(688,104,cs),
(753,175,o),
(786,251,o),
(786,366,cs),
(786,482,o),
(740,565,o),
(676,622,cs),
(587,696,o),
(479,711,o),
(350,712,cs),
(327,711,o),
(227,708,o),
(202,708,cs),
(111,708,o),
(67,711,o),
(54,712,cs),
(50,711,o),
(47,710,o),
(48,706,cs),
(48,490,ls),
(47,483,o),
(50,480,o),
(56,480,cs),
(110,480,ls),
(136,480,o),
(150,668,o),
(154,644,cs),
(155,627,o),
(158,485,o),
(158,460,cs)
);
},
{
closed = 1;
nodes = (
(250,434,ls),
(250,449,o),
(250,580,o),
(252,622,cs),
(252,644,o),
(256,660,o),
(270,670,cs),
(287,679,o),
(328,679,o),
(350,680,cs),
(461,679,o),
(549,640,o),
(602,584,cs),
(649,530,o),
(683,440,o),
(684,362,cs),
(683,271,o),
(652,189,o),
(610,138,cs),
(560,73,o),
(477,29,o),
(376,30,cs),
(325,29,o),
(285,40,o),
(270,62,cs),
(256,81,o),
(252,97,o),
(252,118,cs),
(251,179,o),
(250,349,o),
(250,362,cs)
);
}
);
width = 822;
}
);
unicode = (68,100);
},
{
glyphname = E;
lastChange = "2025-10-03 20:15:44 +0000";
layers = (
{
layerId = m01;
shapes = (
{
closed = 1;
nodes = (
(274,676,l),
(452,672,ls),
(478,671,o),
(506,659,o),
(528,646,cs),
(551,630,o),
(585,543,o),
(588,540,cs),
(588,537,o),
(589,536,o),
(596,536,cs),
(601,536,o),
(651,539,o),
(658,542,cs),
(660,544,o),
(660,547,o),
(660,552,cs),
(656,561,o),
(630,722,o),
(628,736,cs),
(625,739,o),
(623,741,o),
(620,742,cs),
(613,741,o),
(570,709,o),
(554,710,cs),
(455,709,o),
(356,708,o),
(258,708,cs),
(214,708,ls),
(137,708,o),
(108,741,o),
(88,742,cs),
(81,741,o),
(80,738,o),
(80,736,cs),
(56,680,ls),
(52,673,o),
(56,672,o),
(60,668,cs),
(138,582,ls),
(161,555,o),
(173,680,o),
(178,648,cs),
(178,638,o),
(181,498,o),
(182,416,cs),
(182,318,l),
(182,80,ls),
(181,43,o),
(172,20,o),
(132,44,cs),
(74,78,ls),
(66,82,o),
(57,79,o),
(56,74,cs),
(36,6,ls),
(33,0,o),
(38,-1,o),
(46,0,cs),
(53,-1,o),
(66,0,o),
(134,0,cs),
(153,-1,o),
(181,0,o),
(218,0,cs),
(374,0,o),
(393,0,o),
(454,0,cs),
(513,-1,o),
(535,0,o),
(570,0,cs),
(589,0,o),
(635,-2,o),
(638,10,cs),
(658,146,ls),
(658,154,o),
(660,157,o),
(656,160,cs),
(650,163,o),
(585,164,o),
(578,164,cs),
(571,164,o),
(568,163,o),
(566,158,cs),
(551,135,o),
(540,94,o),
(524,72,cs),
(495,36,o),
(469,38,o),
(454,36,cs),
(431,34,o),
(423,33,o),
(406,34,cs),
(381,33,o),
(352,36,o),
(332,40,cs),
(301,46,o),
(276,66,o),
(276,118,cs),
(275,138,o),
(273,235,o),
(274,290,cs),
(274,352,l),
(289,351,o),
(358,351,o),
(406,346,cs),
(431,343,o),
(427,328,o),
(430,308,cs),
(431,286,o),
(435,273,o),
(438,260,cs),
(438,253,o),
(440,252,o),
(446,252,cs),
(490,254,ls),
(493,254,o),
(495,257,o),
(496,262,cs),
(493,283,o),
(489,331,o),
(490,366,cs),
(489,381,o),
(489,463,o),
(492,480,cs),
(493,484,o),
(491,488,o),
(486,488,cs),
(442,490,ls),
(437,490,o),
(434,487,o),
(436,482,cs),
(433,463,o),
(432,441,o),
(432,432,cs),
(427,400,o),
(429,394,o),
(400,390,cs),
(388,387,o),
(281,383,o),
(274,384,c)
);
}
);
width = 680;
},
{
layerId = m002;
shapes = (
{
closed = 1;
nodes = (
(238,676,l),
(416,672,ls),
(443,671,o),
(471,659,o),
(492,645,cs),
(516,630,o),
(590,535,o),
(592,531,cs),
(593,529,o),
(597,526,o),
(600,528,cs),
(605.2,530.8,o),
(610,533.2,o),
(615,536,cs),
(619,538,o),
(619,541,o),
(618,545,cs),
(615,555,o),
(571,692,o),
(567,706,cs),
(566,709,o),
(564,711,o),
(559,711,cs),
(554,711,o),
(535,709,o),
(519,709,cs),
(420,709,o),
(321,708,o),
(222,708,cs),
(178,708,ls),
(112,708,o),
(77,711,o),
(55,711,cs),
(50,711,o),
(48,709,o),
(48,706,cs),
(48,679,ls),
(48,673,o),
(51,672,o),
(56,672,cs),
(92,672,ls),
(129,672,o),
(139,665,o),
(143,633,cs),
(144,623,o),
(146,498,o),
(146,415,cs),
(146,317,l),
(146,80,ls),
(146,43,o),
(142,36,o),
(96,36,cs),
(56,36,ls),
(49,36,o),
(46,35,o),
(46,31,cs),
(46,4,ls),
(46,-1,o),
(49,-3,o),
(55,-3,cs),
(64,-3,o),
(77,-2,o),
(98,-1,cs),
(118,-1,o),
(146,0,o),
(183,0,cs),
(339,0,o),
(436,-1,o),
(496,-1,cs),
(556,-2,o),
(578,-3,o),
(583,-3,cs),
(595,-3,o),
(602,3,o),
(605,12,cs),
(658,159,ls),
(661,167,o),
(661,170,o),
(656,173,cs),
(650.8,176,o),
(645.2,179.2,o),
(640,182,cs),
(634,185,o),
(631,181,o),
(628,176,cs),
(614,153,o),
(558,81,o),
(546,71,cs),
(520,49,o),
(476,38,o),
(459,36,cs),
(438,34,o),
(388,33,o),
(371,33,cs),
(346,33,o),
(317,36,o),
(297,40,cs),
(266,46,o),
(241,66,o),
(240,118,cs),
(240,138,o),
(238,235,o),
(238,289,cs),
(238,351,l),
(254,351,o),
(323,351,o),
(370,346,cs),
(396,343,o),
(407,328,o),
(413,307,cs),
(416,296,o),
(422,273,o),
(424,260,cs),
(425,253,o),
(427,250,o),
(432,251,cs),
(454,254,ls),
(458,255,o),
(460,257,o),
(460,262,cs),
(458,283,o),
(454,331,o),
(454,366,cs),
(454,381,o),
(454,463,o),
(457,480,cs),
(458,484,o),
(456,488,o),
(451,488,cs),
(426,489,ls),
(422,489,o),
(419,487,o),
(419,482,cs),
(418,463,o),
(414,443,o),
(411,433,cs),
(402,402,o),
(394,394,o),
(365,389,cs),
(353,387,o),
(246,383,o),
(238,383,c)
);
}
);
width = 706;
},
{
layerId = m003;
shapes = (
{
closed = 1;
nodes = (
(248,676,l),
(426,672,ls),
(426,672,o),
(487,664,o),
(524,620,cs),
(535,607,o),
(528,558,o),
(526,548,cs),
(524,512,o),
(527,455,o),
(544,436,cs),
(552,426,o),
(571,416,o),
(576,416,cs),
(589,413,o),
(629,541,o),
(628,546,cs),
(625,555,o),
(580,668,o),
(580,688,cs),
(580,701,o),
(578,703,o),
(570,704,cs),
(560,703,o),
(553,702,o),
(548,702,cs),
(528,697,o),
(331,708,o),
(232,708,cs),
(188,708,ls),
(122,708,o),
(87,711,o),
(66,712,cs),
(60,711,o),
(58,709,o),
(58,706,cs),
(58,488,ls),
(58,481,o),
(61,480,o),
(66,480,cs),
(102,480,ls),
(139,480,o),
(149,665,o),
(154,634,cs),
(154,623,o),
(156,498,o),
(156,416,cs),
(156,318,l),
(156,260,ls),
(156,186,o),
(60,160,o),
(58,114,cs),
(58,70,ls),
(57,64,o),
(56,35,o),
(56,32,cs),
(56,4,ls),
(56,-1,o),
(59,-3,o),
(66,-2,cs),
(74,-3,o),
(87,-2,o),
(108,0,cs),
(128,-1,o),
(156,0,o),
(194,0,cs),
(349,0,o),
(446,-1,o),
(506,0,cs),
(566,-2,o),
(540,-2,o),
(568,-4,cs),
(572,-4,o),
(579,-1,o),
(580,2,cs),
(628,144,ls),
(629,148,o),
(589,276,o),
(576,274,cs),
(571,273,o),
(553,264,o),
(544,254,cs),
(527,234,o),
(524,177,o),
(526,142,cs),
(528,132,o),
(535,82,o),
(524,70,cs),
(503,44,o),
(486,38,o),
(470,36,cs),
(448,34,o),
(398,33,o),
(382,34,cs),
(356,33,o),
(327,36,o),
(308,40,cs),
(276,46,o),
(251,66,o),
(250,118,cs),
(250,138,o),
(248,235,o),
(248,290,cs),
(248,352,l),
(264,351,o),
(333,351,o),
(380,346,cs),
(406,343,o),
(417,328,o),
(424,308,cs),
(426,296,o),
(432,273,o),
(434,260,cs),
(435,253,o),
(437,250,o),
(442,252,cs),
(464,254,ls),
(468,254,o),
(470,257,o),
(470,262,cs),
(468,283,o),
(464,331,o),
(464,366,cs),
(464,381,o),
(464,463,o),
(468,480,cs),
(468,484,o),
(466,488,o),
(462,488,cs),
(436,490,ls),
(432,489,o),
(429,487,o),
(430,482,cs),
(428,463,o),
(424,443,o),
(422,434,cs),
(412,402,o),
(404,394,o),
(376,390,cs),
(363,387,o),
(256,383,o),
(248,384,c)
);
}
);
width = 684;
}
);
unicode = (69,101);
},
{
glyphname = F;
lastChange = "2025-10-03 20:15:44 +0000";
layers = (
{
layerId = m01;
shapes = (
{
closed = 1;
nodes = (
(158,376,ls),
(157,204,o),
(155,78,o),
(154,58,cs),
(152,40,o),
(146,25,o),
(124,38,cs),
(56,78,ls),
(51,80,o),
(36,73,o),
(36,70,cs),
(18,8,ls),
(16,3,o),
(18,1,o),
(24,2,cs),
(37,1,o),
(125,0,o),
(204,0,cs),
(289,0,o),
(379,-3,o),
(390,-2,cs),
(395,-3,o),
(399,1,o),
(398,6,cs),
(374,70,ls),
(371,74,o),
(357,80,o),
(354,78,cs),
(290,46,ls),
(258,30,o),
(250,41,o),
(250,68,cs),
(250,83,o),
(249,251,o),
(250,282,cs),
(250,318,l),
(265,318,o),
(338,318,o),
(386,312,cs),
(407,309,o),
(409,296,o),
(414,274,cs),
(415,262,o),
(418,232,o),
(420,224,cs),
(420,219,o),
(421,218,o),
(428,218,cs),
(464,222,ls),
(468,221,o),
(470,224,o),
(470,230,cs),
(468,249,o),
(465,297,o),
(466,334,cs),
(465,347,o),
(465,430,o),
(468,448,cs),
(467,451,o),
(465,454,o),
(462,454,cs),
(422,456,ls),
(417,456,o),
(415,452,o),
(416,448,cs),
(413,420,o),
(413,414,o),
(412,400,cs),
(406,367,o),
(402,359,o),
(380,356,cs),
(368,353,o),
(263,350,o),
(250,350,c),
(250,400,ls),
(249,461,o),
(250,662,o),
(250,676,c),
(280,675,o),
(423,674,o),
(450,668,cs),
(477,661,o),
(513,648,o),
(528,620,cs),
(549,577,o),
(545,586,o),
(556,564,cs),
(558,558,o),
(557,556,o),
(568,556,cs),
(579,556,o),
(583,556,o),
(594,556,cs),
(612,556,o),
(645,552,o),
(644,564,cs),
(639,591,o),
(628,658,o),
(610,736,cs),
(610,739,o),
(610,742,o),
(610,744,cs),
(607,753,o),
(572,723,o),
(562,720,cs),
(511,706,o),
(281,708,o),
(268,708,cs),
(218,708,o),
(184,709,o),
(162,710,cs),
(138,710,o),
(78,741,o),
(74,742,cs),
(68,741,o),
(62,739,o),
(62,736,cs),
(36,678,ls),
(33,674,o),
(40,669,o),
(44,666,cs),
(122,580,ls),
(139,560,o),
(155,671,o),
(156,652,cs),
(155,640,o),
(157,490,o),
(158,446,cs)
);
}
);
width = 662;
},
{
layerId = m002;
shapes = (
{
closed = 1;
nodes = (
(148,376,ls),
(148,204,o),
(146,78,o),
(144,58,cs),
(143,40,o),
(135,36,o),
(110,36,cs),
(64,36,ls),
(60,36,o),
(57,35,o),
(58,32,cs),
(58,4,ls),
(57,-1,o),
(59,-3,o),
(64,-2,cs),
(78,-3,o),
(116,0,o),
(194,0,cs),
(280,0,o),
(320,-3,o),
(330,-2,cs),
(336,-3,o),
(338,-1,o),
(338,6,cs),
(338,30,ls),
(338,34,o),
(335,36,o),
(330,36,cs),
(280,36,ls),
(246,36,o),
(241,41,o),
(242,68,cs),
(241,83,o),
(240,251,o),
(240,282,cs),
(240,318,l),
(256,318,o),
(329,318,o),
(376,312,cs),
(398,309,o),
(410,297,o),
(418,274,cs),
(420,262,o),
(427,232,o),
(428,224,cs),
(429,219,o),
(430,216,o),
(436,218,cs),
(454,222,ls),
(459,222,o),
(461,224,o),
(462,230,cs),
(459,249,o),
(456,297,o),
(456,334,cs),
(456,347,o),
(456,430,o),
(458,448,cs),
(458,451,o),
(456,454,o),
(452,454,cs),
(432,456,ls),
(428,455,o),
(426,452,o),
(426,448,cs),
(422,430,o),
(418,409,o),
(416,400,cs),
(406,368,o),
(393,359,o),
(372,356,cs),
(359,353,o),
(254,350,o),
(240,350,c),
(240,400,ls),
(240,461,o),
(241,662,o),
(242,676,c),
(271,675,o),
(430,672,o),
(456,666,cs),
(484,659,o),
(508,642,o),
(526,620,cs),
(554,580,o),
(580,543,o),
(590,528,cs),
(592,521,o),
(594,519,o),
(598,520,cs),
(603,522,o),
(609,525,o),
(616,528,cs),
(617,528,o),
(618,530,o),
(618,534,cs),
(611,555,o),
(591,646,o),
(582,690,cs),
(580,700,o),
(578,708,o),
(578,712,cs),
(578,712,o),
(572,712,o),
(568,712,cs),
(510,712,o),
(209,708,o),
(194,708,cs),
(145,708,o),
(111,709,o),
(88,710,cs),
(65,710,o),
(53,711,o),
(48,712,cs),
(43,711,o),
(40,709,o),
(40,706,cs),
(40,678,ls),
(40,674,o),
(43,672,o),
(48,672,cs),
(106,672,ls),
(132,672,o),
(146,662,o),
(146,644,cs),
(146,631,o),
(148,490,o),
(148,446,cs)
);
}
);
width = 658;
},
{
layerId = m003;
shapes = (
{
closed = 1;
nodes = (
(138,317.2,ls),
(137,235,o),
(72.4,192.4,o),
(55.2,169.6,cs),
(34.4,142,o),
(35,113,o),
(35.2,88.4,cs),
(35.6,56,ls),
(36,49,o),
(36,33.6,o),
(36,29.2,cs),
(36,18.8,ls),
(36,14.8,o),
(38,0.4,o),
(50,0,cs),
(65.2,-0.4,o),
(108,0,o),
(186,0,cs),
(272,0,o),
(312,-3,o),
(322,-3,cs),
(328,-3,o),
(330,-1,o),
(330,5,cs),
(330,30,ls),
(330,34,o),
(327,36,o),
(321,36,cs),
(272,36,ls),
(238,36,o),
(233,41,o),
(233,68,cs),
(233,83,o),
(232,251,o),
(232,281,cs),
(232,318,l),
(248,318,o),
(321,318,o),
(368,312,cs),
(390,309,o),
(402,297,o),
(409,273,cs),
(412,262,o),
(419,232,o),
(420,224,cs),
(421,219,o),
(422,216,o),
(427,217,cs),
(446,221,ls),
(451,222,o),
(453,224,o),
(453,229,cs),
(451,249,o),
(448,297,o),
(448,333,cs),
(448,347,o),
(448,430,o),
(450,447,cs),
(450,451,o),
(448,454,o),
(444,454,cs),
(424,455,ls),
(420,455.2,o),
(418,452,o),
(417,448,cs),
(414,430,o),
(410,409,o),
(407,399,cs),
(398,368,o),
(385,359,o),
(363,355,cs),
(351,353,o),
(246,350,o),
(232,350,c),
(232,400,ls),
(232,461,o),
(233,662,o),
(233,675,c),
(263,675,o),
(422,672,o),
(447.2,666,cs),
(476,659.2,o),
(476.8,664,o),
(514.8,619.6,cs),
(524.4,608.4,o),
(517.6,557.6,o),
(516.8,548,cs),
(513.6,512,o),
(516.4,455.6,o),
(533.6,436,cs),
(542.4,426,o),
(555.6,420.8,o),
(566.4,418.8,cs),
(579.2,416.4,o),
(599.6,512,o),
(598.8,534,cs),
(598,555,o),
(583,639,o),
(574,684,cs),
(572,698,o),
(569,708,o),
(568,712,c),
(567,712,o),
(564,712,o),
(558,712,cs),
(494,708,o),
(200,708,o),
(185,708,cs),
(137,708,o),
(103,709,o),
(80,710,cs),
(57,710,o),
(45,711,o),
(39,711,cs),
(35,711,o),
(32,709.2,o),
(32,705,cs),
(32,486,ls),
(32,482,o),
(35.2,480,o),
(39.2,480,cs),
(80,480,ls),
(106.8,480,o),
(138,662,o),
(138,643,cs),
(138,631,o),
(141,490,o),
(140,446,cs)
);
}
);
width = 630;
}
);
unicode = (70,102);
},
{
glyphname = G;
lastChange = "2025-10-03 20:15:44 +0000";
layers = (
{
background = {
shapes = (
{
closed = 1;
nodes = (
(342,104,l),
(346,282,ls),
(347,309,o),
(359,337,o),
(372,358,cs),
(388,382,o),
(475,416,o),
(478,418,cs),
(481,419,o),
(482,420,o),
(482,426,cs),
(482,432,o),
(479,482,o),
(476,488,cs),
(474,491,o),
(471,491,o),
(466,490,cs),
(457,487,o),
(296,461,o),
(282,458,cs),
(279,456,o),
(277,454,o),
(276,450,cs),
(277,444,o),
(309,401,o),
(308,386,cs),
(309,286,o),
(310,187,o),
(310,88,cs),
(310,44,ls),
(310,-32,o),
(277,-61,o),
(276,-82,cs),
(277,-88,o),
(280,-89,o),
(282,-90,cs),
(338,-114,ls),
(345,-117,o),
(346,-113,o),
(350,-110,cs),
(436,-32,ls),
(463,-8,o),
(338,4,o),
(370,8,cs),
(380,9,o),
(520,12,o),
(602,12,cs),
(700,12,l),
(938,12,ls),
(975,12,o),
(998,3,o),
(974,-38,cs),
(940,-96,ls),
(936,-103,o),
(939,-112,o),
(944,-114,cs),
(1012,-134,ls),
(1018,-136,o),
(1019,-131,o),
(1018,-124,cs),
(1019,-116,o),
(1018,-103,o),
(1018,-36,cs),
(1019,-16,o),
(1018,12,o),
(1018,50,cs),
(1018,205,o),
(1018,224,o),
(1018,284,cs),
(1019,344,o),
(1018,366,o),
(1018,400,cs),
(1018,420,o),
(1020,466,o),
(1008,468,cs),
(872,488,ls),
(864,489,o),
(861,491,o),
(858,486,cs),
(855,481,o),
(854,416,o),
(854,408,cs),
(854,402,o),
(855,399,o),
(860,396,cs),
(883,382,o),
(924,371,o),
(946,354,cs),
(982,326,o),
(980,300,o),
(982,284,cs),
(984,262,o),
(985,254,o),
(984,238,cs),
(985,212,o),
(982,183,o),
(978,164,cs),
(972,132,o),
(952,107,o),
(900,106,cs),
(880,106,o),
(783,104,o),
(728,104,cs),
(666,104,l),
(667,120,o),
(667,189,o),
(672,236,cs),
(675,262,o),
(690,258,o),
(710,260,cs),
(732,262,o),
(745,266,o),
(758,268,cs),
(765,269,o),
(766,271,o),
(766,276,cs),
(764,320,ls),
(764,324,o),
(761,326,o),
(756,326,cs),
(735,324,o),
(687,320,o),
(652,320,cs),
(637,320,o),
(555,320,o),
(538,324,cs),
(534,324,o),
(530,322,o),
(530,318,cs),
(528,272,ls),
(528,268,o),
(531,265,o),
(536,266,cs),
(555,264,o),
(577,263,o),
(586,262,cs),
(618,258,o),
(624,260,o),
(628,232,cs),
(631,219,o),
(635,112,o),
(634,104,c)
);
}
);
};
layerId = m01;
shapes = (
{
closed = 1;
nodes = (
(606,148,ls),
(605,95,o),
(601,73,o),
(578,60,cs),
(543,39,o),
(494,25,o),
(414,26,cs),
(349,25,o),
(288,48,o),
(238,96,cs),
(176,155,o),
(143,258,o),
(144,376,cs),
(143,466,o),
(177,549,o),
(232,606,cs),
(291,670,o),
(353,687,o),
(422,688,cs),
(512,687,o),
(554,679,o),
(584,642,cs),
(619,599,o),
(630,571,o),
(638,544,cs),
(639,538,o),
(642,535,o),
(646,536,cs),
(652,536,o),
(688,538,o),
(702,540,cs),
(708,541,o),
(713,542,o),
(712,550,cs),
(690,680,ls),
(689,687,o),
(684,716,o),
(680,736,cs),
(679,742,o),
(676,744,o),
(672,742,cs),
(630,718,ls),
(619,712,o),
(604,712,o),
(592,714,cs),
(548,722,o),
(520,723,o),
(434,724,cs),
(314,723,o),
(224,689,o),
(154,628,cs),
(79,562,o),
(40,465,o),
(40,374,cs),
(40,253,o),
(71,168,o),
(132,100,cs),
(201,18,o),
(323,-15,o),
(412,-14,cs),
(524,-15,o),
(604,8,o),
(686,50,c),
(695,53,o),
(701,57,o),
(702,66,cs),
(701,73,o),
(697,83,o),
(698,98,cs),
(698,230,ls),
(697,260,o),
(710,266,o),
(728,268,cs),
(748,268,ls),
(760,269,o),
(764,276,o),
(764,284,cs),
(764,310,ls),
(764,313,o),
(760,322,o),
(746,322,cs),
(732,322,o),
(720,319,o),
(648,320,cs),
(580,319,o),
(557,322,o),
(544,322,cs),
(530,322,o),
(528,310,o),
(528,304,cs),
(528,284,ls),
(528,279,o),
(530,269,o),
(542,268,cs),
(564,268,ls),
(594,266,o),
(605,257,o),
(606,222,cs)
);
}
);
width = 794;
},
{
layerId = m002;
shapes = (
{
closed = 1;
nodes = (
(613,147,ls),
(613,95,o),
(609,73,o),
(586,59,cs),
(551,39,o),
(502,25,o),
(422,25,cs),
(357,25,o),
(296,48,o),
(246,96,cs),
(184,155,o),
(151,258,o),
(151,376,cs),
(151,466,o),
(185,549,o),
(239,606,cs),
(299,670,o),
(361,687,o),
(430,687,cs),
(520,687,o),
(582,642,o),
(612,605,cs),
(647,562,o),
(664,515,o),
(672,487,cs),
(673,482,o),
(676,479,o),
(680,479,cs),
(686,479.6,o),
(692,480.4,o),
(698,481,cs),
(702,481,o),
(703,485,o),
(703,490,cs),
(700,681,ls),
(700,688,o),
(698,693,o),
(691,693,cs),
(685,693,o),
(681,688,o),
(677,684,cs),
(662,666,ls),
(656,658,o),
(650,656,o),
(639,665,cs),
(605,691,o),
(528,723,o),
(442,723,cs),
(322,723,o),
(232,689,o),
(161,628,cs),
(87,562,o),
(48,465,o),
(48,374,cs),
(48,253,o),
(79,168,o),
(140,99,cs),
(209,18,o),
(331,-15,o),
(420,-15,cs),
(532,-15,o),
(612,8,o),
(693,49,c),
(703,53,o),
(709,57,o),
(709,65,cs),
(709,73,o),
(705,83,o),
(705,97,cs),
(705,229,ls),
(705,260,o),
(718,267,o),
(736,267,cs),
(775,267,ls),
(781,267,o),
(782,271,o),
(782,275,cs),
(782,299,ls),
(782,303,o),
(781,306,o),
(774,306,cs),
(760,306,o),
(728,303,o),
(656,303,cs),
(588,303,o),
(543,306,o),
(529,306,cs),
(524,306,o),
(523,304,o),
(523,298,cs),
(523,273,ls),
(523,269,o),
(525,267,o),
(530,267,cs),
(572,267,ls),
(602,267,o),
(613,257,o),
(613,221,cs)
);
}
);
width = 830;
},
{
layerId = m003;
shapes = (
{
closed = 1;
nodes = (
(514,124,ls),
(514,96,o),
(514,160,o),
(514,106,cs),
(514,50,o),
(492,25,o),
(412,26,cs),
(347,25,o),
(286,48,o),
(236,96,cs),
(174,155,o),
(141,258,o),
(142,376,cs),
(141,466,o),
(175,549,o),
(230,606,cs),
(289,670,o),
(351,687,o),
(420,688,cs),
(510,687,o),
(611,664,o),
(650,620,cs),
(659,608,o),
(653,577,o),
(652,548,cs),
(648,512,o),
(651,454,o),
(668,436,cs),
(677,426,o),
(695,416,o),
(700,416,cs),
(713,413,o),
(754,542,o),
(752,546,c),
(690,682,ls),
(687,688,o),
(686,692,o),
(680,694,cs),
(671,698,o),
(660,699,o),
(656,700,cs),
(644,702,ls),
(640,703,o),
(622,706,o),
(610,708,cs),
(567,715,o),
(518,723,o),
(432,724,cs),
(312,723,o),
(222,689,o),
(152,628,cs),
(77,562,o),
(38,465,o),
(38,374,cs),
(38,253,o),
(69,168,o),
(130,100,cs),
(199,18,o),
(321,-15,o),
(410,-14,cs),
(522,-15,o),
(582,-5,o),
(644,28,cs),
(670,42,o),
(699,68,o),
(698,112,cs),
(696,174,o),
(696,171,o),
(696,186,cs),
(696,230,ls),
(696,260,o),
(708,268,o),
(726,268,cs),
(766,268,ls),
(771,267,o),
(772,271,o),
(772,276,cs),
(772,300,ls),
(772,303,o),
(771,306,o),
(764,306,cs),
(750,306,o),
(718,303,o),
(646,304,cs),
(578,303,o),
(567,304,o),
(554,304,cs),
(534,304,o),
(514,296,o),
(514,246,cs),
(514,214,ls),
(514,209,o),
(514,197,o),
(514,192,cs),
(514,182,ls),
(514,178,o),
(514,181,o),
(514,154,cs)
);
}
);
width = 800;
}
);
unicode = (71,103);
},
{
glyphname = H;
lastChange = "2025-10-03 20:15:44 +0000";
layers = (
{
layerId = m01;
shapes = (
{
closed = 1;
nodes = (
(158,352,ls),
(158,325,o),
(156,131,o),
(156,84,cs),
(155,60,o),
(152,24,o),
(128,36,cs),
(80,58,ls),
(76,60,o),
(66,52,o),
(64,48,cs),
(44,4,ls),
(42,-1,o),
(45,-3,o),
(50,-2,cs),
(73,-3,o),
(121,0,o),
(208,0,cs),
(279,0,o),
(340,-2,o),
(360,-2,cs),
(364,-2,o),
(370,-1,o),
(368,4,cs),
(346,50,ls),
(344,54,o),
(331,58,o),
(326,56,cs),
(284,36,ls),
(263,26,o),
(253,46,o),
(252,70,cs),
(251,140,o),
(250,294,o),
(250,322,cs),
(250,342,ls),
(250,349,o),
(253,352,o),
(264,352,cs),
(630,352,ls),
(647,352,o),
(652,351,o),
(652,340,cs),
(652,326,ls),
(652,290,o),
(650,129,o),
(650,82,cs),
(649,55,o),
(646,25,o),
(622,36,cs),
(578,56,ls),
(572,59,o),
(560,54,o),
(558,50,cs),
(538,4,ls),
(536,0,o),
(539,-3,o),
(544,-2,cs),
(573,-3,o),
(619,0,o),
(706,0,cs),
(779,0,o),
(833,-3,o),
(852,-2,cs),
(858,-3,o),
(863,-1,o),
(860,6,cs),
(840,48,ls),
(838,52,o),
(826,59,o),
(820,56,cs),
(784,38,ls),
(755,23,o),
(747,50,o),
(748,86,cs),
(746,143,o),
(744,333,o),
(744,366,cs),
(744,400,ls),
(744,436,o),
(746,605,o),
(746,620,cs),
(746,655,o),
(749,673,o),
(778,672,cs),
(852,670,ls),
(857,670,o),
(863,671,o),
(860,678,cs),
(840,722,ls),
(837,729,o),
(830,729,o),
(824,730,cs),
(804,729,o),
(763,708,o),
(696,708,cs),
(627,708,o),
(592,729,o),
(572,730,cs),
(566,729,o),
(561,725,o),
(560,722,cs),
(538,678,ls),
(535,673,o),
(539,670,o),
(544,670,cs),
(616,672,ls),
(645,673,o),
(649,653,o),
(650,622,cs),
(649,609,o),
(652,470,o),
(652,414,cs),
(652,404,ls),
(652,390,o),
(647,388,o),
(632,388,cs),
(262,388,ls),
(253,388,o),
(250,391,o),
(250,396,cs),
(250,414,ls),
(250,469,o),
(252,601,o),
(252,616,cs),
(252,655,o),
(257,673,o),
(292,672,cs),
(358,670,ls),
(364,670,o),
(369,672,o),
(366,678,cs),
(346,722,ls),
(344,726,o),
(337,728,o),
(330,728,cs),
(311,728,o),
(285,708,o),
(208,708,cs),
(119,708,o),
(99,729,o),
(80,730,cs),
(74,729,o),
(66,727,o),
(64,722,cs),
(44,678,ls),
(41,672,o),
(44,670,o),
(50,670,cs),
(112,672,ls),
(149,673,o),
(156,658,o),
(156,608,cs),
(156,591,o),
(158,456,o),
(158,394,cs)
);
}
);
width = 904;
},
{
layerId = m002;
shapes = (
{
closed = 1;
nodes = (
(134,351,ls),
(134,325,o),
(132,131,o),
(131,84,cs),
(131,60,o),
(128,36,o),
(103,36,cs),
(44,36,ls),
(40,36,o),
(37,34,o),
(37,30,cs),
(37,4,ls),
(37,-1,o),
(39,-3,o),
(44,-3,cs),
(67,-3,o),
(97,0,o),
(183,0,cs),
(255,0,o),
(290,-3,o),
(309,-3,cs),
(315,-3,o),
(317,-1,o),
(317,4,cs),
(317,29,ls),
(317,34,o),
(315,36,o),
(309,36,cs),
(260,36,ls),
(239,36,o),
(229,46,o),
(228,70,cs),
(227,140,o),
(226,294,o),
(226,321,cs),
(226,342,ls),
(226,349,o),
(229,352,o),
(240,352,cs),
(606,352,ls),
(623,352,o),
(628,351,o),
(628,340,cs),
(628,326,ls),
(628,290,o),
(626,129,o),
(625,82,cs),
(625,55,o),
(622,36,o),
(598,36,cs),
(535,36,ls),
(529,36,o),
(527,34,o),
(527,29,cs),
(527,4,ls),
(527,0,o),
(529,-3,o),
(533,-3,cs),
(563,-3,o),
(595,0,o),
(682,0,cs),
(755,0,o),
(789,-3,o),
(808,-3,cs),
(814,-3,o),
(816,-1,o),
(816,5,cs),
(816,29,ls),
(816,34,o),
(814,36,o),
(807,36,cs),
(763,36,ls),
(733,36,o),
(723,50,o),
(723,86,cs),
(722,143,o),
(720,333,o),
(720,365,cs),
(720,399,ls),
(720,436,o),
(722,605,o),
(722,619,cs),
(722,655,o),
(725,672,o),
(754,672,cs),
(799,672,ls),
(805,672,o),
(807,673,o),
(807,679,cs),
(807,703,ls),
(807,709,o),
(806,711,o),
(799,711,cs),
(780,711,o),
(739,708,o),
(671,708,cs),
(603,708,o),
(560,711,o),
(539,711,cs),
(534,711,o),
(533,709,o),
(533,705,cs),
(533,679,ls),
(533,674,o),
(535,672,o),
(540,672,cs),
(592,672,ls),
(621,672,o),
(625,653,o),
(625,621,cs),
(625,609,o),
(628,470,o),
(628,413,cs),
(628,403,ls),
(628,390,o),
(623,388,o),
(608,388,cs),
(238,388,ls),
(229,388,o),
(226,391,o),
(226,396,cs),
(226,413,ls),
(226,469,o),
(228,601,o),
(228,615,cs),
(228,655,o),
(233,672,o),
(267,672,cs),
(318,672,ls),
(324,672,o),
(326,674,o),
(326,680,cs),
(326,706,ls),
(326,710,o),
(323,711,o),
(316,711,cs),
(297,711,o),
(261,708,o),
(183,708,cs),
(95,708,o),
(63,711,o),
(43,711,cs),
(38,711,o),
(35,709,o),
(35,704,cs),
(35,680,ls),
(35,674,o),
(36,672,o),
(41,672,cs),
(88,672,ls),
(125,672,o),
(132,658,o),
(132,607,cs),
(132,591,o),
(134,456,o),
(134,394,cs)
);
}
);
width = 852;
},
{
layerId = m003;
shapes = (
{
closed = 1;
nodes = (
(138,317.2,ls),
(142.4,234.8,o),
(83.2,206.8,o),
(55.2,169.6,cs),
(34.4,142,o),
(34.8,114.8,o),
(35.2,88.4,cs),
(35.6,56,ls),
(35.6,52.4,o),
(36,33.2,o),
(36,29.2,cs),
(36,18.8,ls),
(36,14,o),
(45.2,0,o),
(50,0,cs),
(73.2,0,o),
(97,0,o),
(183,0,cs),
(255,0,o),
(290,-3,o),
(309,-3,cs),
(315,-3,o),
(317,-1,o),
(317,4,cs),
(317,29,ls),
(317,34,o),
(315,36,o),
(309,36,cs),
(260,36,ls),
(239,36,o),
(229,46,o),
(228,70,cs),
(227,140,o),
(226,294,o),
(226,321,cs),
(226,342,ls),
(226,349,o),
(229,352,o),
(240,352,cs),
(606,352,ls),
(623,352,o),
(628,351,o),
(628,340,cs),
(628,326,ls),
(628,290,o),
(626,129,o),
(625,82,cs),
(625,55,o),
(622,36,o),
(598,36,cs),
(535,36,ls),
(529,36,o),
(527,34,o),
(527,29,cs),
(527,4,ls),
(527,0,o),
(529,-3,o),
(533,-3,cs),
(563,-3,o),
(595,0,o),
(682,0,cs),
(755,0,o),
(789,-3,o),
(808,-3,cs),
(814,-3,o),
(816,-1,o),
(816,5,cs),
(816,29,ls),
(816,34,o),
(814,36,o),
(807,36,cs),
(763,36,ls),
(733,36,o),
(723,50,o),
(723,86,cs),
(722,143,o),
(720,333,o),
(720,365,cs),
(720,399,ls),
(720,436,o),
(722,605,o),
(722,619,cs),
(722,655,o),
(734.4,480,o),
(763.2,480,cs),
(799.2,480,ls),
(805.2,480,o),
(807.2,481.2,o),
(807.2,487.2,cs),
(807,703,ls),
(806.8,708.8,o),
(806,711,o),
(799,711,cs),
(780,711,o),
(739,708,o),
(671,708,cs),
(603,708,o),
(560,711,o),
(539,711,cs),
(534,711,o),
(533,709,o),
(533,705,cs),
(533,679,ls),
(533,674,o),
(535,672,o),
(540,672,cs),
(592,672,ls),
(621,672,o),
(625,653,o),
(625,621,cs),
(625,609,o),
(628,470,o),
(628,413,cs),
(628,403,ls),
(628,390,o),
(623,388,o),
(608,388,cs),
(238,388,ls),
(229,388,o),
(226,391,o),
(226,396,cs),
(226,413,ls),
(226,469,o),
(228,601.2,o),
(228,615.2,cs),
(228,655.2,o),
(247.2,480,o),
(281.2,480,cs),
(318,480,ls),
(324,480,o),
(326,482,o),
(326,488,cs),
(326,706,ls),
(326,710,o),
(323,711,o),
(316,711,cs),
(297,711,o),
(261,708,o),
(183,708,cs),
(95,708,o),
(63,711,o),
(43,711,cs),
(38,711,o),
(34.8,709.2,o),
(35,704,cs),
(35.2,680,ls),
(35.2,674,o),
(36,672,o),
(41.2,672,cs),
(88,672,ls),
(125.2,672,o),
(132,658,o),
(132,607.2,cs),
(132,591.2,o),
(130.8,456,o),
(134,394,cs)
);
}
);
width = 856;
}
);
unicode = (72,104);
},
{
glyphname = I;
lastChange = "2025-10-03 20:15:44 +0000";
layers = (
{
layerId = m01;
shapes = (
{
closed = 1;
nodes = (
(164,350,ls),
(164,296,o),
(161,80,o),
(160,66,cs),
(155,39,o),
(152,29,o),
(136,36,cs),
(86,58,ls),
(81,60,o),
(72,52,o),
(70,48,cs),
(50,4,ls),
(48,-1,o),
(53,-3,o),
(58,-2,cs),
(69,-3,o),
(112,0,o),
(208,0,cs),
(294,0,o),
(352,-3,o),
(364,-2,cs),
(370,-3,o),
(376,-1,o),
(374,4,cs),
(352,50,ls),
(350,54,o),
(336,58,o),
(332,56,cs),
(298,40,ls),
(268,26,o),
(259,41,o),
(260,72,cs),
(259,83,o),
(256,314,o),
(256,324,cs),
(256,402,ls),
(256,413,o),
(259,634,o),
(260,644,cs),
(259,664,o),
(274,673,o),
(294,672,cs),
(364,670,ls),
(368,670,o),
(375,672,o),
(372,678,cs),
(352,722,ls),
(350,726,o),
(340,728,o),
(334,728,cs),
(320,728,o),
(296,708,o),
(208,708,cs),
(126,708,o),
(102,730,o),
(86,730,cs),
(81,730,o),
(73,726,o),
(72,724,cs),
(50,676,ls),
(48,673,o),
(53,670,o),
(58,670,cs),
(110,672,ls),
(148,673,o),
(158,662,o),
(160,638,cs),
(161,623,o),
(164,443,o),
(164,420,cs)
);
}
);
width = 424;
},
{
layerId = m002;
shapes = (
{
closed = 1;
nodes = (
(150,350,ls),
(150,296,o),
(147,80,o),
(146,66,cs),
(141,39,o),
(120,36,o),
(100,36,cs),
(44,36,ls),
(39,36,o),
(36,34,o),
(36,30,cs),
(36,4,ls),
(36,-1,o),
(39,-3,o),
(44,-2,cs),
(55,-3,o),
(98,0,o),
(194,0,cs),
(280,0,o),
(320,-3,o),
(332,-2,cs),
(338,-3,o),
(341,-1,o),
(342,4,cs),
(342,30,ls),
(341,34,o),
(338,36,o),
(334,36,cs),
(292,36,ls),
(260,36,o),
(245,41,o),
(246,72,cs),
(245,83,o),
(242,314,o),
(242,324,cs),
(242,402,ls),
(242,413,o),
(245,634,o),
(246,644,cs),
(245,664,o),
(260,672,o),
(280,672,cs),
(328,672,ls),
(332,672,o),
(335,674,o),
(336,680,cs),
(336,704,ls),
(335,708,o),
(333,711,o),
(328,712,cs),
(314,711,o),
(282,708,o),
(194,708,cs),
(100,708,o),
(49,711,o),
(38,712,cs),
(33,711,o),
(30,709,o),
(30,706,cs),
(30,678,ls),
(30,674,o),
(33,672,o),
(38,672,cs),
(96,672,ls),
(134,672,o),
(144,662,o),
(146,638,cs),
(147,623,o),
(150,443,o),
(150,420,cs)
);
}
);
width = 372;
},
{
layerId = m003;
shapes = (
{
closed = 1;
nodes = (
(170,350,ls),
(170,296,o),
(130,230,o),
(120,218,cs),
(88,178,o),
(62,150,o),
(62,128,cs),
(60,76,ls),
(60,72,o),
(59,34,o),
(60,30,cs),
(60,4,ls),
(59,0,o),
(59,-3,o),
(64,-2,cs),
(75,-3,o),
(118,0,o),
(214,0,cs),
(300,0,o),
(340,-3,o),
(352,-2,cs),
(358,-3,o),
(361,-1,o),
(362,4,cs),
(362,30,ls),
(361,34,o),
(358,36,o),
(354,36,cs),
(312,36,ls),
(280,36,o),
(265,41,o),
(266,72,cs),
(265,83,o),
(262,314,o),
(262,324,cs),
(262,402,ls),
(262,413,o),
(265,634,o),
(266,644,cs),
(265,664,o),
(280,480,o),
(300,480,cs),
(348,480,ls),
(352,480,o),
(355,482,o),
(356,488,cs),
(356,704,ls),
(355,708,o),
(353,711,o),
(348,712,cs),
(334,711,o),
(302,708,o),
(214,708,cs),
(120,708,o),
(69,711,o),
(58,712,cs),
(53,711,o),
(50,709,o),
(50,706,cs),
(50,678,ls),
(50,674,o),
(53,672,o),
(58,672,cs),
(116,672,ls),
(154,672,o),
(164,662,o),
(166,638,cs),
(167,623,o),
(170,443,o),
(170,420,cs)
);
}
);
width = 412;
}
);
unicode = (73,105);
},
{
glyphname = J;
lastChange = "2025-10-03 20:15:44 +0000";
layers = (
{
background = {
shapes = (
{
closed = 1;
nodes = (
(240,350,ls),
(240,296,o),
(237,80,o),
(236,66,cs),
(231,39,o),
(228,29,o),
(212,36,cs),
(162,58,ls),
(157,60,o),
(148,52,o),
(146,48,cs),
(126,4,ls),
(124,-1,o),
(129,-3,o),
(134,-2,cs),
(145,-3,o),
(188,0,o),
(284,0,cs),
(370,0,o),
(428,-3,o),
(440,-2,cs),
(446,-3,o),
(452,-1,o),
(450,4,cs),
(428,50,ls),
(426,54,o),
(412,58,o),
(408,56,cs),
(374,40,ls),
(344,26,o),
(335,41,o),
(336,72,cs),
(335,83,o),
(332,314,o),
(332,324,cs),
(332,402,ls),
(332,413,o),
(335,634,o),
(336,644,cs),
(335,664,o),
(350,673,o),
(370,672,cs),
(440,670,ls),
(444,670,o),
(451,672,o),
(448,678,cs),
(428,722,ls),
(426,726,o),
(416,728,o),
(410,728,cs),
(396,728,o),
(372,708,o),
(284,708,cs),
(202,708,o),
(178,730,o),
(162,730,cs),
(157,730,o),
(149,726,o),
(148,724,cs),
(126,676,ls),
(124,673,o),
(129,670,o),
(134,670,cs),
(186,672,ls),
(224,673,o),
(234,662,o),
(236,638,cs),
(237,623,o),
(240,443,o),
(240,420,cs)
);
}
);
};
layerId = m01;
shapes = (
{
closed = 1;
nodes = (
(240,332,ls),
(240,289,o),
(244,168,o),
(242,64,cs),
(240,-9,o),
(236,-74,o),
(226,-102,cs),
(215,-136,o),
(184,-170,o),
(174,-164,cs),
(133,-140,o),
(136,-139,o),
(80,-102,cs),
(50,-82,o),
(50,-106,o),
(38,-160,cs),
(24,-218,o),
(32,-218,o),
(106,-218,cs),
(181,-220,o),
(250,-154,o),
(292,-82,cs),
(321,-32,o),
(328,18,o),
(328,84,cs),
(328,107,o),
(332,205,o),
(332,332,cs),
(332,378,ls),
(332,499,o),
(334,627,o),
(336,644,cs),
(336,664,o),
(345,673,o),
(372,672,cs),
(440,670,ls),
(446,670,o),
(451,672,o),
(448,678,cs),
(428,722,ls),
(427,725,o),
(416,727,o),
(410,728,cs),
(395,727,o),
(372,708,o),
(288,708,cs),
(202,708,o),
(175,729,o),
(164,730,cs),
(158,729,o),
(150,726,o),
(148,722,cs),
(126,676,ls),
(124,672,o),
(128,670,o),
(132,670,cs),
(188,672,ls),
(227,673,o),
(236,660,o),
(238,638,cs),
(240,595,o),
(240,418,o),
(240,402,cs)
);
}
);
width = 476;
},
{
layerId = m002;
shapes = (
{
closed = 1;
nodes = (
(242,332,ls),
(242,285,o),
(247,146,o),
(244,34,cs),
(241,-26,o),
(237,-78,o),
(228,-102,cs),
(217,-136,o),
(195,-159,o),
(174,-166,c),
(162,-135,o),
(129,-113,o),
(96,-112,cs),
(63,-113,o),
(39,-131,o),
(40,-160,cs),
(39,-205,o),
(89,-219,o),
(108,-218,cs),
(183,-219,o),
(252,-154,o),
(294,-82,cs),
(323,-32,o),
(330,18,o),
(330,84,cs),
(330,107,o),
(334,205,o),
(334,332,cs),
(334,378,ls),
(334,499,o),
(336,627,o),
(338,644,cs),
(338,664,o),
(347,672,o),
(374,672,cs),
(424,672,ls),
(430,672,o),
(432,674,o),
(432,680,cs),
(432,706,ls),
(432,709,o),
(430,711,o),
(424,712,cs),
(409,711,o),
(374,708,o),
(290,708,cs),
(194,708,o),
(157,711,o),
(146,712,cs),
(140,711,o),
(139,709,o),
(140,704,cs),
(140,678,ls),
(139,673,o),
(142,672,o),
(146,672,cs),
(190,672,ls),
(229,672,o),
(238,660,o),
(240,638,cs),
(242,595,o),
(242,418,o),
(242,402,cs)
);
}
);
width = 472;
},
{
layerId = m003;
shapes = (
{
closed = 1;
nodes = (
(126,332,ls),
(126,277,o),
(126,160,o),
(126,86,cs),
(126,62,o),
(125,48,o),
(126,30,cs),
(126,-123,o),
(55,-20,o),
(22,-20,cs),
(-4,-20,o),
(-27,-22,o),
(-40,-34,cs),
(-66,-59,o),
(-81,-91,o),
(-92,-112,cs),
(-124,-174,o),
(-90,-220,o),
(-8,-218,cs),
(67,-218,o),
(136,-154,o),
(178,-82,cs),
(207,-32,o),
(214,18,o),
(214,84,cs),
(214,107,o),
(218,205,o),
(218,332,cs),
(218,378,ls),
(218,499,o),
(220,627,o),
(222,644,cs),
(222,664,o),
(244,480,o),
(270,480,cs),
(308,480,ls),
(314,480,o),
(316,482,o),
(316,488,cs),
(316,706,ls),
(316,709,o),
(314,711,o),
(308,712,cs),
(293,711,o),
(258,708,o),
(174,708,cs),
(78,708,o),
(41,711,o),
(30,712,cs),
(24,711,o),
(23,709,o),
(24,704,cs),
(24,678,ls),
(23,673,o),
(26,672,o),
(30,672,cs),
(74,672,ls),
(113,672,o),
(122,660,o),
(124,638,cs),
(126,595,o),
(126,418,o),
(126,402,cs)
);
}
);
width = 900;
}
);
unicode = (74,106);
},
{
glyphname = K;
lastChange = "2025-10-03 20:15:44 +0000";
layers = (
{
layerId = m01;
shapes = (
{
closed = 1;
nodes = (
(146,370,ls),
(146,244,o),
(144,63,o),
(144,54,cs),
(141,44,o),
(135,22,o),
(116,30,cs),
(64,52,ls),
(59,54,o),
(50,54,o),
(48,50,cs),
(30,4,ls),
(28,-1,o),
(32,-3,o),
(38,-2,cs),
(46,-3,o),
(116,0,o),
(196,0,cs),
(266,0,o),
(336,-3,o),
(348,-2,cs),
(353,-3,o),
(356,0,o),
(354,4,cs),
(334,46,ls),
(332,50,o),
(323,56,o),
(318,54,cs),
(262,30,ls),
(250,25,o),
(241,43,o),
(240,56,cs),
(239,70,o),
(236,219,o),
(236,270,cs),
(236,342,l),
(256,342,ls),
(270,341,o),
(283,339,o),
(300,326,cs),
(312,316,o),
(489,82,o),
(498,62,cs),
(503,52,o),
(487,24,o),
(468,36,cs),
(436,56,ls),
(430,60,o),
(421,54,o),
(420,52,cs),
(396,4,ls),
(393,-1,o),
(397,-3,o),
(402,-2,cs),
(415,-3,o),
(520,0,o),
(604,0,cs),
(678,0,o),
(742,-3,o),
(752,-2,cs),
(758,-3,o),
(762,1,o),
(760,6,cs),
(740,50,ls),
(739,53,o),
(726,58,o),
(722,56,cs),
(688,40,ls),
(665,29,o),
(639,40,o),
(622,62,cs),
(613,72,o),
(363,382,o),
(354,394,c),
(397,449,o),
(550,626,o),
(588,654,cs),
(605,666,o),
(664,662,o),
(678,662,cs),
(700,662,ls),
(704,662,o),
(708,674,o),
(706,680,cs),
(694,718,ls),
(693,721,o),
(683,725,o),
(678,726,cs),
(666,725,o),
(613,700,o),
(584,700,cs),
(538,700,o),
(487,725,o),
(476,726,cs),
(471,725,o),
(459,723,o),
(458,718,cs),
(448,680,ls),
(446,674,o),
(448,660,o),
(452,660,cs),
(466,660,ls),
(479,660,o),
(520,664,o),
(512,650,cs),
(502,637,o),
(317,401,o),
(296,386,cs),
(281,375,o),
(270,371,o),
(254,372,cs),
(236,372,l),
(236,422,ls),
(236,470,o),
(239,626,o),
(240,642,cs),
(239,665,o),
(283,660,o),
(304,660,cs),
(346,660,ls),
(350,660,o),
(356,673,o),
(352,680,cs),
(334,714,ls),
(332,718,o),
(324,721,o),
(318,722,cs),
(305,721,o),
(262,700,o),
(196,700,cs),
(120,700,o),
(104,721,o),
(92,722,cs),
(86,721,o),
(78,717,o),
(76,714,cs),
(56,680,ls),
(52,674,o),
(58,660,o),
(64,660,cs),
(114,660,ls),
(138,660,o),
(143,659,o),
(144,648,cs),
(143,640,o),
(146,445,o),
(146,428,cs)
);
}
);
width = 782;
},
{
layerId = m002;
shapes = (
{
closed = 1;
nodes = (
(124,370,ls),
(124,244,o),
(122,63,o),
(122,54,cs),
(119,44,o),
(112,36,o),
(94,36,cs),
(54,36,ls),
(49,36,o),
(46,35,o),
(46,30,cs),
(46,4,ls),
(46,-1,o),
(48,-3,o),
(54,-2,cs),
(62,-3,o),
(94,0,o),
(174,0,cs),
(244,0,o),
(274,-3,o),
(286,-2,cs),
(291,-3,o),
(292,0,o),
(292,4,cs),
(292,30,ls),
(292,34,o),
(289,36,o),
(284,36,cs),
(240,36,ls),
(227,36,o),
(218,45,o),
(218,58,cs),
(216,72,o),
(214,219,o),
(214,270,cs),
(214,342,l),
(234,342,ls),
(248,341,o),
(261,339,o),
(278,326,cs),
(290,316,o),
(467,82,o),
(476,62,cs),
(481,52,o),
(479,35,o),
(460,36,cs),
(446,36,ls),
(441,35,o),
(439,33,o),
(440,30,cs),
(440,4,ls),
(439,-1,o),
(441,-3,o),
(446,-2,cs),
(459,-3,o),
(498,0,o),
(582,0,cs),
(656,0,o),
(694,-3,o),
(704,-2,cs),
(710,-3,o),
(712,-1,o),
(712,4,cs),
(712,30,ls),
(712,33,o),
(710,36,o),
(706,36,cs),
(670,36,ls),
(646,36,o),
(617,40,o),
(600,62,cs),
(591,72,o),
(341,382,o),
(332,394,c),
(375,449,o),
(528,626,o),
(566,654,cs),
(583,666,o),
(606,672,o),
(620,672,cs),
(642,672,ls),
(646,672,o),
(649,674,o),
(650,680,cs),
(650,706,ls),
(649,709,o),
(647,711,o),
(642,712,cs),
(630,711,o),
(595,708,o),
(566,708,cs),
(520,708,o),
(479,711,o),
(468,712,cs),
(463,711,o),
(461,709,o),
(462,704,cs),
(462,682,ls),
(461,676,o),
(462,674,o),
(466,674,cs),
(480,674,ls),
(493,674,o),
(498,664,o),
(490,650,cs),
(480,637,o),
(295,401,o),
(274,386,cs),
(259,375,o),
(248,371,o),
(232,372,cs),
(214,372,l),
(214,422,ls),
(214,470,o),
(217,626,o),
(218,642,cs),
(217,665,o),
(225,672,o),
(246,672,cs),
(288,672,ls),
(292,672,o),
(294,674,o),
(294,680,cs),
(294,706,ls),
(294,709,o),
(292,711,o),
(286,712,cs),
(273,711,o),
(240,708,o),
(174,708,cs),
(98,708,o),
(68,711,o),
(56,712,cs),
(50,711,o),
(48,709,o),
(48,706,cs),
(48,680,ls),
(48,674,o),
(50,672,o),
(56,672,cs),
(92,672,ls),
(116,672,o),
(121,659,o),
(122,648,cs),
(121,640,o),
(124,445,o),
(124,428,cs)
);
}
);
width = 728;
},
{
layerId = m003;
shapes = (
{
closed = 1;
nodes = (
(134,369,ls),
(134,230,o),
(82.8,162.8,o),
(70.4,146.8,cs),
(48.4,118.8,o),
(48,91,o),
(47.2,72.8,cs),
(46.4,42.8,ls),
(46,40,o),
(46,38.4,o),
(46,33.2,cs),
(46,7.2,ls),
(46,2.4,o),
(46.4,0,o),
(51.2,0,cs),
(60.4,0,o),
(104,0,o),
(183,0,cs),
(254,0,o),
(284,-3,o),
(296,-3,cs),
(301,-3,o),
(302,0,o),
(302,4,cs),
(302,30,ls),
(302,34,o),
(299,36,o),
(294,36,cs),
(250,36,ls),
(237,36,o),
(228,45,o),
(227,58,cs),
(226,72,o),
(224,219,o),
(224,269,cs),
(224,341,l),
(243,341,ls),
(258,341,o),
(271,339,o),
(287,326,cs),
(300,316,o),
(477,82,o),
(486,62,cs),
(491,52,o),
(489,35,o),
(470,35,cs),
(455,35,ls),
(451,35,o),
(449,33,o),
(449,29,cs),
(449,3,ls),
(449,-1,o),
(451,-3,o),
(455,-3,cs),
(469,-3,o),
(508,0,o),
(591,0,cs),
(666,0,o),
(704,-3,o),
(714,-3,cs),
(720,-3,o),
(722,-1,o),
(722,4,cs),
(722,29,ls),
(722,33,o),
(725.6,152.4,o),
(722,156,cs),
(714,164,ls),
(696.4,181.6,o),
(652,36,o),
(611.2,70.4,cs),
(600.4,79.2,o),
(351,382,o),
(342,393,c),
(385,449,o),
(538,626,o),
(575.2,653.2,cs),
(593.2,666,o),
(596,500,o),
(610,500,cs),
(651.2,500,ls),
(656,500,o),
(659.2,502,o),
(659.2,507.2,cs),
(659,706,ls),
(659,709,o),
(657,711,o),
(652,711,cs),
(640,711,o),
(605,708,o),
(576,708,cs),
(530,708,o),
(489,711,o),
(477,711,cs),
(473,711,o),
(471,709,o),
(471,704,cs),
(471,681,ls),
(471,676,o),
(472,674,o),
(476,674,cs),
(490,674,ls),
(503,674,o),
(508,664,o),
(499,650,cs),
(490,637,o),
(305,401,o),
(283,385,cs),
(269,375,o),
(258,371,o),
(242,371,cs),
(224,371,l),
(224,421,ls),
(224,470,o),
(227,626,o),
(227,641,cs),
(227,665,o),
(235,672,o),
(255,672,cs),
(297,672,ls),
(302,672,o),
(304,674,o),
(304,679,cs),
(304,705,ls),
(304,709,o),
(302,711,o),
(296,711,cs),
(283,711,o),
(250,708,o),
(183,708,cs),
(108,708,o),
(78,711,o),
(66,711,cs),
(60,711,o),
(58,709,o),
(58,705,cs),
(58,503.2,ls),
(58,498,o),
(60,496,o),
(66,496,cs),
(101.2,496,ls),
(126,496,o),
(131,659,o),
(131,648,cs),
(131,640,o),
(134,445,o),
(134,427,cs)
);
}
);
width = 900;
}
);
unicode = (75,107);
},
{
glyphname = L;
lastChange = "2025-10-03 20:15:44 +0000";
layers = (
{
background = {
shapes = (
{
closed = 1;
nodes = (
(232,676,l),
(410,672,ls),
(437,671,o),
(465,659,o),
(486,646,cs),
(510,630,o),
(544,543,o),
(546,540,cs),
(547,537,o),
(548,536,o),
(554,536,cs),
(560,536,o),
(610,539,o),
(616,542,cs),
(619,544,o),
(619,547,o),
(618,552,cs),
(615,561,o),
(589,722,o),
(586,736,cs),
(584,739,o),
(582,741,o),
(578,742,cs),
(572,741,o),
(529,709,o),
(514,710,cs),
(414,709,o),
(315,708,o),
(216,708,cs),
(172,708,ls),
(96,708,o),
(67,741,o),
(46,742,cs),
(40,741,o),
(39,738,o),
(38,736,cs),
(14,680,ls),
(11,673,o),
(15,672,o),
(18,668,cs),
(96,582,ls),
(120,555,o),
(132,680,o),
(136,648,cs),
(137,638,o),
(140,498,o),
(140,416,cs),
(140,318,l),
(140,80,ls),
(140,43,o),
(131,20,o),
(90,44,cs),
(32,78,ls),
(25,82,o),
(16,79,o),
(14,74,cs),
(-6,6,ls),
(-8,0,o),
(-3,-1,o),
(4,0,cs),
(12,-1,o),
(25,0,o),
(92,0,cs),
(112,-1,o),
(140,0,o),
(178,0,cs),
(333,0,o),
(352,0,o),
(412,0,cs),
(472,-1,o),
(494,0,o),
(528,0,cs),
(548,0,o),
(594,-2,o),
(596,10,cs),
(616,146,ls),
(617,154,o),
(619,157,o),
(614,160,cs),
(609,163,o),
(544,164,o),
(536,164,cs),
(530,164,o),
(527,163,o),
(524,158,cs),
(510,135,o),
(499,94,o),
(482,72,cs),
(454,36,o),
(428,38,o),
(412,36,cs),
(390,34,o),
(382,33,o),
(366,34,cs),
(340,33,o),
(311,36,o),
(292,40,cs),
(260,46,o),
(235,66,o),
(234,118,cs),
(234,138,o),
(232,235,o),
(232,290,cs),
(232,352,l),
(248,351,o),
(317,351,o),
(364,346,cs),
(390,343,o),
(386,328,o),
(388,308,cs),
(390,286,o),
(394,273,o),
(396,260,cs),
(397,253,o),
(399,252,o),
(404,252,cs),
(448,254,ls),
(452,254,o),
(454,257,o),
(454,262,cs),
(452,283,o),
(448,331,o),
(448,366,cs),
(448,381,o),
(448,463,o),
(452,480,cs),
(452,484,o),
(450,488,o),
(446,488,cs),
(400,490,ls),
(396,490,o),
(393,487,o),
(394,482,cs),
(392,463,o),
(391,441,o),
(390,432,cs),
(386,400,o),
(388,394,o),
(360,390,cs),
(347,387,o),
(240,383,o),
(232,384,c)
);
}
);
};
layerId = m01;
shapes = (
{
closed = 1;
nodes = (
(140,392,ls),
(140,331,o),
(137,82,o),
(137,63,cs),
(137,50,o),
(132,27,o),
(112,36,cs),
(62,58,ls),
(57,60,o),
(48,52,o),
(46,48,cs),
(26,4,ls),
(24,-1,o),
(26,-2,o),
(34,-2,cs),
(42,-2,o),
(66,-2,o),
(86,-1,cs),
(107,-1,o),
(136,0,o),
(175,0,cs),
(229,0,o),
(327,0,o),
(416,-1,cs),
(505,-1,o),
(591,-7,o),
(594,6,cs),
(602,38,o),
(618,146,o),
(618,154,cs),
(618,160,o),
(613,160,o),
(610,160,cs),
(534,164,ls),
(528,164,o),
(523,157,o),
(522,154,cs),
(504,112,o),
(484,50,o),
(436,40,cs),
(405,34,o),
(257,37,o),
(235,39,c),
(232,80,o),
(232,296,o),
(232,313,cs),
(232,399,ls),
(232,469,o),
(235,620,o),
(235,633,cs),
(235,662,o),
(239,673,o),
(270,672,cs),
(338,670,ls),
(346,670,o),
(350,673,o),
(348,678,cs),
(326,722,ls),
(324,726,o),
(317,727,o),
(310,728,cs),
(300,727,o),
(280,708,o),
(183,708,cs),
(100,708,o),
(72,729,o),
(62,730,cs),
(55,729,o),
(50,726,o),
(48,722,cs),
(26,680,ls),
(24,676,o),
(27,670,o),
(34,670,cs),
(100,672,ls),
(130,673,o),
(135,662,o),
(137,636,cs),
(138,618,o),
(140,512,o),
(140,448,cs)
);
}
);
width = 646;
},
{
layerId = m002;
shapes = (
{
closed = 1;
nodes = (
(140,392,ls),
(140,331,o),
(137,82,o),
(137,63,cs),
(137,50,o),
(131,36,o),
(94,36,cs),
(46,36,ls),
(40,36,o),
(39,34,o),
(39,29,cs),
(39,4,ls),
(39,-1,o),
(40,-3,o),
(47,-3,cs),
(54,-3,o),
(66,-2,o),
(86,-1,cs),
(107,-1,o),
(136,0,o),
(175,0,cs),
(229,0,o),
(327,0,o),
(416,-1,cs),
(505,-1,o),
(583,-2,o),
(596,-3,c),
(602,24,o),
(642,189,o),
(645,196,c),
(646,202,o),
(646,203,o),
(643,205,c),
(627,211,ls),
(623,213,o),
(621,211,o),
(619,207,cs),
(605,168,o),
(545,48,o),
(486,39,cs),
(455,35,o),
(257,37,o),
(235,39,c),
(232,80,o),
(232,296,o),
(232,313,cs),
(232,399,ls),
(232,469,o),
(235,620,o),
(235,633,cs),
(235,662,o),
(239,672,o),
(270,672,cs),
(330,672,ls),
(338,672,o),
(340,675,o),
(340,680,cs),
(340,703,ls),
(340,708,o),
(339,711,o),
(331,711,cs),
(322,711,o),
(280,708,o),
(183,708,cs),
(100,708,o),
(64,711,o),
(53,711,cs),
(47,711,o),
(46,709,o),
(46,704,cs),
(46,682,ls),
(46,677,o),
(47,672,o),
(53,672,cs),
(100,672,ls),
(130,672,o),
(135,662,o),
(137,636,cs),
(138,618,o),
(140,512,o),
(140,448,cs)
);
}
);
width = 686;
},
{
layerId = m003;
shapes = (
{
closed = 1;
nodes = (
(136,392,ls),
(135,228,o),
(75,196,o),
(50,170,cs),
(25,146,o),
(31,124,o),
(32,88,cs),
(32,56,ls),
(31,48,o),
(31,32,o),
(32,28,cs),
(32,20,ls),
(31,15,o),
(33,0,o),
(46,0,cs),
(52,0,o),
(63,0,o),
(82,0,cs),
(102,0,o),
(131,0,o),
(170,0,cs),
(224,0,o),
(322,0,o),
(412,0,cs),
(500,-1,o),
(578,-2,o),
(592,-2,c),
(597,24,o),
(637,189,o),
(640,196,c),
(641,202,o),
(641,203,o),
(638,206,c),
(622,212,ls),
(618,213,o),
(616,211,o),
(614,208,cs),
(600,168,o),
(540,48,o),
(482,40,cs),
(450,35,o),
(252,37,o),
(230,40,c),
(227,80,o),
(227,296,o),
(228,314,cs),
(228,400,ls),
(227,469,o),
(230,620,o),
(230,634,cs),
(230,662,o),
(234,672,o),
(266,672,cs),
(326,672,ls),
(333,672,o),
(335,675,o),
(336,680,cs),
(336,704,ls),
(335,708,o),
(334,711,o),
(326,712,cs),
(317,711,o),
(275,708,o),
(178,708,cs),
(95,708,o),
(59,711,o),
(48,712,cs),
(42,711,o),
(41,709,o),
(42,704,cs),
(42,510,ls),
(41,505,o),
(42,500,o),
(50,500,cs),
(96,500,ls),
(125,500,o),
(130,662,o),
(132,636,cs),
(133,618,o),
(135,512,o),
(136,448,cs)
);
}
);
width = 672;
}
);
unicode = (76,108);
},
{
glyphname = M;
lastChange = "2025-10-03 20:15:44 +0000";
layers = (
{
layerId = m01;
shapes = (
{
closed = 1;
nodes = (
(344,714,ls),
(339,727,o),
(332,731,o),
(318,732,cs),
(305,731,o),
(279,716,o),
(232,716,cs),
(177,716,o),
(120,735,o),
(110,736,cs),
(104,735,o),
(105,732,o),
(104,730,cs),
(84,680,ls),
(82,675,o),
(84,672,o),
(90,672,cs),
(172,672,ls),
(212,672,o),
(211,658,o),
(212,636,cs),
(213,606,o),
(213,455,o),
(214,442,cs),
(213,423,o),
(210,167,o),
(198,96,cs),
(192,62,o),
(179,24,o),
(146,36,cs),
(90,56,ls),
(86,57,o),
(79,53,o),
(78,50,cs),
(66,6,ls),
(64,-2,o),
(67,-3,o),
(76,-2,cs),
(84,-3,o),
(139,0,o),
(224,0,cs),
(325,0,o),
(358,-3,o),
(370,-2,cs),
(377,-3,o),
(379,0,o),
(378,4,cs),
(366,50,ls),
(365,53,o),
(358,57,o),
(354,56,cs),
(298,36,ls),
(269,26,o),
(256,52,o),
(252,110,cs),
(248,144,o),
(249,355,o),
(250,368,cs),
(249,379,o),
(251,632,o),
(256,646,c),
(269,634,o),
(360,410,o),
(380,364,cs),
(384,352,o),
(512,36,o),
(516,30,cs),
(519,19,o),
(524,11,o),
(530,12,cs),
(538,11,o),
(546,26,o),
(550,36,cs),
(554,44,o),
(665,299,o),
(672,312,cs),
(676,321,o),
(818,636,o),
(828,650,c),
(830,650,l),
(833,640,o),
(833,462,o),
(834,396,cs),
(834,332,ls),
(833,258,o),
(832,84,o),
(832,72,cs),
(829,42,o),
(820,28,o),
(804,36,cs),
(760,56,ls),
(752,60,o),
(742,54,o),
(740,50,cs),
(720,6,ls),
(717,0,o),
(720,-3,o),
(728,-2,cs),
(740,-3,o),
(787,0,o),
(880,0,cs),
(1003,0,o),
(1021,-3,o),
(1034,-2,cs),
(1041,-3,o),
(1045,0,o),
(1042,6,cs),
(1022,50,ls),
(1021,53,o),
(1007,59,o),
(1002,56,cs),
(962,36,ls),
(939,25,o),
(928,52,o),
(928,90,cs),
(928,110,o),
(925,272,o),
(926,322,cs),
(926,392,ls),
(925,459,o),
(928,602,o),
(928,632,cs),
(928,654,o),
(931,672,o),
(962,672,cs),
(1026,672,ls),
(1032,672,o),
(1037,676,o),
(1034,682,cs),
(1014,728,ls),
(1012,732,o),
(1012,735,o),
(1008,736,cs),
(996,735,o),
(888,704,o),
(830,728,cs),
(819,733,o),
(808,727,o),
(806,716,cs),
(803,696,o),
(694,441,o),
(688,428,cs),
(679,414,o),
(579,175,o),
(566,160,c)
);
}
);
width = 1108;
},
{
layerId = m002;
shapes = (
{
closed = 1;
nodes = (
(308,694,ls),
(302,707,o),
(296,711,o),
(282,712,cs),
(269,711,o),
(243,708,o),
(196,708,cs),
(111,708,o),
(84,711,o),
(74,712,cs),
(68,711,o),
(67,708,o),
(68,706,cs),
(68,680,ls),
(67,675,o),
(68,672,o),
(74,672,cs),
(136,672,ls),
(176,672,o),
(175,658,o),
(176,636,cs),
(177,606,o),
(177,455,o),
(178,442,cs),
(177,423,o),
(174,167,o),
(162,96,cs),
(156,62,o),
(147,36,o),
(110,36,cs),
(56,36,ls),
(51,36,o),
(50,33,o),
(50,30,cs),
(50,6,ls),
(50,-2,o),
(51,-3,o),
(60,-2,cs),
(68,-3,o),
(103,0,o),
(188,0,cs),
(271,0,o),
(298,-3,o),
(310,-2,cs),
(317,-3,o),
(318,0,o),
(318,4,cs),
(318,30,ls),
(318,33,o),
(317,36,o),
(312,36,cs),
(262,36,ls),
(229,36,o),
(220,52,o),
(216,110,cs),
(212,144,o),
(213,355,o),
(214,368,cs),
(213,379,o),
(215,632,o),
(220,646,c),
(233,634,o),
(324,410,o),
(344,364,cs),
(348,352,o),
(476,36,o),
(480,30,cs),
(483,19,o),
(488,11,o),
(494,12,cs),
(502,11,o),
(510,26,o),
(514,36,cs),
(518,44,o),
(629,299,o),
(636,312,cs),
(640,321,o),
(782,636,o),
(792,650,c),
(794,650,l),
(797,640,o),
(797,462,o),
(798,396,cs),
(798,332,ls),
(797,258,o),
(796,84,o),
(796,72,cs),
(793,42,o),
(784,36,o),
(768,36,cs),
(700,36,ls),
(692,36,o),
(691,34,o),
(692,30,cs),
(692,6,ls),
(691,0,o),
(692,-3,o),
(700,-2,cs),
(712,-3,o),
(751,0,o),
(844,0,cs),
(953,0,o),
(971,-3,o),
(984,-2,cs),
(991,-3,o),
(992,0,o),
(992,6,cs),
(992,30,ls),
(992,33,o),
(991,36,o),
(986,36,cs),
(926,36,ls),
(901,36,o),
(892,52,o),
(892,90,cs),
(892,110,o),
(889,272,o),
(890,322,cs),
(890,392,ls),
(889,459,o),
(892,602,o),
(892,632,cs),
(892,654,o),
(895,672,o),
(926,672,cs),
(970,672,ls),
(976,672,o),
(977,675,o),
(978,682,cs),
(978,704,ls),
(977,708,o),
(976,711,o),
(972,712,cs),
(960,711,o),
(926,708,o),
(794,708,cs),
(783,708,o),
(772,707,o),
(770,696,cs),
(767,676,o),
(658,441,o),
(652,428,cs),
(643,414,o),
(543,175,o),
(530,160,c)
);
}
);
width = 1042;
},
{
layerId = m003;
shapes = (
{
closed = 1;
nodes = (
(290,694,ls),
(284,707,o),
(278,711,o),
(264,712,cs),
(251,711,o),
(225,708,o),
(178,708,cs),
(93,708,o),
(66,711,o),
(56,712,cs),
(50,711,o),
(49,708,o),
(50,706,cs),
(50,680,ls),
(49,675,o),
(50,672,o),
(56,672,cs),
(118,672,ls),
(158,672,o),
(157,658,o),
(158,636,cs),
(159,606,o),
(159,455,o),
(160,442,cs),
(156,258,o),
(145,225,o),
(116,178,cs),
(88,132,o),
(70,126,o),
(70,74,cs),
(70,50,ls),
(70,45,o),
(70,33,o),
(70,30,cs),
(70,10,ls),
(70,2,o),
(73,-3,o),
(82,-2,cs),
(90,-3,o),
(125,0,o),
(170,0,cs),
(253,0,o),
(280,-3,o),
(292,-2,cs),
(299,-3,o),
(300,0,o),
(300,4,cs),
(300,30,ls),
(300,33,o),
(299,36,o),
(294,36,cs),
(244,36,ls),
(211,36,o),
(202,52,o),
(198,110,cs),
(194,144,o),
(195,355,o),
(196,368,cs),
(195,379,o),
(197,632,o),
(202,646,c),
(215,634,o),
(306,410,o),
(326,364,cs),
(330,352,o),
(458,36,o),
(462,30,cs),
(465,19,o),
(470,11,o),
(476,12,cs),
(484,11,o),
(492,26,o),
(496,36,cs),
(500,44,o),
(611,299,o),
(618,312,cs),
(622,321,o),
(764,636,o),
(774,650,c),
(776,650,l),
(779,640,o),
(779,462,o),
(780,396,cs),
(780,332,ls),
(779,258,o),
(778,84,o),
(778,72,cs),
(775,42,o),
(766,36,o),
(750,36,cs),
(682,36,ls),
(674,36,o),
(673,34,o),
(674,30,cs),
(674,6,ls),
(673,0,o),
(674,-3,o),
(682,-2,cs),
(694,-3,o),
(733,0,o),
(826,0,cs),
(935,0,o),
(953,-3,o),
(966,-2,cs),
(973,-3,o),
(974,0,o),
(974,6,cs),
(974,30,ls),
(974,33,o),
(973,36,o),
(968,36,cs),
(908,36,ls),
(883,36,o),
(874,52,o),
(874,90,cs),
(874,110,o),
(871,272,o),
(872,322,cs),
(872,392,ls),
(871,459,o),
(874,602,o),
(874,632,cs),
(874,654,o),
(906,496,o),
(926,496,cs),
(952,496,ls),
(958,496,o),
(960,499,o),
(960,506,cs),
(960,704,ls),
(959,708,o),
(958,711,o),
(954,712,cs),
(942,711,o),
(908,708,o),
(776,708,cs),
(765,708,o),
(754,707,o),
(752,696,cs),
(749,676,o),
(640,441,o),
(634,428,cs),
(625,414,o),
(525,175,o),
(512,160,c)
);
}
);
width = 1024;
}
);
unicode = (77,109);
},
{
glyphname = N;
lastChange = "2025-10-03 20:15:44 +0000";
layers = (
{
layerId = m01;
shapes = (
{
closed = 1;
nodes = (
(180,408,ls),
(179,230,o),
(177,116,o),
(176,98,cs),
(170,48,o),
(156,39,o),
(130,52,cs),
(80,76,ls),
(76,78,o),
(70,75,o),
(70,74,cs),
(46,4,ls),
(45,0,o),
(47,-3,o),
(52,-2,cs),
(61,-3,o),
(174,0,o),
(196,0,cs),
(222,0,o),
(344,-3,o),
(354,-2,cs),
(361,-3,o),
(365,0,o),
(362,6,cs),
(326,74,ls),
(324,78,o),
(318,79,o),
(312,76,cs),
(262,52,ls),
(238,41,o),
(229,55,o),
(226,94,cs),
(223,114,o),
(215,277,o),
(216,370,cs),
(216,592,l),
(222,592,l),
(227,584,o),
(411,353,o),
(422,344,cs),
(428,337,o),
(501,245,o),
(572,158,cs),
(633,80,o),
(692,6,o),
(694,4,cs),
(696,0,o),
(705,-12,o),
(718,-12,cs),
(721,-12,o),
(722,-2,o),
(722,12,cs),
(722,386,ls),
(722,451,o),
(726,552,o),
(726,620,cs),
(726,674,o),
(754,672,o),
(806,672,cs),
(824,672,ls),
(828,672,o),
(836,686,o),
(834,690,cs),
(812,730,ls),
(810,734,o),
(800,737,o),
(792,736,cs),
(778,735,o),
(754,716,o),
(694,716,cs),
(630,716,o),
(592,734,o),
(578,736,cs),
(573,737,o),
(566,736,o),
(564,732,cs),
(546,692,ls),
(541,681,o),
(547,672,o),
(552,672,cs),
(616,672,ls),
(643,672,o),
(666,652,o),
(670,618,cs),
(674,582,o),
(681,518,o),
(682,480,cs),
(684,429,o),
(685,380,o),
(686,292,cs),
(686,172,l),
(682,172,l),
(657,204,o),
(488,411,o),
(478,426,cs),
(466,439,o),
(272,715,o),
(268,722,cs),
(259,730,o),
(254,734,o),
(238,734,cs),
(226,734,o),
(206,718,o),
(188,714,cs),
(174,711,o),
(154,710,o),
(136,714,cs),
(114,719,o),
(93,736,o),
(82,736,cs),
(74,736,o),
(67,732,o),
(66,730,cs),
(46,680,ls),
(45,677,o),
(47,660,o),
(52,660,cs),
(114,660,ls),
(149,659,o),
(179,637,o),
(180,578,cs)
);
}
);
width = 880;
},
{
layerId = m002;
shapes = (
{
closed = 1;
nodes = (
(160,408,ls),
(159,230,o),
(157,116,o),
(156,98,cs),
(150,48,o),
(139,36,o),
(110,36,cs),
(76,36,ls),
(71,36,o),
(70,33,o),
(70,30,cs),
(70,4,ls),
(70,-1,o),
(71,-3,o),
(76,-2,cs),
(85,-3,o),
(154,0,o),
(176,0,cs),
(202,0,o),
(262,-3,o),
(272,-2,cs),
(279,-3,o),
(280,-1,o),
(280,6,cs),
(280,28,ls),
(280,33,o),
(279,36,o),
(272,36,cs),
(242,36,ls),
(215,36,o),
(209,55,o),
(206,94,cs),
(203,114,o),
(195,277,o),
(196,370,cs),
(196,592,l),
(202,592,l),
(207,584,o),
(391,353,o),
(402,344,cs),
(408,337,o),
(481,245,o),
(552,158,cs),
(613,80,o),
(672,6,o),
(674,4,cs),
(676,0,o),
(685,-12,o),
(698,-12,cs),
(701,-12,o),
(702,-2,o),
(702,12,cs),
(702,386,ls),
(702,451,o),
(702,550,o),
(706,618,cs),
(708,655,o),
(718,672,o),
(746,672,cs),
(772,672,ls),
(776,672,o),
(778,675,o),
(778,680,cs),
(778,704,ls),
(778,708,o),
(777,711,o),
(770,712,cs),
(757,711,o),
(733,708,o),
(674,708,cs),
(609,708,o),
(577,711,o),
(564,712,cs),
(559,711,o),
(557,709,o),
(558,706,cs),
(558,680,ls),
(557,674,o),
(559,672,o),
(564,672,cs),
(596,672,ls),
(623,672,o),
(642,658,o),
(650,634,cs),
(656,616,o),
(661,518,o),
(662,480,cs),
(664,429,o),
(665,380,o),
(666,292,cs),
(666,172,l),
(662,172,l),
(637,204,o),
(468,411,o),
(458,426,cs),
(446,439,o),
(252,691,o),
(248,698,cs),
(239,706,o),
(231,710,o),
(218,710,cs),
(206,710,o),
(185,708,o),
(152,708,cs),
(117,708,o),
(95,709,o),
(80,710,cs),
(65,710,o),
(57,711,o),
(52,712,cs),
(47,711,o),
(46,709,o),
(46,706,cs),
(46,680,ls),
(46,676,o),
(47,672,o),
(52,672,cs),
(94,672,ls),
(129,670,o),
(159,637,o),
(160,578,cs)
);
}
);
width = 824;
},
{
layerId = m003;
shapes = (
{
closed = 1;
nodes = (
(160,408,ls),
(159,230,o),
(107,162,o),
(94,146,cs),
(72,119,o),
(70,90,o),
(70,76,cs),
(70,42,ls),
(70,37,o),
(70,36,o),
(70,34,cs),
(70,8,ls),
(70,2,o),
(71,0,o),
(76,0,cs),
(85,0,o),
(154,0,o),
(176,0,cs),
(202,0,o),
(262,-3,o),
(272,-2,cs),
(279,-3,o),
(280,-1,o),
(280,6,cs),
(280,28,ls),
(280,33,o),
(279,36,o),
(272,36,cs),
(242,36,ls),
(215,36,o),
(209,55,o),
(206,94,cs),
(203,114,o),
(195,277,o),
(196,370,cs),
(196,592,l),
(202,592,l),
(207,584,o),
(391,353,o),
(402,344,cs),
(408,337,o),
(481,245,o),
(552,158,cs),
(613,80,o),
(672,6,o),
(674,4,cs),
(676,0,o),
(685,-12,o),
(698,-12,cs),
(701,-12,o),
(702,-2,o),
(702,12,cs),
(702,386,ls),
(702,451,o),
(702,550,o),
(706,618,cs),
(708,655,o),
(718,496,o),
(746,496,cs),
(772,496,ls),
(776,496,o),
(778,499,o),
(778,504,cs),
(778,704,ls),
(778,708,o),
(777,711,o),
(770,712,cs),
(757,711,o),
(733,708,o),
(674,708,cs),
(609,708,o),
(577,711,o),
(564,712,cs),
(559,711,o),
(557,709,o),
(558,706,cs),
(558,680,ls),
(557,674,o),
(559,672,o),
(564,672,cs),
(596,672,ls),
(623,672,o),
(642,658,o),
(650,634,cs),
(656,616,o),
(661,518,o),
(662,480,cs),
(664,429,o),
(665,380,o),
(666,292,cs),
(666,172,l),
(662,172,l),
(637,204,o),
(468,411,o),
(458,426,cs),
(446,439,o),
(252,691,o),
(248,698,cs),
(239,706,o),
(231,710,o),
(218,710,cs),
(206,710,o),
(185,708,o),
(152,708,cs),
(117,708,o),
(95,709,o),
(80,710,cs),
(65,710,o),
(57,711,o),
(52,712,cs),
(47,711,o),
(46,709,o),
(46,706,cs),
(46,680,ls),
(46,676,o),
(47,672,o),
(52,672,cs),
(94,672,ls),
(129,670,o),
(159,637,o),
(160,578,cs)
);
}
);
width = 824;
}
);
unicode = (78,110);
},
{
glyphname = O;
lastChange = "2025-10-03 20:15:44 +0000";
layers = (
{
layerId = m01;
shapes = (
{
closed = 1;
nodes = (
(494,-15,o),
(560,7,o),
(612,43,cs),
(646,66,o),
(674,94,o),
(698,126,cs),
(750,196,o),
(773,272,o),
(773,345,cs),
(773,483,o),
(709,581,o),
(636,644,cs),
(557,710,o),
(475,723,o),
(412,723,cs),
(370,723,o),
(324,718,o),
(277,699,cs),
(255,690,o),
(233,678,o),
(211,662,cs),
(187,645,o),
(164,623,o),
(141,596,cs),
(64,503,o),
(48,408,o),
(48,347,cs),
(48,201,o),
(124,93,o),
(195,50,cs),
(274,1,o),
(361,-15,o),
(410,-15,cs)
);
},
{
closed = 1;
nodes = (
(333,23,o),
(150,116,o),
(150,379,cs),
(150,461,o),
(183,562,o),
(250,626,cs),
(325,697,o),
(393,685,o),
(408,685,cs),
(519,685,o),
(675,556,o),
(675,337,cs),
(675,248,o),
(638,23,o),
(418,23,cs)
);
}
);
width = 822;
},
{
layerId = m002;
shapes = (
{
closed = 1;
nodes = (
(498,-15,o),
(565,9,o),
(619,47,cs),
(650,70,o),
(676,96,o),
(698,126,cs),
(750,196,o),
(773,272,o),
(773,345,cs),
(773,483,o),
(709,581,o),
(636,644,cs),
(557,710,o),
(475,723,o),
(412,723,cs),
(369,723,o),
(322,718,o),
(275,698,cs),
(253,689,o),
(231,677,o),
(209,661,cs),
(186,644,o),
(163,623,o),
(141,596,cs),
(64,503,o),
(48,408,o),
(48,347,cs),
(48,201,o),
(124,93,o),
(195,50,cs),
(274,1,o),
(361,-15,o),
(410,-15,cs)
);
},
{
closed = 1;
nodes = (
(333,23,o),
(150,116,o),
(150,379,cs),
(150,461,o),
(183,562,o),
(250,626,cs),
(325,697,o),
(393,685,o),
(408,685,cs),
(519,685,o),
(675,556,o),
(675,337,cs),
(675,248,o),
(638,23,o),
(418,23,cs)
);
}
);
width = 822;
},
{
background = {
shapes = (
{
closed = 1;
nodes = (
(138,317.2,ls),
(137,235,o),
(72.4,192.4,o),
(55.2,169.6,cs),
(34.4,142,o),
(35,113,o),
(35.2,88.4,cs),
(35.6,56,ls),
(36,49,o),
(36,33.6,o),
(36,29.2,cs),
(36,18.8,ls),
(36,14.8,o),
(38,0.4,o),
(50,0,cs),
(65.2,-0.4,o),
(108,0,o),
(186,0,cs),
(272,0,o),
(312,-3,o),
(322,-3,cs),
(328,-3,o),
(330,-1,o),
(330,5,cs),
(330,30,ls),
(330,34,o),
(327,36,o),
(321,36,cs),
(272,36,ls),
(238,36,o),
(233,41,o),
(233,68,cs),
(233,83,o),
(232,251,o),
(232,281,cs),
(232,318,l),
(248,318,o),
(321,318,o),
(368,312,cs),
(390,309,o),
(402,297,o),
(409,273,cs),
(412,262,o),
(419,232,o),
(420,224,cs),
(421,219,o),
(422,216,o),
(427,217,cs),
(446,221,ls),
(451,222,o),
(453,224,o),
(453,229,cs),
(451,249,o),
(448,297,o),
(448,333,cs),
(448,347,o),
(448,430,o),
(450,447,cs),
(450,451,o),
(448,454,o),
(444,454,cs),
(424,455,ls),
(420,455.2,o),
(418,452,o),
(417,448,cs),
(414,430,o),
(410,409,o),
(407,399,cs),
(398,368,o),
(385,359,o),
(363,355,cs),
(351,353,o),
(246,350,o),
(232,350,c),
(232,400,ls),
(232,461,o),
(233,662,o),
(233,675,c),
(263,675,o),
(422,672,o),
(447.2,666,cs),
(476,659.2,o),
(476.8,664,o),
(514.8,619.6,cs),
(524.4,608.4,o),
(517.6,557.6,o),
(516.8,548,cs),
(513.6,512,o),
(516.4,455.6,o),
(533.6,436,cs),
(542.4,426,o),
(555.6,420.8,o),
(566.4,418.8,cs),
(579.2,416.4,o),
(599.6,512,o),
(598.8,534,cs),
(598,555,o),
(583,639,o),
(574,684,cs),
(572,698,o),
(569,708,o),
(568,712,c),
(567,712,o),
(564,712,o),
(558,712,cs),
(494,708,o),
(200,708,o),
(185,708,cs),
(137,708,o),
(103,709,o),
(80,710,cs),
(57,710,o),
(45,711,o),
(39,711,cs),
(35,711,o),
(32,709.2,o),
(32,705,cs),
(32,486,ls),
(32,482,o),
(35.2,480,o),
(39.2,480,cs),
(80,480,ls),
(106.8,480,o),
(138,662,o),
(138,643,cs),
(138,631,o),
(141,490,o),
(140,446,cs)
);
}
);
};
layerId = m003;
shapes = (
{
closed = 1;
nodes = (
(354,-8,o),
(526,-30,o),
(600,30,cs),
(625,51,o),
(679,98,o),
(698,126,cs),
(727,169,o),
(773,272,o),
(774,346,cs),
(773,483,o),
(709,581,o),
(636,644,cs),
(557,710,o),
(455,723,o),
(392,724,cs),
(353,724,o),
(32,722,o),
(34,706,cs),
(45,616,o),
(26,481,o),
(38,480,cs),
(60,478,o),
(50,480,o),
(62,480,cs),
(94,480,o),
(140,702,o),
(140,642,cs),
(140,495,o),
(22,231,o),
(22,170,cs),
(22,104,o),
(8,-3,o),
(50,-4,cs)
);
},
{
closed = 1;
nodes = (
(313,23,o),
(170,116,o),
(170,380,cs),
(170,461,o),
(203,562,o),
(270,626,cs),
(345,697,o),
(393,685,o),
(408,686,cs),
(519,685,o),
(655,556,o),
(656,338,cs),
(655,248,o),
(618,23,o),
(398,24,cs)
);
}
);
width = 794;
}
);
unicode = (79,111);
},
{
glyphname = P;
lastChange = "2025-10-03 20:15:44 +0000";
layers = (
{
layerId = m01;
shapes = (
{
closed = 1;
nodes = (
(248,318,l),
(280,313,o),
(320,312,o),
(358,312,cs),
(516,312,o),
(611,390,o),
(612,516,cs),
(611,573,o),
(582,629,o),
(536,662,cs),
(478,700,o),
(425,711,o),
(312,712,cs),
(279,711,o),
(220,708,o),
(202,708,cs),
(123,708,o),
(87,742,o),
(76,742,cs),
(71,742,o),
(69,740,o),
(68,736,cs),
(42,680,ls),
(40,675,o),
(43,672,o),
(48,668,cs),
(128,580,ls),
(146,559,o),
(154,670,o),
(156,650,cs),
(157,640,o),
(158,531,o),
(158,466,cs),
(158,350,ls),
(158,234,o),
(158,82,o),
(158,72,cs),
(159,45,o),
(157,25,o),
(126,40,cs),
(60,72,ls),
(55,74,o),
(44,74,o),
(42,70,cs),
(22,6,ls),
(21,3,o),
(23,0,o),
(30,0,cs),
(41,0,o),
(135,0,o),
(208,0,cs),
(301,0,o),
(380,-3,o),
(394,-2,cs),
(402,-3,o),
(405,1,o),
(404,6,cs),
(372,72,ls),
(371,76,o),
(363,80,o),
(356,76,cs),
(284,40,ls),
(265,31,o),
(252,50,o),
(250,72,cs),
(249,86,o),
(248,218,o),
(248,266,cs)
);
},
{
closed = 1;
nodes = (
(248,672,l),
(268,679,o),
(309,679,o),
(326,680,cs),
(385,679,o),
(507,644,o),
(508,514,cs),
(507,478,o),
(503,441,o),
(482,412,cs),
(455,377,o),
(401,344,o),
(340,344,cs),
(301,344,o),
(268,347,o),
(248,354,c)
);
}
);
width = 634;
},
{
layerId = m002;
shapes = (
{
closed = 1;
nodes = (
(225,317,l),
(257,313,o),
(297,312,o),
(334,312,cs),
(493,312,o),
(588,390,o),
(588,516,cs),
(588,573,o),
(559,629,o),
(512,661,cs),
(455,700,o),
(402,711,o),
(289,711,cs),
(256,711,o),
(197,708,o),
(179,708,cs),
(84,708,o),
(48,711,o),
(37,711,cs),
(32,711,o),
(31,709,o),
(31,704,cs),
(31,680,ls),
(31,674,o),
(32,672,o),
(37,672,cs),
(94,672,ls),
(121,672,o),
(131,670,o),
(133,650,cs),
(134,640,o),
(135,531,o),
(135,465,cs),
(135,350,ls),
(135,234,o),
(132,78,o),
(131,68,cs),
(128,41,o),
(121,36,o),
(87,36,cs),
(44,36,ls),
(39,36,o),
(38,34,o),
(38,29,cs),
(38,4,ls),
(38,0,o),
(39,-3,o),
(46,-3,cs),
(57,-3,o),
(96,0,o),
(184,0,cs),
(278,0,o),
(309,-3,o),
(323,-3,cs),
(331,-3,o),
(332,0,o),
(332,5,cs),
(332,29,ls),
(332,33,o),
(331,36,o),
(324,36,cs),
(260,36,ls),
(239,36,o),
(229,46,o),
(227,68,cs),
(226,82,o),
(225,218,o),
(225,265,cs)
);
},
{
closed = 1;
nodes = (
(225,672,l),
(245,679,o),
(286,679,o),
(303,679,cs),
(362,679,o),
(484,644,o),
(484,513,cs),
(484,478,o),
(480,441,o),
(458,412,cs),
(432,377,o),
(378,344,o),
(317,344,cs),
(278,344,o),
(245,347,o),
(225,353,c)
);
}
);
width = 620;
},
{
layerId = m003;
shapes = (
{
closed = 1;
nodes = (
(214,318,l),
(245,313,o),
(285,312,o),
(322,312,cs),
(481,312,o),
(576,390,o),
(576,516,cs),
(576,573,o),
(547,629,o),
(500,662,cs),
(443,700,o),
(390,711,o),
(278,712,cs),
(244,711,o),
(185,708,o),
(168,708,cs),
(72,708,o),
(36,711,o),
(26,712,cs),
(20,711,o),
(19,709,o),
(20,704,cs),
(20,518,ls),
(19,512,o),
(20,508,o),
(26,510,cs),
(82,540,ls),
(105,552,o),
(119,670,o),
(122,650,cs),
(122,640,o),
(123,531,o),
(124,466,cs),
(124,350,ls),
(123,234,o),
(120,78,o),
(120,68,cs),
(116,41,o),
(109,36,o),
(76,36,cs),
(32,36,ls),
(27,36,o),
(26,34,o),
(26,30,cs),
(26,4,ls),
(26,0,o),
(27,-3,o),
(34,-2,cs),
(45,-3,o),
(84,0,o),
(172,0,cs),
(266,0,o),
(297,-3,o),
(312,-2,cs),
(319,-3,o),
(320,0,o),
(320,6,cs),
(320,16,ls),
(320,19,o),
(320,35,o),
(320,42,cs),
(320,72,ls),
(319,87,o),
(318,119,o),
(296,146,cs),
(284,162,o),
(213,218,o),
(214,266,cs)
);
},
{
closed = 1;
nodes = (
(214,672,l),
(233,679,o),
(274,679,o),
(292,680,cs),
(350,679,o),
(472,644,o),
(472,514,cs),
(472,478,o),
(468,441,o),
(446,412,cs),
(420,377,o),
(366,344,o),
(306,344,cs),
(266,344,o),
(233,347,o),
(214,354,c)
);
}
);
width = 596;
}
);
unicode = (80,112);
},
{
glyphname = Q;
lastChange = "2025-10-03 20:15:44 +0000";
layers = (
{
background = {
shapes = (
{
closed = 1;
nodes = (
(753,534,o),
(678,497,o),
(618,444,cs),
(546,374,o),
(511,258,o),
(510,164,cs),
(511,69,o),
(541,-27,o),
(612,-102,cs),
(664,-157,o),
(754,-202,o),
(862,-202,cs),
(917,-205,o),
(951,-209,o),
(1036,-192,cs),
(1051,-190,o),
(1070,-200,o),
(1078,-204,cs),
(1104,-220,ls),
(1110,-224,o),
(1113,-225,o),
(1116,-208,cs),
(1119,-200,o),
(1134,-102,o),
(1136,-86,cs),
(1140,-73,o),
(1141,-69,o),
(1142,-56,cs),
(1144,-51,o),
(1146,-23,o),
(1142,-22,cs),
(1137,-21,o),
(1088,-19,o),
(1082,-18,cs),
(1078,-17,o),
(1076,-18,o),
(1072,-26,cs),
(1059,-59,o),
(1053,-74,o),
(1018,-122,cs),
(997,-155,o),
(940,-169,o),
(860,-168,cs),
(682,-169,o),
(610,-10,o),
(610,138,cs),
(611,194,o),
(629,307,o),
(706,394,cs),
(775,469,o),
(832,477,o),
(898,478,cs),
(1012,477,o),
(1100,415,o),
(1146,352,cs),
(1149,345,o),
(1151,344,o),
(1154,348,cs),
(1166,358,ls),
(1170,359,o),
(1172,361,o),
(1168,368,cs),
(1109,453,o),
(1012,534,o),
(870,536,cs)
);
}
);
};
layerId = m01;
shapes = (
{
closed = 1;
nodes = (
(349,725,o),
(240,697,o),
(163,627,cs),
(90,560,o),
(48,462,o),
(48,366,cs),
(48,246,o),
(91,157,o),
(145,102,cs),
(237,4,o),
(327,-11,o),
(347,-18,c),
(480,-62,o),
(484,-64,o),
(538,-78,cs),
(553,-82,o),
(586,-90,o),
(616,-96,cs),
(648,-102,o),
(704,-110,o),
(736,-110,cs),
(740,-110,o),
(756,-24,o),
(756,-20,cs),
(760,10,o),
(762,42,o),
(766,72,cs),
(767,77,o),
(695,99,o),
(692,96,cs),
(680,87,o),
(638,-4,o),
(626,-18,cs),
(614,-32,o),
(586,-26,o),
(550,-20,cs),
(524,-16,o),
(504,-14,o),
(490,-11,c),
(490,-7,l),
(553,14,o),
(605,42,o),
(664,101,cs),
(724,160,o),
(769,257,o),
(767,364,cs),
(769,454,o),
(739,545,o),
(671,616,cs),
(609,681,o),
(519,725,o),
(402,723,c)
);
},
{
closed = 1;
nodes = (
(383,17,o),
(332,24,o),
(256,96,cs),
(207,143,o),
(149,240,o),
(149,374,cs),
(149,457,o),
(170,556,o),
(236,622,cs),
(292,678,o),
(350,687,o),
(396,687,cs),
(469,687,o),
(520,660,o),
(581,602,cs),
(634,552,o),
(667,453,o),
(667,333,cs),
(667,248,o),
(613,17,o),
(411,17,cs)
);
}
);
width = 1146;
},
{
layerId = m002;
shapes = (
{
closed = 1;
nodes = (
(349,725,o),
(240,697,o),
(163,627,cs),
(90,560,o),
(48,462,o),
(48,366,cs),
(48,246,o),
(91,157,o),
(145,102,cs),
(237,4,o),
(327,-11,o),
(347,-18,c),
(486,-83,o),
(631,-136,o),
(731,-161,cs),
(906,-206,o),
(968,-208,o),
(998,-208,cs),
(1054,-208,o),
(1119,-140,o),
(1132,-127,cs),
(1136,-124,o),
(1138,-119,o),
(1136,-116,cs),
(1134,-112,o),
(1130,-107,o),
(1128,-106,cs),
(1125,-104,o),
(1121,-105,o),
(1118,-108,cs),
(1106,-117,o),
(1085,-130,o),
(1057,-130,cs),
(1038,-130,o),
(999,-141,o),
(746,-84,cs),
(677,-69,o),
(593,-49,o),
(490,-11,c),
(490,-7,l),
(553,14,o),
(605,42,o),
(664,101,cs),
(724,160,o),
(769,257,o),
(767,364,cs),
(769,454,o),
(739,545,o),
(671,616,cs),
(609,681,o),
(519,725,o),
(402,723,c)
);
},
{
closed = 1;
nodes = (
(383,17,o),
(332,24,o),
(256,96,cs),
(207,143,o),
(149,240,o),
(149,374,cs),
(149,457,o),
(170,556,o),
(236,622,cs),
(292,678,o),
(350,687,o),
(396,687,cs),
(469,687,o),
(520,660,o),
(581,602,cs),
(634,552,o),
(667,453,o),
(667,333,cs),
(667,248,o),
(613,17,o),
(411,17,cs)
);
}
);
width = 900;
},
{
background = {
shapes = (
{
closed = 1;
nodes = (
(502,156,ls),
(502,60,o),
(502,-34,o),
(500,-132,cs),
(500,-160,o),
(483,-167,o),
(460,-166,cs),
(420,-166,ls),
(415,-167,o),
(415,-170,o),
(414,-174,cs),
(414,-196,ls),
(415,-203,o),
(415,-206,o),
(422,-204,cs),
(434,-206,o),
(457,-203,o),
(548,-202,cs),
(643,-203,o),
(668,-206,o),
(678,-204,cs),
(689,-206,o),
(690,-204,o),
(690,-196,cs),
(690,-174,ls),
(690,-170,o),
(689,-159,o),
(688,-142,cs),
(688,-112,ls),
(689,-98,o),
(681,-61,o),
(654,-44,cs),
(638,-34,o),
(592,-1,o),
(592,60,cs),
(592,116,l),
(606,117,o),
(616,117,o),
(624,118,cs),
(683,117,o),
(707,90,o),
(732,60,cs),
(745,45,o),
(793,-27,o),
(796,-32,cs),
(802,-42,o),
(856,-137,o),
(864,-148,cs),
(873,-162,o),
(895,-196,o),
(906,-204,c),
(921,-205,o),
(958,-203,o),
(986,-202,cs),
(1031,-203,o),
(1057,-206,o),
(1064,-204,cs),
(1072,-206,o),
(1073,-203,o),
(1072,-196,cs),
(1072,-46,ls),
(1073,-43,o),
(1072,-39,o),
(1064,-38,cs),
(1037,-39,o),
(1014,-165,o),
(992,-148,cs),
(974,-136,o),
(910,-45,o),
(904,-34,cs),
(897,-22,o),
(826,80,o),
(814,94,cs),
(806,104,o),
(792,122,o),
(768,132,c),
(768,134,l),
(896,161,o),
(953,208,o),
(952,334,cs),
(953,370,o),
(934,415,o),
(900,448,cs),
(863,483,o),
(797,508,o),
(714,510,cs),
(696,508,o),
(603,505,o),
(546,506,cs),
(463,505,o),
(432,508,o),
(422,510,cs),
(418,508,o),
(417,506,o),
(416,502,cs),
(416,286,ls),
(417,280,o),
(418,277,o),
(422,278,cs),
(462,278,ls),
(488,277,o),
(500,452,o),
(500,420,cs),
(502,390,o),
(502,326,o),
(502,254,cs)
);
},
{
closed = 1;
nodes = (
(592,438,ls),
(592,452,o),
(597,463,o),
(604,470,cs),
(613,474,o),
(626,476,o),
(638,478,cs),
(721,476,o),
(765,461,o),
(804,432,cs),
(833,406,o),
(854,362,o),
(854,318,cs),
(854,274,o),
(819,149,o),
(636,150,cs),
(618,149,o),
(607,150,o),
(592,154,c)
);
}
);
};
layerId = m003;
shapes = (
{
closed = 1;
nodes = (
(349,725,o),
(240,697,o),
(163,627,cs),
(90,560,o),
(48,462,o),
(48,366,cs),
(48,246,o),
(91,157,o),
(145,102,cs),
(237,4,o),
(327,-11,o),
(347,-18,c),
(464,-74,o),
(520,-90,o),
(560,-104,cs),
(610,-122,o),
(678,-140,o),
(730,-146,cs),
(786,-152,o),
(800,-148,o),
(804,-130,cs),
(808,-110,o),
(807,19,o),
(802,22,cs),
(794,26,o),
(786,18,o),
(778,6,cs),
(775,1,o),
(748,-50,o),
(736,-66,cs),
(727,-78,o),
(682,-66,o),
(654,-60,cs),
(634,-56,o),
(609,-49,o),
(588,-44,cs),
(562,-38,o),
(542,-32,o),
(490,-11,c),
(490,-7,l),
(553,14,o),
(605,42,o),
(664,101,cs),
(724,160,o),
(769,257,o),
(767,364,cs),
(769,454,o),
(739,545,o),
(671,616,cs),
(609,681,o),
(519,725,o),
(402,723,c)
);
},
{
closed = 1;
nodes = (
(383,17,o),
(332,24,o),
(256,96,cs),
(207,143,o),
(149,240,o),
(149,374,cs),
(149,457,o),
(170,556,o),
(236,622,cs),
(292,678,o),
(350,687,o),
(396,687,cs),
(469,687,o),
(520,660,o),
(581,602,cs),
(634,552,o),
(667,453,o),
(667,333,cs),
(667,248,o),
(613,17,o),
(411,17,cs)
);
}
);
width = 900;
}
);
unicode = (81,113);
},
{
glyphname = R;
lastChange = "2025-10-03 20:15:44 +0000";
layers = (
{
layerId = m01;
shapes = (
{
closed = 1;
nodes = (
(178,358,ls),
(177,263,o),
(177,181,o),
(176,82,cs),
(175,55,o),
(172,33,o),
(152,40,cs),
(72,70,ls),
(68,71,o),
(57,70,o),
(56,66,cs),
(42,6,ls),
(41,1,o),
(42,-3,o),
(50,-2,cs),
(61,-3,o),
(132,0,o),
(224,0,cs),
(318,0,o),
(395,-3,o),
(406,-2,cs),
(416,-3,o),
(419,0,o),
(418,6,cs),
(402,66,ls),
(401,70,o),
(392,72,o),
(386,70,cs),
(294,38,ls),
(279,33,o),
(271,66,o),
(270,88,cs),
(268,102,o),
(267,202,o),
(268,262,cs),
(268,318,l),
(281,320,o),
(291,320,o),
(300,320,cs),
(358,320,o),
(363,293,o),
(384,262,cs),
(394,247,o),
(444,176,o),
(448,170,cs),
(453,161,o),
(507,66,o),
(516,54,cs),
(524,41,o),
(546,7,o),
(558,-2,c),
(572,-2,o),
(609,0,o),
(638,0,cs),
(694,0,o),
(720,-3,o),
(728,-2,cs),
(735,-3,o),
(737,6,o),
(736,12,cs),
(716,64,ls),
(715,68,o),
(714,70,o),
(706,70,cs),
(679,70,o),
(647,38,o),
(638,54,cs),
(626,73,o),
(561,171,o),
(556,180,cs),
(548,194,o),
(501,283,o),
(490,296,cs),
(481,307,o),
(467,325,o),
(444,334,c),
(444,336,l),
(571,364,o),
(628,411,o),
(628,536,cs),
(628,573,o),
(609,618,o),
(576,650,cs),
(538,686,o),
(472,711,o),
(390,712,cs),
(371,711,o),
(278,708,o),
(222,708,cs),
(138,708,o),
(115,738,o),
(106,738,cs),
(101,738,o),
(96,736,o),
(92,732,cs),
(40,680,ls),
(37,676,o),
(42,665,o),
(46,660,cs),
(138,560,ls),
(155,541,o),
(175,655,o),
(176,622,cs),
(177,593,o),
(177,529,o),
(178,456,cs)
);
},
{
closed = 1;
nodes = (
(268,640,ls),
(267,655,o),
(272,666,o),
(280,672,cs),
(288,677,o),
(301,679,o),
(314,680,cs),
(396,679,o),
(440,664,o),
(480,634,cs),
(508,609,o),
(529,565,o),
(530,520,cs),
(529,477,o),
(494,352,o),
(312,352,cs),
(293,352,o),
(282,353,o),
(268,356,c)
);
}
);
width = 766;
},
{
layerId = m002;
shapes = (
{
closed = 1;
nodes = (
(139,358,ls),
(139,263,o),
(139,169,o),
(137,70,cs),
(137,43,o),
(120,36,o),
(98,36,cs),
(57,36,ls),
(52,36,o),
(52,33,o),
(52,28,cs),
(52,5,ls),
(52,0,o),
(52,-3,o),
(60,-3,cs),
(71,-3,o),
(94,0,o),
(185,0,cs),
(280,0,o),
(305,-3,o),
(316,-3,cs),
(326,-3,o),
(327,-1,o),
(327,6,cs),
(327,28,ls),
(327,33,o),
(326,36,o),
(319,36,cs),
(256,36,ls),
(241,36,o),
(233,54,o),
(231,75,cs),
(230,90,o),
(229,202,o),
(229,261,cs),
(229,317,l),
(243,320,o),
(253,320,o),
(262,320,cs),
(320,320,o),
(344,293,o),
(370,262,cs),
(382,248,o),
(430,176,o),
(434,169,cs),
(439,161,o),
(493,66,o),
(501,54,cs),
(510,41,o),
(532,7,o),
(543,-3,c),
(558,-2,o),
(595,0,o),
(624,0,cs),
(668,0,o),
(694,-3,o),
(702,-3,cs),
(709,-3,o),
(710,0,o),
(710,6,cs),
(710,28,ls),
(710,32,o),
(709,36,o),
(702,36,cs),
(674,36,o),
(651,38,o),
(630,53,cs),
(611,67,o),
(547,158,o),
(542,168,cs),
(534,181,o),
(463,283,o),
(451,296,cs),
(443,307,o),
(429,325,o),
(405,334,c),
(405,336,l),
(533,364,o),
(590,411,o),
(590,536,cs),
(590,573,o),
(571,618,o),
(538,650,cs),
(500,686,o),
(434,711,o),
(351,711,cs),
(333,711,o),
(240,708,o),
(184,708,cs),
(100,708,o),
(69,711,o),
(60,711,cs),
(55,711,o),
(54,709,o),
(54,704,cs),
(54,679,ls),
(54,675,o),
(55,672,o),
(60,672,cs),
(100,672,ls),
(125,672,o),
(137,655,o),
(138,622,cs),
(139,593,o),
(139,529,o),
(139,455,cs)
);
},
{
closed = 1;
nodes = (
(229,639,ls),
(229,655,o),
(234,666,o),
(241,671,cs),
(250,677,o),
(263,679,o),
(275,679,cs),
(358,679,o),
(402,664,o),
(441,633,cs),
(470,609,o),
(491,565,o),
(491,519,cs),
(491,477,o),
(456,352,o),
(274,352,cs),
(255,352,o),
(244,353,o),
(229,356,c)
);
}
);
width = 762;
},
{
layerId = m003;
shapes = (
{
closed = 1;
nodes = (
(138,358,ls),
(137,263,o),
(137,169,o),
(136,70,cs),
(135,43,o),
(118,36,o),
(96,36,cs),
(56,36,ls),
(50,36,o),
(50,33,o),
(50,28,cs),
(50,6,ls),
(50,0,o),
(50,-3,o),
(58,-2,cs),
(69,-3,o),
(92,0,o),
(184,0,cs),
(278,0,o),
(303,-3,o),
(314,-2,cs),
(324,-3,o),
(325,-1,o),
(326,6,cs),
(326,28,ls),
(325,33,o),
(324,44,o),
(324,60,cs),
(324,90,ls),
(324,105,o),
(316,142,o),
(290,158,cs),
(273,169,o),
(227,202,o),
(228,262,cs),
(228,318,l),
(241,320,o),
(251,320,o),
(260,320,cs),
(318,320,o),
(342,293,o),
(368,262,cs),
(380,248,o),
(428,176,o),
(432,170,cs),
(437,161,o),
(491,66,o),
(500,54,cs),
(508,41,o),
(530,7,o),
(542,-2,c),
(556,-2,o),
(593,0,o),
(622,0,cs),
(666,0,o),
(692,-3,o),
(700,-2,cs),
(707,-3,o),
(708,0,o),
(708,6,cs),
(708,156,ls),
(708,160,o),
(707,164,o),
(700,164,cs),
(672,164,o),
(649,38,o),
(628,54,cs),
(609,67,o),
(545,158,o),
(540,168,cs),
(532,181,o),
(461,283,o),
(450,296,cs),
(441,307,o),
(427,325,o),
(404,334,c),
(404,336,l),
(531,364,o),
(588,411,o),
(588,536,cs),
(588,573,o),
(569,618,o),
(536,650,cs),
(498,686,o),
(432,711,o),
(350,712,cs),
(331,711,o),
(238,708,o),
(182,708,cs),
(98,708,o),
(67,711,o),
(58,712,cs),
(53,711,o),
(52,709,o),
(52,704,cs),
(52,488,ls),
(52,483,o),
(53,480,o),
(58,480,cs),
(98,480,ls),
(123,480,o),
(135,655,o),
(136,622,cs),
(137,593,o),
(137,529,o),
(138,456,cs)
);
},
{
closed = 1;
nodes = (
(228,640,ls),
(227,655,o),
(232,666,o),
(240,672,cs),
(248,677,o),
(261,679,o),
(274,680,cs),
(356,679,o),
(400,664,o),
(440,634,cs),
(468,609,o),
(489,565,o),
(490,520,cs),
(489,477,o),
(454,352,o),
(272,352,cs),
(253,352,o),
(242,353,o),
(228,356,c)
);
}
);
width = 748;
}
);
unicode = (82,114);
},
{
glyphname = S;
lastChange = "2025-10-03 20:15:44 +0000";
layers = (
{
layerId = m01;
shapes = (
{
closed = 1;
nodes = (
(424,-15,o),
(496,86,o),
(496,204,cs),
(496,270,o),
(478,309,o),
(452,340,cs),
(416,384,o),
(360,401,o),
(291,423,cs),
(262,432,o),
(206,454,o),
(177,483,cs),
(152,509,o),
(146,542,o),
(146,570,cs),
(146,621,o),
(178,687,o),
(267,687,cs),
(314,687,o),
(376,685,o),
(382,644,cs),
(388,602,o),
(350,562,o),
(358,534,cs),
(359,530,o),
(361,530,o),
(364,530,cs),
(402,532,o),
(440,532,o),
(478,534,cs),
(482,534,o),
(487,542,o),
(488,548,cs),
(486,569,o),
(472,660,o),
(468,700,cs),
(467,709,o),
(464,717,o),
(460,718,cs),
(454,717,o),
(431,715,o),
(426,711,cs),
(413,699,ls),
(408,694,o),
(403,693,o),
(394,698,cs),
(377,706,o),
(333,723,o),
(276,723,cs),
(222,723,o),
(172,709,o),
(136,675,cs),
(105,646,o),
(74,597,o),
(74,547,cs),
(74,481,o),
(91,434,o),
(124,401,cs),
(167,356,o),
(239,331,o),
(270,320,cs),
(350,292,o),
(424,254,o),
(424,151,cs),
(424,61,o),
(342,24,o),
(282,24,cs),
(241,24,o),
(202,41,o),
(171,67,cs),
(160,76,o),
(153,86,o),
(142,98,cs),
(116,128,o),
(180,170,o),
(196,214,cs),
(198,220,o),
(194,222,o),
(190,222,cs),
(58,224,ls),
(53,224,o),
(46,215,o),
(46,210,cs),
(46,194,o),
(46,172,o),
(48,140,cs),
(50,110,o),
(50,98,o),
(52,76,cs),
(53,65,o),
(57,24,o),
(66,24,cs),
(74,24,o),
(80,24,o),
(94,24,cs),
(103,24,o),
(104,49,o),
(110,50,cs),
(115,49,o),
(121,46,o),
(133,37,cs),
(173,6,o),
(222,-15,o),
(292,-15,cs)
);
}
);
width = 542;
},
{
layerId = m002;
shapes = (
{
closed = 1;
nodes = (
(407,-15,o),
(479,86,o),
(480,204,cs),
(479,270,o),
(461,309,o),
(436,340,cs),
(399,384,o),
(343,401,o),
(274,424,cs),
(245,432,o),
(189,454,o),
(160,484,cs),
(135,509,o),
(129,542,o),
(130,570,cs),
(129,621,o),
(161,687,o),
(250,688,cs),
(297,687,o),
(332,673,o),
(360,644,cs),
(400,601,o),
(413,562,o),
(422,534,cs),
(422,530,o),
(424,529,o),
(428,530,cs),
(431,532,o),
(435,532,o),
(440,534,cs),
(443,534,o),
(444,536,o),
(444,542,cs),
(443,563,o),
(430,665,o),
(430,700,cs),
(430,709,o),
(427,717,o),
(422,718,cs),
(417,717,o),
(414,715,o),
(410,712,cs),
(396,700,ls),
(391,694,o),
(386,693,o),
(378,698,cs),
(360,706,o),
(316,723,o),
(260,724,cs),
(205,723,o),
(155,709,o),
(120,676,cs),
(88,646,o),
(57,597,o),
(58,548,cs),
(57,481,o),
(74,434,o),
(108,402,cs),
(150,356,o),
(222,331,o),
(254,320,cs),
(333,292,o),
(407,254,o),
(408,152,cs),
(407,61,o),
(331,24,o),
(272,24,cs),
(237,24,o),
(203,34,o),
(176,54,cs),
(158,65,o),
(143,80,o),
(132,98,cs),
(98,149,o),
(96,182,o),
(96,214,cs),
(95,220,o),
(93,222,o),
(90,222,cs),
(74,224,ls),
(70,223,o),
(68,223,o),
(68,218,cs),
(65,202,o),
(62,161,o),
(60,122,cs),
(55,84,o),
(52,48,o),
(50,36,cs),
(48,25,o),
(53,20,o),
(60,20,cs),
(66,20,o),
(71,21,o),
(78,32,cs),
(83,42,o),
(87,49,o),
(94,50,cs),
(98,49,o),
(104,46,o),
(116,38,cs),
(156,6,o),
(205,-15,o),
(276,-14,cs)
);
}
);
width = 530;
},
{
layerId = m003;
shapes = (
{
closed = 1;
nodes = (
(424,-15,o),
(496,86,o),
(496,204,cs),
(496,270,o),
(478,309,o),
(452,340,cs),
(416,384,o),
(360,401,o),
(292,424,cs),
(262,432,o),
(206,454,o),
(178,484,cs),
(152,509,o),
(146,542,o),
(146,570,cs),
(146,621,o),
(178,687,o),
(268,688,cs),
(314,687,o),
(341,662,o),
(376,644,cs),
(410,626,o),
(404,628,o),
(400,500,cs),
(400,497,o),
(400,400,o),
(430,396,cs),
(442,394,o),
(454,406,o),
(462,416,cs),
(478,436,o),
(482,522,o),
(480,528,cs),
(468,563,o),
(447,665,o),
(448,700,cs),
(447,709,o),
(444,717,o),
(440,718,cs),
(434,717,o),
(430,716,o),
(426,712,cs),
(414,700,ls),
(408,694,o),
(403,693,o),
(394,698,cs),
(377,706,o),
(333,723,o),
(276,724,cs),
(222,723,o),
(172,709,o),
(136,676,cs),
(105,646,o),
(74,597,o),
(74,548,cs),
(74,481,o),
(91,434,o),
(124,402,cs),
(167,356,o),
(239,331,o),
(270,320,cs),
(350,292,o),
(424,254,o),
(424,152,cs),
(424,61,o),
(348,20,o),
(288,24,cs),
(204,30,o),
(164,72,o),
(150,90,cs),
(116,134,o),
(116,197,o),
(122,228,cs),
(125,245,o),
(105,334,o),
(92,332,cs),
(86,331,o),
(61,316,o),
(60,312,cs),
(54,286,ls),
(53,282,o),
(42,209,o),
(44,186,cs),
(45,171,o),
(53,147,o),
(54,142,cs),
(62,112,o),
(62,111,o),
(68,84,cs),
(72,66,o),
(76,50,o),
(82,50,cs),
(90,50,o),
(84,50,o),
(94,50,cs),
(102,50,o),
(106,71,o),
(110,70,cs),
(115,69,o),
(121,46,o),
(134,38,cs),
(173,6,o),
(222,-15,o),
(292,-14,cs)
);
}
);
width = 540;
}
);
unicode = (83,115);
},
{
glyphname = T;
lastChange = "2025-10-03 20:15:44 +0000";
layers = (
{
layerId = m01;
shapes = (
{
closed = 1;
nodes = (
(334,416,ls),
(334,396,o),
(334,89,o),
(332,60,cs),
(330,48,o),
(316,27,o),
(298,36,cs),
(230,70,ls),
(222,73,o),
(217,67,o),
(216,60,cs),
(198,8,ls),
(195,1,o),
(198,-3,o),
(208,-2,cs),
(220,-3,o),
(288,0,o),
(384,0,cs),
(508,0,o),
(540,-3,o),
(552,-2,cs),
(559,-3,o),
(563,0,o),
(562,6,cs),
(544,60,ls),
(540,68,o),
(535,74,o),
(528,70,cs),
(462,36,ls),
(439,25,o),
(429,51,o),
(428,76,cs),
(426,93,o),
(426,373,o),
(426,388,cs),
(426,672,l),
(454,672,ls),
(503,672,o),
(533,670,o),
(564,656,cs),
(596,639,o),
(626,562,o),
(636,544,cs),
(637,536,o),
(638,535,o),
(644,536,cs),
(647,537,o),
(717,539,o),
(722,540,cs),
(727,541,o),
(729,543,o),
(728,548,cs),
(720,592,o),
(701,716,o),
(700,728,cs),
(697,741,o),
(695,744,o),
(690,744,cs),
(686,744,o),
(683,743,o),
(678,740,cs),
(660,728,ls),
(642,717,o),
(629,715,o),
(608,714,cs),
(558,712,o),
(515,708,o),
(406,708,cs),
(358,708,ls),
(264,708,o),
(222,712,o),
(170,714,cs),
(140,715,o),
(130,718,o),
(112,732,cs),
(100,740,ls),
(95,743,o),
(92,744,o),
(88,744,cs),
(83,744,o),
(79,741,o),
(78,728,cs),
(75,717,o),
(40,588,o),
(30,552,cs),
(28,546,o),
(31,545,o),
(34,544,cs),
(40,542,o),
(106,541,o),
(114,540,cs),
(117,538,o),
(120,539,o),
(124,544,cs),
(136,576,o),
(166,646,o),
(212,660,cs),
(250,672,o),
(277,672,o),
(310,672,cs),
(334,672,l)
);
}
);
width = 758;
},
{
layerId = m002;
shapes = (
{
closed = 1;
nodes = (
(334,416,ls),
(334,396,o),
(334,89,o),
(332,60,cs),
(330,48,o),
(318,36,o),
(298,36,cs),
(230,36,ls),
(224,36,o),
(223,33,o),
(224,26,cs),
(224,8,ls),
(223,1,o),
(224,-3,o),
(232,-2,cs),
(246,-3,o),
(288,0,o),
(384,0,cs),
(482,0,o),
(514,-3,o),
(524,-2,cs),
(533,-3,o),
(534,0,o),
(534,6,cs),
(534,26,ls),
(534,33,o),
(533,36,o),
(524,36,cs),
(462,36,ls),
(437,36,o),
(429,51,o),
(428,76,cs),
(426,93,o),
(426,373,o),
(426,388,cs),
(426,672,l),
(454,672,ls),
(503,672,o),
(597,670,o),
(628,656,cs),
(660,639,o),
(690,562,o),
(698,544,cs),
(701,536,o),
(702,535,o),
(706,536,cs),
(711,537,o),
(717,539,o),
(722,540,cs),
(727,541,o),
(729,543,o),
(728,548,cs),
(720,592,o),
(701,716,o),
(700,728,cs),
(697,741,o),
(695,744,o),
(690,744,cs),
(686,744,o),
(683,743,o),
(678,740,cs),
(660,728,ls),
(642,718,o),
(629,715,o),
(608,714,cs),
(558,712,o),
(515,708,o),
(406,708,cs),
(358,708,ls),
(264,708,o),
(222,712,o),
(170,714,cs),
(140,715,o),
(130,718,o),
(112,732,cs),
(100,740,ls),
(95,743,o),
(92,744,o),
(88,744,cs),
(83,744,o),
(79,741,o),
(78,728,cs),
(75,717,o),
(40,588,o),
(30,552,cs),
(28,546,o),
(31,545,o),
(34,544,cs),
(40,542,o),
(46,541,o),
(52,540,cs),
(57,538,o),
(60,539,o),
(62,544,cs),
(76,576,o),
(106,646,o),
(152,660,cs),
(190,672,o),
(277,672,o),
(310,672,cs),
(334,672,l)
);
}
);
width = 758;
},
{
layerId = m003;
shapes = (
{
closed = 1;
nodes = (
(338,416,ls),
(338,396,o),
(338,89,o),
(336,60,cs),
(334,48,o),
(322,36,o),
(302,36,cs),
(234,36,ls),
(228,36,o),
(227,33,o),
(228,26,cs),
(228,8,ls),
(227,1,o),
(228,-3,o),
(236,-2,cs),
(250,-3,o),
(292,0,o),
(388,0,cs),
(486,0,o),
(518,-3,o),
(528,-2,cs),
(537,-3,o),
(538,0,o),
(538,6,cs),
(538,26,ls),
(538,83,o),
(544,96,o),
(516,124,cs),
(486,152,ls),
(466,172,o),
(432,192,o),
(430,216,cs),
(429,234,o),
(430,373,o),
(430,388,cs),
(430,672,l),
(458,672,ls),
(507,672,o),
(601,670,o),
(632,656,cs),
(664,639,o),
(669,642,o),
(662,520,cs),
(661,497,o),
(679,413,o),
(692,416,cs),
(703,417,o),
(717,426,o),
(726,436,cs),
(741,456,o),
(744,537,o),
(742,542,cs),
(735,586,o),
(705,716,o),
(704,728,cs),
(701,741,o),
(699,744,o),
(694,744,cs),
(690,744,o),
(687,743,o),
(682,740,cs),
(664,728,ls),
(646,718,o),
(633,715,o),
(612,714,cs),
(562,712,o),
(519,708,o),
(410,708,cs),
(362,708,ls),
(268,708,o),
(226,712,o),
(174,714,cs),
(144,715,o),
(134,718,o),
(116,732,cs),
(104,740,ls),
(99,743,o),
(96,744,o),
(92,744,cs),
(87,744,o),
(83,741,o),
(82,728,cs),
(79,717,o),
(51,584,o),
(42,548,cs),
(39,542,o),
(42,456,o),
(58,436,cs),
(67,426,o),
(80,417,o),
(92,416,cs),
(104,413,o),
(124,497,o),
(122,520,cs),
(107,648,o),
(110,646,o),
(156,660,cs),
(194,672,o),
(281,672,o),
(314,672,cs),
(338,672,l)
);
}
);
width = 784;
}
);
unicode = (84,116);
},
{
glyphname = U;
lastChange = "2025-10-03 20:15:44 +0000";
layers = (
{
layerId = m01;
shapes = (
{
closed = 1;
nodes = (
(461,-15,o),
(522,8,o),
(562,46,cs),
(618,93,o),
(640,156,o),
(646,238,cs),
(649,277,o),
(651,452,o),
(652,466,cs),
(651,480,o),
(651,622,o),
(654,632,cs),
(656,644,o),
(659,672,o),
(696,672,cs),
(740,672,ls),
(744,672,o),
(748,676,o),
(746,682,cs),
(728,724,ls),
(727,727,o),
(714,731,o),
(706,732,cs),
(696,731,o),
(662,716,o),
(610,716,cs),
(542,716,o),
(526,733,o),
(516,732,cs),
(508,731,o),
(494,729,o),
(492,724,cs),
(472,680,ls),
(470,675,o),
(472,672,o),
(478,672,cs),
(544,672,ls),
(570,672,o),
(586,654,o),
(590,628,cs),
(592,603,o),
(594,545,o),
(594,470,cs),
(594,256,ls),
(594,181,o),
(581,121,o),
(542,80,cs),
(507,43,o),
(449,24,o),
(392,24,cs),
(334,24,o),
(270,42,o),
(234,96,cs),
(210,130,o),
(202,177,o),
(202,224,cs),
(200,255,o),
(196,382,o),
(196,436,cs),
(196,502,ls),
(196,552,o),
(197,622,o),
(198,632,cs),
(200,653,o),
(203,673,o),
(232,672,cs),
(296,670,ls),
(303,670,o),
(313,678,o),
(304,692,cs),
(286,720,ls),
(284,722,o),
(284,728,o),
(268,728,cs),
(256,728,o),
(236,708,o),
(158,708,cs),
(80,708,o),
(55,729,o),
(46,730,cs),
(37,729,o),
(31,725,o),
(28,720,cs),
(14,696,ls),
(5,680,o),
(15,672,o),
(22,672,cs),
(64,672,ls),
(95,672,o),
(102,656,o),
(102,622,cs),
(104,384,ls),
(105,252,o),
(108,185,o),
(120,140,cs),
(136,77,o),
(171,33,o),
(240,6,cs),
(272,-8,o),
(322,-15,o),
(374,-14,cs)
);
}
);
width = 758;
},
{
layerId = m002;
shapes = (
{
closed = 1;
nodes = (
(469,-15,o),
(530,8,o),
(570,46,cs),
(626,93,o),
(648,156,o),
(654,238,cs),
(657,277,o),
(659,452,o),
(660,466,cs),
(659,480,o),
(659,622,o),
(662,632,cs),
(664,644,o),
(667,672,o),
(704,672,cs),
(746,672,ls),
(750,672,o),
(751,676,o),
(752,682,cs),
(752,704,ls),
(751,707,o),
(750,711,o),
(742,712,cs),
(732,711,o),
(700,708,o),
(632,708,cs),
(564,708,o),
(518,711,o),
(508,712,cs),
(502,711,o),
(501,709,o),
(502,704,cs),
(502,680,ls),
(501,675,o),
(502,672,o),
(508,672,cs),
(552,672,ls),
(578,672,o),
(594,654,o),
(598,628,cs),
(600,603,o),
(602,545,o),
(602,470,cs),
(602,256,ls),
(602,181,o),
(589,121,o),
(550,80,cs),
(515,43,o),
(457,24,o),
(400,24,cs),
(342,24,o),
(278,42,o),
(242,96,cs),
(218,130,o),
(210,177,o),
(210,224,cs),
(208,255,o),
(204,382,o),
(204,436,cs),
(204,502,ls),
(204,552,o),
(205,622,o),
(206,632,cs),
(208,653,o),
(225,672,o),
(254,672,cs),
(304,672,ls),
(311,672,o),
(312,674,o),
(312,680,cs),
(312,706,ls),
(312,709,o),
(311,711,o),
(304,712,cs),
(292,711,o),
(244,708,o),
(166,708,cs),
(88,708,o),
(39,711,o),
(30,712,cs),
(21,711,o),
(20,709,o),
(20,704,cs),
(20,682,ls),
(20,674,o),
(21,672,o),
(28,672,cs),
(74,672,ls),
(105,672,o),
(112,656,o),
(112,622,cs),
(112,384,ls),
(112,252,o),
(116,185,o),
(128,140,cs),
(144,77,o),
(179,33,o),
(248,6,cs),
(280,-8,o),
(330,-15,o),
(382,-14,cs)
);
}
);
width = 802;
},
{
layerId = m003;
shapes = (
{
closed = 1;
nodes = (
(477,-15,o),
(538,8,o),
(578,46,cs),
(634,93,o),
(656,156,o),
(662,238,cs),
(665,277,o),
(667,452,o),
(668,466,cs),
(667,480,o),
(667,622,o),
(670,632,cs),
(672,644,o),
(675,480,o),
(712,480,cs),
(754,480,ls),
(758,480,o),
(759,484,o),
(760,490,cs),
(760,704,ls),
(759,707,o),
(758,711,o),
(750,712,cs),
(740,711,o),
(708,708,o),
(640,708,cs),
(572,708,o),
(526,711,o),
(516,712,cs),
(510,711,o),
(509,709,o),
(510,704,cs),
(510,680,ls),
(509,675,o),
(510,672,o),
(516,672,cs),
(560,672,ls),
(586,672,o),
(602,654,o),
(606,628,cs),
(608,603,o),
(610,545,o),
(610,470,cs),
(610,256,ls),
(610,181,o),
(597,121,o),
(558,80,cs),
(523,43,o),
(465,24,o),
(408,24,cs),
(350,24,o),
(286,42,o),
(250,96,cs),
(226,130,o),
(218,177,o),
(218,224,cs),
(216,255,o),
(212,382,o),
(212,436,cs),
(212,502,ls),
(212,552,o),
(213,622,o),
(214,632,cs),
(216,653,o),
(233,480,o),
(262,480,cs),
(312,480,ls),
(319,480,o),
(320,482,o),
(320,488,cs),
(320,706,ls),
(320,709,o),
(319,711,o),
(312,712,cs),
(300,711,o),
(252,708,o),
(174,708,cs),
(96,708,o),
(47,711,o),
(38,712,cs),
(29,711,o),
(28,709,o),
(28,704,cs),
(28,682,ls),
(28,674,o),
(29,672,o),
(36,672,cs),
(82,672,ls),
(113,672,o),
(120,656,o),
(120,622,cs),
(120,384,ls),
(120,252,o),
(124,185,o),
(136,140,cs),
(152,77,o),
(187,33,o),
(256,6,cs),
(288,-8,o),
(338,-15,o),
(390,-14,cs)
);
}
);
width = 788;
}
);
unicode = (85,117);
},
{
glyphname = V;
lastChange = "2025-10-03 20:15:44 +0000";
layers = (
{
background = {
shapes = (
{
closed = 1;
nodes = (
(455,-15,o),
(516,8,o),
(556,46,cs),
(612,93,o),
(634,156,o),
(640,238,cs),
(643,277,o),
(645,452,o),
(646,466,cs),
(645,480,o),
(645,622,o),
(648,632,cs),
(650,644,o),
(653,672,o),
(690,672,cs),
(734,672,ls),
(738,672,o),
(742,676,o),
(740,682,cs),
(722,724,ls),
(721,727,o),
(708,731,o),
(700,732,cs),
(690,731,o),
(656,716,o),
(604,716,cs),
(536,716,o),
(520,733,o),
(510,732,cs),
(502,731,o),
(488,729,o),
(486,724,cs),
(466,680,ls),
(464,675,o),
(466,672,o),
(472,672,cs),
(538,672,ls),
(564,672,o),
(580,654,o),
(584,628,cs),
(586,603,o),
(588,545,o),
(588,470,cs),
(588,256,ls),
(588,181,o),
(575,121,o),
(536,80,cs),
(501,43,o),
(443,24,o),
(386,24,cs),
(328,24,o),
(264,42,o),
(228,96,cs),
(204,130,o),
(196,177,o),
(196,224,cs),
(194,255,o),
(190,382,o),
(190,436,cs),
(190,502,ls),
(190,552,o),
(191,622,o),
(192,632,cs),
(194,653,o),
(197,673,o),
(226,672,cs),
(298,670,ls),
(305,670,o),
(309,672,o),
(306,678,cs),
(286,722,ls),
(285,725,o),
(277,727,o),
(270,728,cs),
(258,727,o),
(230,708,o),
(152,708,cs),
(74,708,o),
(29,729,o),
(20,730,cs),
(11,729,o),
(8,725,o),
(6,720,cs),
(-12,682,ls),
(-16,674,o),
(-11,672,o),
(-4,672,cs),
(58,672,ls),
(89,672,o),
(96,656,o),
(96,622,cs),
(98,384,ls),
(99,252,o),
(102,185,o),
(114,140,cs),
(130,77,o),
(165,33,o),
(234,6,cs),
(266,-8,o),
(316,-15,o),
(368,-14,cs)
);
}
);
};
layerId = m01;
shapes = (
{
closed = 1;
nodes = (
(14,690,ls),
(9,680,o),
(15,672,o),
(20,672,cs),
(59,672,ls),
(80,672,o),
(90,662,o),
(100,639,cs),
(113,609,o),
(163,465,o),
(184,393,cs),
(194,359,ls),
(205,322,o),
(288,95,o),
(320,3,cs),
(325,-10,o),
(329,-20,o),
(337,-20,cs),
(342,-20,o),
(347,-15,o),
(351,-7,cs),
(356,3,o),
(485,321,o),
(497,354,cs),
(514,396,o),
(594,601,o),
(620,633,cs),
(630.8,646,o),
(641.6,656.8,o),
(654.8,663.6,cs),
(664.8,668.8,o),
(676.8,672,o),
(691,672,cs),
(734,672,ls),
(740,672,o),
(744,675,o),
(742,680,cs),
(722,724,ls),
(720,729,o),
(706,732,o),
(700,732,cs),
(686,732,o),
(656,716,o),
(612,716,cs),
(536,716,o),
(528,730,o),
(514,732,cs),
(508,733,o),
(488,729,o),
(486,724,cs),
(466,682,ls),
(463,676,o),
(466,672,o),
(470,672,cs),
(518,672,ls),
(543,672,o),
(550,661,o),
(550,649,cs),
(550,635,o),
(544,617,o),
(536,592,cs),
(521,548,o),
(483,433,o),
(473,406,cs),
(465,383,o),
(387,177,o),
(366,130,c),
(364,130,l),
(341,191,o),
(283,363,o),
(271,401,cs),
(253,457,o),
(216,576,o),
(210,612,cs),
(207,626,o),
(206,638,o),
(206,646,cs),
(206,654.4,o),
(209.6,660.8,o),
(216.4,665.2,cs),
(223.6,669.6,o),
(234,672,o),
(248,672,cs),
(304,670,ls),
(311,670,o),
(317,680,o),
(312,690,cs),
(292,728,ls),
(290,732,o),
(287,735,o),
(278,736,cs),
(269,735,o),
(258,716,o),
(162,714,cs),
(98,713,o),
(59,737,o),
(50,738,cs),
(43,737,o),
(39,737,o),
(36,732,cs)
);
}
);
width = 900;
},
{
layerId = m002;
shapes = (
{
closed = 1;
nodes = (
(2,680,ls),
(1,675,o),
(2,672,o),
(6,672,cs),
(32,672,ls),
(53,672,o),
(63,662,o),
(74,640,cs),
(86,609,o),
(133,464,o),
(158,394,cs),
(168,360,ls),
(180,323,o),
(261,95,o),
(294,4,cs),
(298,-10,o),
(302,-20,o),
(310,-20,cs),
(315,-20,o),
(320,-15,o),
(324,-6,cs),
(329,3,o),
(458,321,o),
(470,354,cs),
(487,396,o),
(567,601,o),
(594,634,cs),
(604,646,o),
(615,657,o),
(628,664,cs),
(638,669,o),
(650,672,o),
(664,672,cs),
(692,672,ls),
(697,672,o),
(698,675,o),
(698,680,cs),
(698,704,ls),
(698,709,o),
(697,711,o),
(692,712,cs),
(682,711,o),
(657,708,o),
(584,708,cs),
(521,708,o),
(475,711,o),
(466,712,cs),
(461,711,o),
(460,709,o),
(460,704,cs),
(460,682,ls),
(460,675,o),
(461,672,o),
(466,672,cs),
(492,672,ls),
(516,672,o),
(523,661,o),
(524,650,cs),
(523,635,o),
(517,617,o),
(510,592,cs),
(494,548,o),
(456,433,o),
(446,406,cs),
(438,383,o),
(360,177,o),
(340,130,c),
(338,130,l),
(314,191,o),
(256,363,o),
(244,402,cs),
(226,457,o),
(189,576,o),
(184,612,cs),
(180,626,o),
(179,638,o),
(180,646,cs),
(179,654,o),
(183,661,o),
(190,666,cs),
(197,670,o),
(207,672,o),
(222,672,cs),
(270,672,ls),
(276,672,o),
(277,676,o),
(278,682,cs),
(278,704,ls),
(277,708,o),
(276,711,o),
(268,712,cs),
(258,711,o),
(213,708,o),
(130,708,cs),
(51,708,o),
(18,711,o),
(8,712,cs),
(2,711,o),
(1,709,o),
(2,704,cs)
);
}
);
width = 720;
},
{
layerId = m003;
shapes = (
{
closed = 1;
nodes = (
(28,679,ls),
(28,675,o),
(29,672,o),
(33,672,cs),
(59,672,ls),
(80,672,o),
(90,662,o),
(100,639,cs),
(113,609,o),
(162.8,464.8,o),
(184,393,cs),
(194,359,ls),
(204.8,322.4,o),
(288,95,o),
(320,3,cs),
(325,-10,o),
(329,-20,o),
(337,-20,cs),
(342,-20,o),
(347,-15,o),
(351,-7,cs),
(356,3,o),
(485,321,o),
(497,354,cs),
(514,396,o),
(585.2,614,o),
(611.2,646,cs),
(620,656.4,o),
(639.6,638,o),
(642.4,536,cs),
(643.2,508.8,o),
(666,482,o),
(684,481.2,cs),
(718,480,ls),
(724,479.6,o),
(725.2,483.2,o),
(725.2,487.2,cs),
(725,704,ls),
(724.8,708.8,o),
(724,711,o),
(718,711,cs),
(709,711,o),
(684,708,o),
(611,708,cs),
(548,708,o),
(502,711,o),
(493,711,cs),
(488,711,o),
(487,709,o),
(487,704,cs),
(487,681,ls),
(487,675,o),
(488,672,o),
(492,672,cs),
(518,672,ls),
(543,672,o),
(550,661,o),
(550,649,cs),
(550,635,o),
(544,617,o),
(536,592,cs),
(521,548,o),
(483,433,o),
(473,406,cs),
(465,383,o),
(387,177,o),
(366,130,c),
(364,130,l),
(341,191,o),
(283,363,o),
(271,401,cs),
(253,457,o),
(216,576,o),
(210,612,cs),
(207,626,o),
(206,638,o),
(206,646,cs),
(206,656.8,o),
(240,638,o),
(254.4,536,cs),
(259.2,503.2,o),
(293.6,480,o),
(304,480,cs),
(332,480,ls),
(339.2,480,o),
(340,484,o),
(340,489.2,cs),
(340,704,ls),
(340,708,o),
(339.2,711.2,o),
(330,711.2,cs),
(321.2,711.2,o),
(240,708,o),
(156,708,cs),
(78,708,o),
(45,711,o),
(35,711,cs),
(29,711,o),
(28,709,o),
(28,704,cs)
);
}
);
width = 900;
}
);
unicode = (86,118);
},
{
glyphname = W;
lastChange = "2025-10-03 20:15:44 +0000";
layers = (
{
background = {
shapes = (
{
closed = 1;
nodes = (
(360,680,ls),
(357,675,o),
(361,672,o),
(366,672,cs),
(414,672,ls),
(434,672,o),
(444,662,o),
(454,640,cs),
(467,609,o),
(517,465,o),
(538,394,cs),
(548,360,ls),
(559,322,o),
(642,95,o),
(674,4,cs),
(679,-10,o),
(683,-20,o),
(692,-20,cs),
(696,-20,o),
(701,-15,o),
(706,-6,cs),
(710,3,o),
(839,321,o),
(852,354,cs),
(868,396,o),
(948,601,o),
(974,634,cs),
(985,646,o),
(996,657,o),
(1008,664,cs),
(1019,669,o),
(1031,672,o),
(1046,672,cs),
(1088,672,ls),
(1094,672,o),
(1098,675,o),
(1096,680,cs),
(1076,724,ls),
(1074,729,o),
(1060,731,o),
(1054,732,cs),
(1045,731,o),
(1004,716,o),
(960,716,cs),
(884,716,o),
(872,731,o),
(864,732,cs),
(858,731,o),
(842,729,o),
(840,724,cs),
(820,682,ls),
(817,676,o),
(820,672,o),
(824,672,cs),
(872,672,ls),
(897,672,o),
(904,661,o),
(904,650,cs),
(904,635,o),
(898,617,o),
(890,592,cs),
(875,548,o),
(837,433,o),
(828,406,cs),
(819,383,o),
(741,177,o),
(720,130,c),
(718,130,l),
(695,191,o),
(637,363,o),
(626,402,cs),
(607,457,o),
(570,576,o),
(564,612,cs),
(561,626,o),
(560,638,o),
(560,646,cs),
(560,654,o),
(564,661,o),
(570,666,cs),
(578,670,o),
(588,672,o),
(602,672,cs),
(672,670,ls),
(679,670,o),
(683,674,o),
(680,680,cs),
(660,720,ls),
(658,724,o),
(655,727,o),
(646,728,cs),
(637,727,o),
(606,708,o),
(510,708,cs),
(446,708,o),
(405,729,o),
(396,730,cs),
(389,729,o),
(385,729,o),
(382,724,cs)
);
}
);
};
layerId = m01;
shapes = (
{
closed = 1;
nodes = (
(175,636,ls),
(170,652,o),
(174,664,o),
(186,669,cs),
(191,671,o),
(197,672,o),
(204,672,cs),
(264,670,ls),
(270,670,o),
(275,673,o),
(272,678,cs),
(250,722,ls),
(249,724,o),
(248,727,o),
(242,728,cs),
(231,727,o),
(186,708,o),
(114,708,cs),
(46,708,o),
(-5,729,o),
(-12,730,cs),
(-20,729,o),
(-24,728,o),
(-26,724,cs),
(-48,680,ls),
(-50,677,o),
(-48,672,o),
(-42,672,cs),
(23,672,ls),
(42,672,o),
(56,664,o),
(66,636,cs),
(289,-4,ls),
(293,-16,o),
(299,-20,o),
(307,-20,cs),
(316,-20,o),
(322,-11,o),
(327,-1,cs),
(333,10,o),
(515,524,o),
(524,551,c),
(526,551,l),
(711,2,ls),
(716,-12,o),
(721,-20,o),
(733,-20,cs),
(744,-20,o),
(749,-5,o),
(754,6,cs),
(774,54,o),
(985,640,o),
(994,652,cs),
(1001,661,o),
(1011,666,o),
(1021,669,cs),
(1037,674,o),
(1055,672,o),
(1066,672,cs),
(1090,672,ls),
(1096,672,o),
(1098,676,o),
(1096,680,cs),
(1074,724,ls),
(1072,728,o),
(1061,731,o),
(1056,732,cs),
(1047,731,o),
(1018,716,o),
(962,716,cs),
(900,716,o),
(873,731,o),
(864,732,cs),
(856,731,o),
(842,728,o),
(840,724,cs),
(820,682,ls),
(817,675,o),
(820,672,o),
(826,672,cs),
(881,672,ls),
(908,672,o),
(916,657,o),
(916,641,cs),
(916,584,o),
(771,162,o),
(760,130,c),
(758,130,l),
(602,632,ls),
(599,642,o),
(600,653,o),
(607,660,cs),
(611,666,o),
(619,670,o),
(630,670,cs),
(674,672,ls),
(680,672,o),
(685,681,o),
(682,686,cs),
(662,724,ls),
(660,728,o),
(652,731,o),
(646,732,cs),
(636,731,o),
(606,712,o),
(550,712,cs),
(472,712,o),
(451,731,o),
(442,732,cs),
(436,731,o),
(428,728,o),
(426,724,cs),
(406,686,ls),
(403,680,o),
(408,670,o),
(414,670,cs),
(440,668,ls),
(458,667,o),
(471,665,o),
(480,653,cs),
(489,641,o),
(496,624,o),
(495,616,cs),
(491,574,o),
(342,147,o),
(338,130,c),
(336,130,l)
);
}
);
width = 900;
},
{
layerId = m002;
shapes = (
{
closed = 1;
nodes = (
(212,636,ls),
(208,647,o),
(209,656,o),
(214,662,cs),
(218,668,o),
(227,672,o),
(240,672,cs),
(258,672,ls),
(264,672,o),
(265,675,o),
(266,680,cs),
(266,706,ls),
(265,708,o),
(264,711,o),
(258,712,cs),
(247,711,o),
(206,708,o),
(134,708,cs),
(66,708,o),
(35,711,o),
(28,712,cs),
(20,711,o),
(19,709,o),
(20,704,cs),
(20,680,ls),
(19,676,o),
(20,672,o),
(26,672,cs),
(60,672,ls),
(78,672,o),
(92,664,o),
(102,636,cs),
(326,-4,ls),
(329,-16,o),
(335,-20,o),
(344,-20,cs),
(352,-20,o),
(358,-11,o),
(364,0,cs),
(369,10,o),
(551,524,o),
(560,552,c),
(562,552,l),
(748,2,ls),
(752,-12,o),
(757,-20,o),
(770,-20,cs),
(780,-20,o),
(785,-5,o),
(790,6,cs),
(810,54,o),
(1019,631,o),
(1028,646,cs),
(1032,653,o),
(1038,661,o),
(1046,666,cs),
(1052,670,o),
(1059,672,o),
(1068,672,cs),
(1092,672,ls),
(1098,672,o),
(1098,675,o),
(1098,680,cs),
(1098,704,ls),
(1098,709,o),
(1097,711,o),
(1092,712,cs),
(1083,711,o),
(1054,708,o),
(998,708,cs),
(936,708,o),
(901,711,o),
(892,712,cs),
(884,711,o),
(883,708,o),
(884,704,cs),
(884,682,ls),
(883,675,o),
(884,672,o),
(890,672,cs),
(918,672,ls),
(944,672,o),
(952,657,o),
(952,642,cs),
(952,584,o),
(807,162,o),
(796,130,c),
(794,130,l),
(638,632,ls),
(634,643,o),
(636,655,o),
(644,664,cs),
(648,668,o),
(656,672,o),
(666,672,cs),
(706,672,ls),
(712,672,o),
(713,675,o),
(714,680,cs),
(714,704,ls),
(713,708,o),
(712,711,o),
(706,712,cs),
(696,711,o),
(658,708,o),
(574,708,cs),
(496,708,o),
(461,711,o),
(452,712,cs),
(446,711,o),
(445,708,o),
(446,704,cs),
(446,680,ls),
(445,674,o),
(446,672,o),
(452,672,cs),
(476,672,ls),
(494,672,o),
(507,665,o),
(516,654,cs),
(525,641,o),
(532,624,o),
(532,616,cs),
(527,574,o),
(378,147,o),
(374,130,c),
(372,130,l)
);
}
);
width = 1128;
},
{
background = {
shapes = (
{
closed = 1;
nodes = (
(958,650,ls),
(955,658,o),
(991,660,o),
(998,626,cs),
(1008,574,o),
(1020,480,o),
(1064,480,cs),
(1082,480,ls),
(1088,480,o),
(1090,483,o),
(1090,488,cs),
(1090,706,ls),
(1090,708,o),
(1088,711,o),
(1082,712,cs),
(1071,711,o),
(964,708,o),
(892,708,cs),
(824,708,o),
(793,711,o),
(786,712,cs),
(778,711,o),
(777,709,o),
(778,704,cs),
(778,680,ls),
(777,676,o),
(778,672,o),
(784,672,cs),
(818,672,ls),
(836,672,o),
(850,664,o),
(860,636,cs),
(1084,-4,ls),
(1087,-16,o),
(1093,-20,o),
(1102,-20,cs),
(1110,-20,o),
(1116,-11,o),
(1122,0,cs),
(1127,10,o),
(1309,524,o),
(1318,552,c),
(1320,552,l),
(1506,2,ls),
(1510,-12,o),
(1515,-20,o),
(1528,-20,cs),
(1538,-20,o),
(1543,-5,o),
(1548,6,cs),
(1568,54,o),
(1777,631,o),
(1786,646,cs),
(1794,661,o),
(1808,672,o),
(1826,672,cs),
(1850,672,ls),
(1856,672,o),
(1856,675,o),
(1856,680,cs),
(1856,704,ls),
(1856,709,o),
(1855,711,o),
(1850,712,cs),
(1841,711,o),
(1812,708,o),
(1756,708,cs),
(1694,708,o),
(1659,711,o),
(1650,712,cs),
(1642,711,o),
(1641,708,o),
(1642,704,cs),
(1642,682,ls),
(1641,675,o),
(1642,672,o),
(1648,672,cs),
(1676,672,ls),
(1702,672,o),
(1710,657,o),
(1710,642,cs),
(1710,584,o),
(1565,162,o),
(1554,130,c),
(1552,130,l),
(1388,650,ls),
(1385,659,o),
(1422,653,o),
(1426,634,cs),
(1442,552,o),
(1459,484,o),
(1486,482,cs),
(1512,480,ls),
(1518,480,o),
(1520,483,o),
(1520,488,cs),
(1518,704,ls),
(1518,707,o),
(1516,711,o),
(1510,712,cs),
(1500,711,o),
(1416,708,o),
(1332,708,cs),
(1254,708,o),
(1219,711,o),
(1210,712,cs),
(1204,711,o),
(1203,708,o),
(1204,704,cs),
(1204,680,ls),
(1203,674,o),
(1204,672,o),
(1210,672,cs),
(1234,672,ls),
(1252,672,o),
(1265,665,o),
(1274,654,cs),
(1283,641,o),
(1290,624,o),
(1290,616,cs),
(1285,574,o),
(1136,147,o),
(1132,130,c),
(1130,130,l)
);
}
);
};
layerId = m003;
shapes = (
{
closed = 1;
nodes = (
(164,650,ls),
(161,658,o),
(197,660,o),
(204,626,cs),
(214,574,o),
(226,480,o),
(270,480,cs),
(288,480,ls),
(294,480,o),
(296,483,o),
(296,488,cs),
(296,706,ls),
(296,708,o),
(294,711,o),
(288,712,cs),
(277,711,o),
(170,708,o),
(98,708,cs),
(30,708,o),
(-1,711,o),
(-9,711,cs),
(-16,711,o),
(-17,709,o),
(-17,704,cs),
(-17,680,ls),
(-17,676,o),
(-16,672,o),
(-11,672,cs),
(23,672,ls),
(42,672,o),
(56,664,o),
(66,636,cs),
(289,-4,ls),
(293,-16,o),
(299,-20,o),
(307,-20,cs),
(316,-20,o),
(322,-11,o),
(327,-1,cs),
(333,10,o),
(515,524,o),
(524,551,c),
(526,551,l),
(711,2,ls),
(716,-12,o),
(721,-20,o),
(733,-20,cs),
(744,-20,o),
(749,-5,o),
(754,6,cs),
(774,54,o),
(947,641,o),
(960,652,cs),
(964,656,o),
(986,650,o),
(990,626,cs),
(998,571,o),
(1016,480,o),
(1038,480,cs),
(1080,480,ls),
(1094,480,o),
(1090,503,o),
(1090,508,cs),
(1090,704,ls),
(1090,709,o),
(1089,711,o),
(1084,712,cs),
(1075,711,o),
(1018,708,o),
(962,708,cs),
(888,708,o),
(853,711,o),
(844,712,cs),
(836,711,o),
(836,708,o),
(836,704,cs),
(836,682,ls),
(836,675,o),
(836,672,o),
(842,672,cs),
(870,672,ls),
(896,672,o),
(904,657,o),
(904,642,cs),
(904,584,o),
(759,162,o),
(748,130,c),
(758,130,l),
(594,650,ls),
(591,659,o),
(628,653,o),
(632,634,cs),
(648,552,o),
(665,484,o),
(692,482,cs),
(718,480,ls),
(724,480,o),
(726,483,o),
(726,488,cs),
(724,704,ls),
(724,707,o),
(722,711,o),
(716,712,cs),
(706,711,o),
(622,708,o),
(538,708,cs),
(460,708,o),
(425,711,o),
(416,711,cs),
(410,711,o),
(409,708,o),
(409,704,cs),
(409,680,ls),
(409,674,o),
(410,672,o),
(415,672,cs),
(440,672,ls),
(458,672,o),
(471,665,o),
(480,653,cs),
(489,641,o),
(496,624,o),
(495,616,cs),
(491,574,o),
(342,147,o),
(338,130,c),
(336,130,l)
);
}
);
width = 900;
}
);
unicode = (87,119);
},
{
glyphname = X;
lastChange = "2025-10-03 20:15:44 +0000";
layers = (
{
background = {
shapes = (
{
closed = 1;
nodes = (
(510,445,o),
(513,640,o),
(512,648,cs),
(513,659,o),
(518,660,o),
(542,660,cs),
(592,660,ls),
(598,660,o),
(604,674,o),
(600,680,cs),
(580,714,ls),
(578,717,o),
(570,721,o),
(564,722,cs),
(552,721,o),
(536,700,o),
(460,700,cs),
(394,700,o),
(351,721,o),
(338,722,cs),
(332,721,o),
(324,718,o),
(322,714,cs),
(304,680,ls),
(300,673,o),
(306,660,o),
(310,660,cs),
(352,660,ls),
(373,660,o),
(417,665,o),
(416,642,cs),
(417,626,o),
(420,470,o),
(420,422,cs),
(420,372,l),
(402,372,ls),
(386,371,o),
(375,375,o),
(360,386,cs),
(339,401,o),
(154,637,o),
(144,650,cs),
(136,664,o),
(177,660,o),
(190,660,cs),
(204,660,ls),
(208,660,o),
(210,674,o),
(208,680,cs),
(198,718,ls),
(197,723,o),
(185,725,o),
(180,726,cs),
(169,725,o),
(118,700,o),
(72,700,cs),
(43,700,o),
(-10,725,o),
(-22,726,cs),
(-27,725,o),
(-37,721,o),
(-38,718,cs),
(-50,680,ls),
(-52,674,o),
(-48,662,o),
(-44,662,cs),
(-22,662,ls),
(-8,662,o),
(51,666,o),
(68,654,cs),
(106,626,o),
(259,449,o),
(302,394,c),
(293,382,o),
(43,72,o),
(34,62,cs),
(17,40,o),
(-9,29,o),
(-32,40,cs),
(-66,56,ls),
(-70,58,o),
(-83,53,o),
(-84,50,cs),
(-104,6,ls),
(-106,1,o),
(-102,-3,o),
(-96,-2,cs),
(-86,-3,o),
(-22,0,o),
(52,0,cs),
(136,0,o),
(241,-3,o),
(254,-2,cs),
(259,-3,o),
(263,-1,o),
(260,4,cs),
(236,52,ls),
(235,54,o),
(226,60,o),
(220,56,cs),
(188,36,ls),
(169,24,o),
(153,52,o),
(158,62,cs),
(167,82,o),
(344,316,o),
(356,326,cs),
(373,339,o),
(386,341,o),
(400,342,cs),
(420,342,l),
(420,270,ls),
(420,219,o),
(417,70,o),
(416,56,cs),
(415,43,o),
(406,25,o),
(394,30,cs),
(338,54,ls),
(333,56,o),
(324,50,o),
(322,46,cs),
(302,4,ls),
(300,0,o),
(303,-3,o),
(308,-2,cs),
(320,-3,o),
(390,0,o),
(460,0,cs),
(540,0,o),
(610,-3,o),
(618,-2,cs),
(624,-3,o),
(628,-1,o),
(626,4,cs),
(608,50,ls),
(606,54,o),
(597,54,o),
(592,52,cs),
(540,30,ls),
(521,22,o),
(515,44,o),
(512,54,cs),
(512,63,o),
(510,244,o),
(510,370,cs),
(510,428,ls)
);
}
);
};
layerId = m01;
shapes = (
{
closed = 1;
nodes = (
(236,52,ls),
(234,55,o),
(224,57,o),
(218,54,cs),
(184,34,ls),
(163,22,o),
(152,53,o),
(163,81,cs),
(170,99,o),
(288,269,o),
(327,324,c),
(348,295,o),
(486,70,o),
(492,55,cs),
(498,42,o),
(485,26,o),
(468,36,cs),
(434,56,ls),
(429,59,o),
(419,53,o),
(418,50,cs),
(396,4,ls),
(394,0,o),
(396,-2,o),
(404,-2,cs),
(410,-2,o),
(492,0,o),
(572,0,cs),
(656,0,o),
(716,-2,o),
(732,-2,cs),
(738,-2,o),
(742,1,o),
(740,6,cs),
(720,54,ls),
(719,57,o),
(707,64,o),
(700,60,cs),
(652,34,ls),
(635,25,o),
(623,42,o),
(600,63,cs),
(590,72,o),
(397.2,372,o),
(384,391,c),
(422,443,o),
(581,647,o),
(600,659,cs),
(614,668,o),
(622,668,o),
(644,668,cs),
(694,668,ls),
(699,668,o),
(706,675,o),
(702,682,cs),
(680,722,ls),
(678,725,o),
(672,730,o),
(656,728,cs),
(638,726,o),
(623,708,o),
(568,708,cs),
(511,708,o),
(484,725,o),
(470,728,cs),
(460,730,o),
(449,727,o),
(444,718,cs),
(426,684,ls),
(422,677,o),
(426,668,o),
(432,668,cs),
(454,668,ls),
(480,668,o),
(521,668,o),
(510,648,cs),
(500,629,o),
(389,457,o),
(361,422,c),
(337,455,o),
(245,610,o),
(236,625,cs),
(223,646,o),
(215,670,o),
(262,668,cs),
(316,666,ls),
(324,666,o),
(331,676,o),
(328,682,cs),
(306,724,ls),
(304,727,o),
(300,732,o),
(292,732,cs),
(282,732,o),
(264,710,o),
(184,710,cs),
(90,710,o),
(70,734,o),
(58,734,cs),
(46,734,o),
(44,730,o),
(44,730,cs),
(18,682,ls),
(16,678,o),
(20,668,o),
(24,668,cs),
(48,668,ls),
(67,668,o),
(80,666,o),
(90,658,cs),
(112,634,o),
(271,408,o),
(306,356,c),
(257,297,o),
(140,119,o),
(79,65,cs),
(59,48,o),
(50,24,o),
(22,36,cs),
(-20,54,ls),
(-28,58,o),
(-40,59,o),
(-44,50,cs),
(-64,6,ls),
(-66,1,o),
(-64,-3,o),
(-58,-2,cs),
(-50,-3,o),
(32,0,o),
(91,0,cs),
(172,0,o),
(234,-2,o),
(252,-2,cs),
(258,-2,o),
(263,1,o),
(260,6,cs)
);
}
);
width = 900;
},
{
layerId = m002;
shapes = (
{
closed = 1;
nodes = (
(229,30,ls),
(229,33,o),
(228,36,o),
(221,36,cs),
(182,36,ls),
(158,36,o),
(152,53,o),
(163,81,cs),
(170,99,o),
(288,269,o),
(327,324,c),
(348,295,o),
(486,70,o),
(492,55,cs),
(498,42,o),
(488,36,o),
(468,36,cs),
(429,36,ls),
(424,36,o),
(423,33,o),
(423,29,cs),
(423,4,ls),
(423,0,o),
(424,-3,o),
(431,-3,cs),
(438,-3,o),
(492,0,o),
(572,0,cs),
(656,0,o),
(691,-3,o),
(699,-3,cs),
(706,-3,o),
(707,1,o),
(707,5,cs),
(707,29,ls),
(707,33,o),
(706,36,o),
(699,36,cs),
(666,36,ls),
(647,36,o),
(623,42,o),
(600,63,cs),
(590,72,o),
(397.2,372,o),
(384,391,c),
(422,443,o),
(581,646,o),
(600,659,cs),
(609,665,o),
(620,672,o),
(642,672,cs),
(684,672,ls),
(689,672,o),
(690,674,o),
(690,681,cs),
(690,704,ls),
(690,707,o),
(689,711,o),
(682,711,cs),
(672,711,o),
(636,708,o),
(581,708,cs),
(524,708,o),
(483,711,o),
(472,711,cs),
(466,711,o),
(465,709,o),
(465,704,cs),
(465,681,ls),
(465,676,o),
(466,672,o),
(471,672,cs),
(492,672,ls),
(518,672,o),
(523,651,o),
(512,631,cs),
(502,612,o),
(389,457,o),
(361,422,c),
(337,455,o),
(245,610,o),
(236,625,cs),
(223,646,o),
(220,672,o),
(265,672,cs),
(300,672,ls),
(308,672,o),
(309,675,o),
(309,681,cs),
(309,704,ls),
(309,707,o),
(308,711,o),
(301,711,cs),
(292,711,o),
(250,708,o),
(150,708,cs),
(64,708,o),
(18,711,o),
(8,711,cs),
(4,711,o),
(3,708,o),
(3,703,cs),
(3,680,ls),
(3,676,o),
(4,672,o),
(8,672,cs),
(52,672,ls),
(71,672,o),
(88,666,o),
(97,657,cs),
(120,634,o),
(271,408,o),
(306,356,c),
(257,297,o),
(140,119,o),
(79,65,cs),
(59,48,o),
(38,36,o),
(22,36,cs),
(-17,36,ls),
(-22,36,o),
(-23,33,o),
(-23,29,cs),
(-23,6,ls),
(-23,1,o),
(-22,-3,o),
(-17,-3,cs),
(-8,-3,o),
(32,0,o),
(91,0,cs),
(172,0,o),
(211,-3,o),
(221,-3,cs),
(228,-3,o),
(229,0,o),
(229,6,cs)
);
}
);
width = 900;
},
{
layerId = m003;
shapes = (
{
closed = 1;
nodes = (
(180,30,ls),
(179,33,o),
(178,36,o),
(172,36,cs),
(132,36,ls),
(108,36,o),
(102,53,o),
(114,82,cs),
(120,99,o),
(238,269,o),
(278,324,c),
(298,295,o),
(374,183,o),
(374,138,cs),
(374,130,o),
(374,126,o),
(374,108,cs),
(374,76,ls),
(374,73,o),
(374,42,o),
(374,38,cs),
(374,28,ls),
(374,16,o),
(380,0,o),
(406,0,cs),
(413,0,o),
(442,0,o),
(522,0,cs),
(606,0,o),
(620,0,o),
(628,0,cs),
(642,0,o),
(658,12,o),
(658,40,cs),
(658,72,ls),
(658,76,o),
(657,96,o),
(658,102,cs),
(658,126,ls),
(659,162,o),
(570,152,o),
(532,176,cs),
(489,201,o),
(347,372,o),
(334,392,c),
(372,443,o),
(531,646,o),
(550,660,cs),
(559,665,o),
(552,480,o),
(592,480,cs),
(634,480,ls),
(639,480,o),
(640,482,o),
(640,490,cs),
(640,704,ls),
(640,707,o),
(639,711,o),
(632,712,cs),
(622,711,o),
(586,708,o),
(532,708,cs),
(474,708,o),
(433,711,o),
(422,712,cs),
(416,711,o),
(415,709,o),
(416,704,cs),
(416,682,ls),
(415,676,o),
(416,672,o),
(422,672,cs),
(442,672,ls),
(468,672,o),
(473,651,o),
(462,632,cs),
(452,612,o),
(339,457,o),
(312,422,c),
(287,455,o),
(195,610,o),
(186,626,cs),
(173,646,o),
(170,672,o),
(216,672,cs),
(250,672,ls),
(258,672,o),
(259,675,o),
(260,682,cs),
(260,704,ls),
(259,707,o),
(258,711,o),
(252,712,cs),
(242,711,o),
(200,708,o),
(100,708,cs),
(14,708,o),
(-32,711,o),
(-42,712,cs),
(-46,711,o),
(-47,708,o),
(-46,704,cs),
(-46,488,ls),
(-47,484,o),
(-46,480,o),
(-42,480,cs),
(2,480,ls),
(38,480,o),
(38,666,o),
(48,658,cs),
(70,634,o),
(221,408,o),
(256,356,c),
(207,297,o),
(137,156,o),
(-18,152,cs),
(-72,150,o),
(-72,81,o),
(-72,66,cs),
(-72,38,ls),
(-73,31,o),
(-73,33,o),
(-72,30,cs),
(-72,6,ls),
(-73,1,o),
(-70,0,o),
(-64,0,cs),
(-56,0,o),
(-18,0,o),
(42,0,cs),
(122,0,o),
(161,-3,o),
(172,-2,cs),
(178,-3,o),
(179,0,o),
(180,6,cs)
);
}
);
width = 850;
}
);
unicode = (88,120);
},
{
glyphname = Y;
lastChange = "2025-10-03 20:15:44 +0000";
layers = (
{
background = {
shapes = (
{
closed = 1;
nodes = (
(278,350,ls),
(278,296,o),
(275,80,o),
(274,66,cs),
(269,39,o),
(266,29,o),
(250,36,cs),
(200,58,ls),
(195,60,o),
(186,52,o),
(184,48,cs),
(164,4,ls),
(162,-1,o),
(167,-3,o),
(172,-2,cs),
(183,-3,o),
(226,0,o),
(322,0,cs),
(408,0,o),
(466,-3,o),
(478,-2,cs),
(484,-3,o),
(490,-1,o),
(488,4,cs),
(466,50,ls),
(464,54,o),
(450,58,o),
(446,56,cs),
(412,40,ls),
(382,26,o),
(373,41,o),
(374,72,cs),
(373,83,o),
(370,314,o),
(370,324,cs),
(370,402,ls),
(370,413,o),
(373,634,o),
(374,644,cs),
(373,664,o),
(388,673,o),
(408,672,cs),
(478,670,ls),
(482,670,o),
(489,672,o),
(486,678,cs),
(466,722,ls),
(464,726,o),
(454,728,o),
(448,728,cs),
(434,728,o),
(410,708,o),
(322,708,cs),
(240,708,o),
(216,730,o),
(200,730,cs),
(195,730,o),
(187,726,o),
(186,724,cs),
(164,676,ls),
(162,673,o),
(167,670,o),
(172,670,cs),
(224,672,ls),
(262,673,o),
(272,662,o),
(274,638,cs),
(275,623,o),
(278,443,o),
(278,420,cs)
);
}
);
};
layerId = m01;
shapes = (
{
closed = 1;
nodes = (
(369,317,l),
(407,372,o),
(586,631,o),
(606,650,cs),
(623,666,o),
(640,668,o),
(656,668,cs),
(712,668,ls),
(719,668,o),
(723,676,o),
(720,682,cs),
(698,722,ls),
(694,729,o),
(684,732,o),
(672,728,cs),
(664,725,o),
(626,708,o),
(590,708,cs),
(523,708,o),
(502,726,o),
(484,728,cs),
(476,729,o),
(468,728,o),
(464,720,cs),
(442,682,ls),
(439,676,o),
(444,668,o),
(450,668,cs),
(500,668,ls),
(541,668,o),
(536,650,o),
(532,633,cs),
(528,615,o),
(388,407,o),
(351,349,c),
(321,406,o),
(195,624,o),
(192,640,cs),
(188,664,o),
(198,669,o),
(222,668,cs),
(284,666,ls),
(290,666,o),
(297,676,o),
(294,682,cs),
(270,726,ls),
(268,729,o),
(264,731,o),
(258,732,cs),
(248,731,o),
(212,712,o),
(130,710,cs),
(68,708,o),
(38,732,o),
(28,734,cs),
(20,736,o),
(12,733,o),
(8,726,cs),
(-16,682,ls),
(-18,678,o),
(-16,668,o),
(-10,668,cs),
(20,668,ls),
(36,668,o),
(56,663,o),
(69,648,cs),
(98,613,o),
(264,331,o),
(277,305,c),
(278,295,o),
(278,284,o),
(278,274,cs),
(278,265,o),
(277,256,o),
(277,247,cs),
(277,154,o),
(275,75,o),
(274,61,cs),
(273,46,o),
(265,28,o),
(252,34,cs),
(206,56,ls),
(196,61,o),
(187,53,o),
(186,50,cs),
(166,10,ls),
(163,5,o),
(165,-3,o),
(170,-2,cs),
(180,-3,o),
(231,0,o),
(321,0,cs),
(405,0,o),
(462,-2,o),
(480,-2,cs),
(487,-2,o),
(489,4,o),
(486,10,cs),
(466,50,ls),
(465,53,o),
(458,62,o),
(444,56,cs),
(406,40,ls),
(380,29,o),
(376,39,o),
(373,71,cs),
(372,82,o),
(369,147,o),
(369,186,cs)
);
}
);
width = 900;
},
{
layerId = m002;
shapes = (
{
closed = 1;
nodes = (
(369,317,l),
(407,372,o),
(586,631,o),
(606,650,cs),
(623,666,o),
(640,672,o),
(655,672,cs),
(680,672,ls),
(687,672,o),
(688,675,o),
(688,681,cs),
(688,705,ls),
(688,709,o),
(687,711,o),
(680,711,cs),
(671,711,o),
(649,708,o),
(590,708,cs),
(523,708,o),
(482,711,o),
(472,711,cs),
(466,711,o),
(465,709,o),
(465,705,cs),
(465,681,ls),
(465,675,o),
(466,672,o),
(472,672,cs),
(499,672,ls),
(541,672,o),
(536,650,o),
(532,633,cs),
(528,615,o),
(388,407,o),
(351,349,c),
(321,406,o),
(198,623,o),
(195,639,cs),
(191,663,o),
(195,672,o),
(225,672,cs),
(258,672,ls),
(264,672,o),
(265,676,o),
(265,681,cs),
(265,706,ls),
(265,709,o),
(264,711,o),
(258,711,cs),
(248,711,o),
(212,708,o),
(109,708,cs),
(48,708,o),
(1,711,o),
(-8,711,cs),
(-14,711,o),
(-15,709,o),
(-15,705,cs),
(-15,679,ls),
(-15,675,o),
(-14,672,o),
(-8,672,cs),
(17,672,ls),
(33,672,o),
(56,663,o),
(69,648,cs),
(98,613,o),
(264,331,o),
(277,305,c),
(277,303,o),
(277,300,o),
(277,298,cs),
(277,281,o),
(277,264,o),
(277,247,cs),
(277,154,o),
(275,75,o),
(274,61,cs),
(273,46,o),
(265,36,o),
(239,36,cs),
(190,36,ls),
(184,36,o),
(183,33,o),
(183,29,cs),
(183,5,ls),
(183,0,o),
(185,-3,o),
(189,-3,cs),
(200,-3,o),
(231,0,o),
(321,0,cs),
(405,0,o),
(444,-3,o),
(456,-3,cs),
(463,-3,o),
(463,0,o),
(463,6,cs),
(463,29,ls),
(463,33,o),
(463,36,o),
(456,36,cs),
(417,36,ls),
(391,36,o),
(376,39,o),
(373,71,cs),
(372,82,o),
(369,147,o),
(369,186,cs)
);
}
);
width = 900;
},
{
background = {
shapes = (
{
closed = 1;
nodes = (
(282,318,ls),
(282,235,o),
(216,192,o),
(200,170,cs),
(178,142,o),
(178,134,o),
(178,102,cs),
(178,86,ls),
(178,79,o),
(178,64,o),
(178,60,cs),
(178,38,ls),
(178,14,o),
(182,0,o),
(194,0,cs),
(213,0,o),
(272,0,o),
(322,0,cs),
(364,0,o),
(403,-3,o),
(472,-2,cs),
(564,-3,o),
(621,7,o),
(664,34,cs),
(676,41,o),
(687,52,o),
(698,64,cs),
(724,99,o),
(740,146,o),
(740,184,cs),
(740,231,o),
(727,270,o),
(704,300,cs),
(674,338,o),
(631,364,o),
(578,382,c),
(576,384,l),
(653,424,o),
(697,449,o),
(698,548,cs),
(697,607,o),
(677,653,o),
(620,684,cs),
(585,704,o),
(521,711,o),
(444,712,cs),
(408,711,o),
(348,708,o),
(316,708,cs),
(244,708,o),
(199,711,o),
(184,712,cs),
(177,711,o),
(175,709,o),
(176,704,cs),
(176,488,ls),
(175,482,o),
(177,480,o),
(184,480,cs),
(214,480,ls),
(260,480,o),
(276,670,o),
(280,612,cs),
(280,594,o),
(282,472,o),
(282,436,cs)
);
},
{
closed = 1;
nodes = (
(370,362,l),
(402,362,ls),
(448,362,o),
(495,361,o),
(536,346,cs),
(595,322,o),
(636,269,o),
(636,188,cs),
(636,69,o),
(559,29,o),
(476,30,cs),
(392,29,o),
(370,70,o),
(370,162,cs),
(370,300,l)
);
},
{
closed = 1;
nodes = (
(370,470,ls),
(370,553,o),
(371,640,o),
(372,660,cs),
(372,669,o),
(378,676,o),
(386,678,cs),
(394,680,o),
(405,679,o),
(420,680,cs),
(470,679,o),
(520,670,o),
(556,646,cs),
(593,618,o),
(605,578,o),
(606,540,cs),
(605,496,o),
(590,451,o),
(550,420,cs),
(525,403,o),
(480,394,o),
(424,394,cs),
(406,394,o),
(389,394,o),
(370,396,c)
);
}
);
};
layerId = m003;
shapes = (
{
closed = 1;
nodes = (
(369,317,l),
(407,372,o),
(566,631,o),
(586,650,cs),
(603,666,o),
(598,482,o),
(636,482,cs),
(680,482,ls),
(687,482,o),
(688,485,o),
(688,492,cs),
(688,705,ls),
(688,709,o),
(687,711,o),
(680,711,cs),
(671,711,o),
(649,708,o),
(590,708,cs),
(523,708,o),
(482,711,o),
(472,711,cs),
(466,711,o),
(465,709,o),
(465,705,cs),
(465,681,ls),
(465,675,o),
(466,672,o),
(472,672,cs),
(499,672,ls),
(541,672,o),
(536,650,o),
(532,633,cs),
(528,615,o),
(388,407,o),
(351,349,c),
(321,406,o),
(198,623,o),
(195,639,cs),
(191,663,o),
(195,672,o),
(225,672,cs),
(258,672,ls),
(264,672,o),
(265,676,o),
(265,681,cs),
(265,706,ls),
(265,709,o),
(264,711,o),
(258,711,cs),
(248,711,o),
(212,708,o),
(109,708,cs),
(48,708,o),
(1,711,o),
(-8,711,cs),
(-14,711,o),
(-15,709,o),
(-15,705,cs),
(-14,488,ls),
(-14,483,o),
(-14,480,o),
(-8,480,cs),
(32,480,ls),
(66,480,o),
(69,667,o),
(82,652,cs),
(111,617,o),
(277,344,o),
(278,316,cs),
(279,281,o),
(278,268,o),
(278,242,cs),
(278,218,o),
(246,198,o),
(230,188,cs),
(199,169,o),
(189,156,o),
(184,146,cs),
(178,134,o),
(178,114,o),
(178,108,cs),
(178,96,ls),
(178,84,o),
(178,50,o),
(178,46,cs),
(178,38,ls),
(178,4,o),
(200,0,o),
(204,0,cs),
(215,0,o),
(231,0,o),
(321,0,cs),
(405,0,o),
(444,-3,o),
(456,-3,cs),
(463,-3,o),
(463,0,o),
(463,6,cs),
(463,29,ls),
(463,33,o),
(463,36,o),
(456,36,cs),
(417,36,ls),
(391,36,o),
(376,39,o),
(373,71,cs),
(372,82,o),
(369,147,o),
(369,186,cs)
);
}
);
width = 900;
}
);
unicode = (89,121);
},
{
glyphname = Z;
lastChange = "2025-10-03 20:15:44 +0000";
layers = (
{
background = {
shapes = (
{
closed = 1;
nodes = (
(272,323,o),
(379,319,o),
(390,316,cs),
(420,312,o),
(418,306,o),
(422,274,cs),
(423,265,o),
(424,243,o),
(426,224,cs),
(425,219,o),
(428,216,o),
(432,216,cs),
(478,218,ls),
(482,218,o),
(484,222,o),
(484,226,cs),
(480,243,o),
(480,325,o),
(480,340,cs),
(480,375,o),
(484,423,o),
(486,444,cs),
(486,449,o),
(484,452,o),
(480,452,cs),
(436,454,ls),
(431,454,o),
(429,453,o),
(428,446,cs),
(426,433,o),
(422,420,o),
(420,398,cs),
(418,378,o),
(422,363,o),
(396,360,cs),
(349,355,o),
(280,355,o),
(264,354,c),
(264,416,ls),
(264,471,o),
(266,568,o),
(266,588,cs),
(267,640,o),
(292,660,o),
(322,666,cs),
(343,670,o),
(372,673,o),
(396,672,cs),
(414,673,o),
(422,672,o),
(444,670,cs),
(460,668,o),
(486,670,o),
(514,634,cs),
(531,612,o),
(542,571,o),
(556,548,cs),
(559,543,o),
(562,542,o),
(568,542,cs),
(576,542,o),
(641,543,o),
(646,546,cs),
(651,549,o),
(649,552,o),
(648,560,cs),
(628,696,ls),
(626,708,o),
(580,706,o),
(560,706,cs),
(526,706,o),
(504,707,o),
(444,706,cs),
(384,706,o),
(365,706,o),
(208,706,cs),
(172,706,o),
(144,707,o),
(124,706,cs),
(57,706,o),
(44,707,o),
(36,706,cs),
(29,707,o),
(24,706,o),
(26,700,cs),
(46,632,ls),
(48,627,o),
(57,624,o),
(64,628,cs),
(122,662,ls),
(163,686,o),
(172,663,o),
(172,626,cs),
(172,388,l),
(172,290,ls),
(172,208,o),
(169,68,o),
(168,58,cs),
(164,26,o),
(152,151,o),
(128,124,cs),
(50,38,ls),
(47,34,o),
(43,33,o),
(46,26,cs),
(70,-30,ls),
(71,-32,o),
(72,-35,o),
(78,-36,cs),
(99,-35,o),
(128,-2,o),
(204,-2,cs),
(248,-2,ls),
(347,-2,o),
(446,-3,o),
(544,-4,cs),
(561,-3,o),
(604,-35,o),
(610,-36,cs),
(614,-35,o),
(616,-33,o),
(618,-30,cs),
(621,-16,o),
(647,145,o),
(650,154,cs),
(651,159,o),
(651,162,o),
(648,164,cs),
(642,167,o),
(592,170,o),
(586,170,cs),
(580,170,o),
(579,169,o),
(578,166,cs),
(576,163,o),
(542,76,o),
(518,60,cs),
(497,47,o),
(469,35,o),
(442,34,cs),
(264,30,l),
(264,322,l)
);
}
);
};
layerId = m01;
shapes = (
{
closed = 1;
nodes = (
(273,0,ls),
(368,0,o),
(527,-4,o),
(582,-11,cs),
(595,-13,o),
(603,-15,o),
(607,-15,cs),
(612,-15,o),
(618,-11,o),
(620,-4,cs),
(628,23,o),
(640,104,o),
(650,152,cs),
(651,155,o),
(650,164,o),
(648,164,cs),
(630,166,o),
(612,168,o),
(594,170,cs),
(588,171,o),
(580,174,o),
(576,160,cs),
(566,124,o),
(508,36,o),
(464,36,cs),
(174,36,l),
(193,67,o),
(633,668,o),
(652,690,cs),
(663,703,o),
(661,714,o),
(645,714,cs),
(610,714,o),
(575,713,o),
(539,711,cs),
(503,710,o),
(467,708,o),
(431,708,cs),
(348,708,o),
(207,708,o),
(160,714,cs),
(152,715,o),
(144,716,o),
(140,716,cs),
(135,716,o),
(130,714,o),
(128,705,cs),
(98,550,ls),
(96,541,o),
(120,538,o),
(124,538,cs),
(160,536,ls),
(168,536,o),
(170,536,o),
(176,552,cs),
(192,594,o),
(208,626,o),
(230,646,cs),
(245,659,o),
(274,670,o),
(290,670,cs),
(522,676,l),
(515,664,o),
(101,88,o),
(49,27,cs),
(44,22,o),
(43,14,o),
(43,8,cs),
(43,0,o),
(54,0,o),
(62,0,cs)
);
}
);
width = 900;
},
{
layerId = m002;
shapes = (
{
closed = 1;
nodes = (
(273,0,ls),
(368,0,o),
(527,-4,o),
(582,-11,cs),
(595,-13,o),
(603,-15,o),
(607,-15,cs),
(612,-15,o),
(618,-11,o),
(620,-4,cs),
(628,23,o),
(678,144,o),
(691,169,cs),
(693,173,o),
(692,176,o),
(689,178,cs),
(684,180,o),
(680,184,o),
(675,186,cs),
(671,188,o),
(669,187,o),
(666,184,cs),
(653,167,o),
(563,59,o),
(526,36,c),
(174,36,l),
(193,67,o),
(633,668,o),
(652,690,cs),
(663,703,o),
(661,714,o),
(645,714,cs),
(610,714,o),
(575,713,o),
(539,711,cs),
(503,710,o),
(467,708,o),
(431,708,cs),
(348,708,o),
(207,708,o),
(160,714,cs),
(152,715,o),
(144,716,o),
(140,716,cs),
(135,716,o),
(131,714,o),
(128,705,cs),
(65,525,ls),
(63,519,o),
(64,518,o),
(67,516,cs),
(80,510,ls),
(83,508,o),
(86,507,o),
(89,511,cs),
(108,542,o),
(190,643,o),
(211,660,cs),
(225,671,o),
(237,676,o),
(251,676,cs),
(522,676,l),
(515,664,o),
(101,88,o),
(49,27,cs),
(44,22,o),
(43,14,o),
(43,8,cs),
(43,0,o),
(54,0,o),
(62,0,cs)
);
}
);
width = 900;
},
{
background = {
shapes = (
{
closed = 1;
nodes = (
(446,519,o),
(446,522,o),
(446,518,cs),
(446,508,ls),
(446,503,o),
(446,491,o),
(446,486,cs),
(446,454,ls),
(446,404,o),
(466,396,o),
(486,396,cs),
(499,396,o),
(510,397,o),
(578,396,cs),
(650,397,o),
(682,394,o),
(696,394,cs),
(703,394,o),
(704,397,o),
(704,400,cs),
(704,424,ls),
(704,429,o),
(703,433,o),
(696,432,cs),
(658,432,ls),
(640,432,o),
(628,440,o),
(628,470,cs),
(628,514,ls),
(628,529,o),
(628,526,o),
(630,588,cs),
(631,632,o),
(602,658,o),
(576,672,cs),
(514,705,o),
(454,715,o),
(342,714,cs),
(253,715,o),
(131,682,o),
(62,600,cs),
(1,532,o),
(-30,447,o),
(-30,326,cs),
(-30,235,o),
(9,138,o),
(82,72,cs),
(154,11,o),
(244,-23,o),
(364,-24,cs),
(450,-23,o),
(499,-15,o),
(542,-8,cs),
(554,-6,o),
(572,-3,o),
(576,-2,cs),
(588,0,ls),
(592,1,o),
(603,2,o),
(612,6,cs),
(618,8,o),
(619,12,o),
(622,18,cs),
(684,154,l),
(686,158,o),
(645,287,o),
(632,284,cs),
(627,284,o),
(609,274,o),
(600,264,cs),
(583,246,o),
(580,188,o),
(582,152,cs),
(585,123,o),
(591,92,o),
(580,80,cs),
(543,36,o),
(442,13,o),
(352,12,cs),
(283,13,o),
(221,30,o),
(160,94,cs),
(107,151,o),
(73,234,o),
(72,324,cs),
(73,442,o),
(106,545,o),
(168,604,cs),
(218,652,o),
(279,675,o),
(344,674,cs),
(424,675,o),
(446,650,o),
(446,594,cs),
(446,540,o),
(446,604,o),
(446,576,cs),
(446,546,ls)
);
}
);
};
layerId = m003;
shapes = (
{
closed = 1;
nodes = (
(273,0,ls),
(368,0,o),
(558,6,o),
(614,6,cs),
(628,6,o),
(683,148,o),
(684,152,cs),
(688,170,o),
(642,270,o),
(638,278,cs),
(628,298,o),
(594,254,o),
(590,248,cs),
(588,245,o),
(578,217,o),
(582,156,cs),
(584,136,o),
(584,116,o),
(586,96,cs),
(587,74,o),
(523,43,o),
(520,42,cs),
(490,32,o),
(478,38,o),
(426,36,c),
(174,36,l),
(193,67,o),
(633,668,o),
(652,690,cs),
(663,703,o),
(661,714,o),
(645,714,cs),
(610,714,o),
(576,714,o),
(540,712,cs),
(504,711,o),
(464,712,o),
(428,712,cs),
(345,712,o),
(224,714,o),
(178,712,cs),
(170,712,o),
(150,714,o),
(144,700,cs),
(133,674,o),
(122,648,o),
(118,640,cs),
(76,546,ls),
(69,531,o),
(95,473,o),
(96,470,cs),
(114,428,ls),
(120,415,o),
(158,434,o),
(162,444,cs),
(175,477,o),
(180,509,o),
(176,534,cs),
(162,614,o),
(194,666,o),
(208,666,cs),
(522,676,l),
(515,664,o),
(101,88,o),
(49,27,cs),
(44,22,o),
(43,14,o),
(43,8,cs),
(43,0,o),
(54,0,o),
(62,0,cs)
);
}
);
width = 900;
}
);
unicode = (90,122);
},
{
glyphname = zero;
lastChange = "2023-03-10 18:46:38 +0000";
layers = (
{
layerId = m01;
shapes = (
{
closed = 1;
nodes = (
(384,-15,o),
(469,111,o),
(469,340,cs),
(469,492,o),
(401,683,o),
(254,683,cs),
(126,683,o),
(31,529,o),
(31,300,cs),
(31,179,o),
(93,-15,o),
(255,-15,cs)
);
},
{
closed = 1;
nodes = (
(221,21,o),
(183,40,o),
(152,106,cs),
(130,152,o),
(118,222,o),
(118,317,cs),
(118,400,o),
(122,517,o),
(158,587,cs),
(181,632,o),
(209,647,o),
(248,647,cs),
(333,647,o),
(383,509,o),
(383,362,cs),
(383,216,o),
(374,140,o),
(352,92,cs),
(325,33,o),
(287,21,o),
(256,21,cs)
);
}
);
width = 900;
},
{
layerId = m002;
shapes = (
{
closed = 1;
nodes = (
(384,-15,o),
(469,111,o),
(469,340,cs),
(469,492,o),
(401,683,o),
(254,683,cs),
(126,683,o),
(31,529,o),
(31,300,cs),
(31,179,o),
(93,-15,o),
(255,-15,cs)
);
},
{
closed = 1;
nodes = (
(221,21,o),
(183,40,o),
(152,106,cs),
(130,152,o),
(118,222,o),
(118,317,cs),
(118,400,o),
(122,517,o),
(158,587,cs),
(181,632,o),
(209,647,o),
(248,647,cs),
(333,647,o),
(383,509,o),
(383,362,cs),
(383,216,o),
(374,140,o),
(352,92,cs),
(325,33,o),
(287,21,o),
(256,21,cs)
);
}
);
width = 900;
},
{
layerId = m003;
shapes = (
{
closed = 1;
nodes = (
(384,-15,o),
(469,111,o),
(469,340,cs),
(469,492,o),
(401,683,o),
(254,683,cs),
(126,683,o),
(31,529,o),
(31,300,cs),
(31,179,o),
(93,-15,o),
(255,-15,cs)
);
},
{
closed = 1;
nodes = (
(221,21,o),
(183,40,o),
(152,106,cs),
(130,152,o),
(118,222,o),
(118,317,cs),
(118,400,o),
(122,517,o),
(158,587,cs),
(181,632,o),
(209,647,o),
(248,647,cs),
(333,647,o),
(383,509,o),
(383,362,cs),
(383,216,o),
(374,140,o),
(352,92,cs),
(325,33,o),
(287,21,o),
(256,21,cs)
);
}
);
width = 900;
}
);
unicode = 48;
},
{
glyphname = one;
lastChange = "2023-03-17 21:40:50 +0000";
layers = (
{
layerId = m01;
shapes = (
{
closed = 1;
nodes = (
(236,326,ls),
(236,307,o),
(237,105,o),
(236,92,cs),
(233,79,o),
(241,56,o),
(190,78,cs),
(148,96,ls),
(141,99,o),
(130,97,o),
(128,90,cs),
(108,6,ls),
(107,0,o),
(111,-3,o),
(116,-2,cs),
(121,-3,o),
(250,0,o),
(259,0,cs),
(268,0,o),
(412,-3,o),
(422,-2,cs),
(428,-3,o),
(432,-2,o),
(430,6,cs),
(408,88,ls),
(407,93,o),
(397,99,o),
(390,96,cs),
(342,76,ls),
(294,56,o),
(295,83,o),
(294,96,cs),
(293,108,o),
(294,320,o),
(294,332,cs),
(294,374,ls),
(294,503,o),
(296,660,o),
(296,670,cs),
(296,674,o),
(287,678,o),
(276,672,cs),
(260,664,o),
(236,648,o),
(232,646,cs),
(84,560,ls),
(77,556,o),
(73,549,o),
(76,546,cs),
(124,502,ls),
(134,492,o),
(143,488,o),
(154,494,cs),
(176,506,ls),
(184,511,o),
(195,522,o),
(204,524,cs),
(212,526,o),
(236,528,o),
(236,508,cs),
(236,429,o),
(236,374,o),
(236,362,cs)
);
}
);
width = 900;
},
{
layerId = m002;
shapes = (
{
closed = 1;
nodes = (
(226,325,ls),
(226,307,o),
(226,105,o),
(225,92,cs),
(223,39,o),
(221,36,o),
(156,36,cs),
(110,36,ls),
(102,36,o),
(96,35,o),
(96,30,cs),
(96,5,ls),
(96,-1,o),
(99,-3,o),
(104,-3,cs),
(109,-3,o),
(250,0,o),
(259,0,cs),
(268,0,o),
(404,-3,o),
(413,-3,cs),
(420,-3,o),
(422,-1,o),
(422,5,cs),
(422,28,ls),
(422,33,o),
(419,36,o),
(412,36,cs),
(376,36,ls),
(311,36,o),
(307,43,o),
(306,95,cs),
(306,108,o),
(305,320,o),
(305,332,cs),
(305,374,ls),
(305,503,o),
(308,660,o),
(308,669,cs),
(308,677,o),
(307,683,o),
(301,683,cs),
(296,683,o),
(292,680,o),
(287,677,cs),
(80,558,ls),
(73,554,o),
(72,550,o),
(74,546,cs),
(82,528,ls),
(84,524,o),
(88,524,o),
(92,525,cs),
(162,548,ls),
(178,553,o),
(193,556,o),
(202,556,cs),
(221,556,o),
(225,534,o),
(226,500,cs),
(227,421,o),
(226,374,o),
(226,361,cs)
);
}
);
width = 900;
},
{
layerId = m003;
shapes = (
{
closed = 1;
nodes = (
(226,325,ls),
(226,307,o),
(225.2,105.2,o),
(225,92,cs),
(223.2,-32.8,o),
(221.2,80,o),
(156,80,cs),
(110,80,ls),
(102,80,o),
(96,79.2,o),
(96,74,cs),
(96,5,ls),
(96,-1,o),
(99,-3,o),
(104,-3,cs),
(109,-3,o),
(250,0,o),
(259,0,cs),
(268,0,o),
(404,-2.8,o),
(413.2,-2.8,cs),
(420,-2.8,o),
(422,-0.8,o),
(422,5.2,cs),
(422,72,ls),
(422,77.2,o),
(419.2,80,o),
(412,80,cs),
(376,80,ls),
(311.2,80,o),
(307.2,-28.8,o),
(306,95.2,cs),
(306,108,o),
(305,320,o),
(305,332,cs),
(305,374,ls),
(305,503,o),
(308,660,o),
(308,669,cs),
(308,677,o),
(307,683,o),
(301,683,cs),
(296,683,o),
(292,680,o),
(287,677,cs),
(80,558,ls),
(73.2,554,o),
(72,438,o),
(74,434,cs),
(82,416,ls),
(84,412,o),
(90,409.6,o),
(92,413.2,cs),
(162,548,ls),
(169.2,562,o),
(193.2,556,o),
(202,556,cs),
(221.2,556,o),
(225,534,o),
(226,500,cs),
(227,421,o),
(226,374,o),
(226,361,cs)
);
}
);
width = 900;
}
);
unicode = 49;
},
{
glyphname = two;
lastChange = "2023-03-17 21:30:09 +0000";
layers = (
{
background = {
shapes = (
{
closed = 1;
nodes = (
(232,-26,ls),
(326,-26,o),
(486,-30,o),
(540,-36,cs),
(554,-38,o),
(562,-40,o),
(566,-40,cs),
(570,-40,o),
(576,-36,o),
(578,-30,cs),
(586,-2,o),
(598,78,o),
(608,126,cs),
(610,130,o),
(608,138,o),
(606,138,cs),
(552,144,ls),
(546,146,o),
(538,148,o),
(534,134,cs),
(524,98,o),
(466,10,o),
(422,10,cs),
(132,10,l),
(152,42,o),
(592,642,o),
(610,664,cs),
(622,678,o),
(620,688,o),
(604,688,cs),
(568,688,o),
(534,688,o),
(498,686,cs),
(462,684,o),
(426,682,o),
(390,682,cs),
(306,682,o),
(166,682,o),
(118,688,cs),
(110,690,o),
(102,690,o),
(98,690,cs),
(94,690,o),
(88,688,o),
(86,680,cs),
(56,524,ls),
(54,516,o),
(78,512,o),
(82,512,cs),
(118,510,ls),
(126,510,o),
(128,510,o),
(134,526,cs),
(150,568,o),
(166,600,o),
(188,620,cs),
(204,634,o),
(232,644,o),
(248,644,cs),
(480,650,l),
(474,638,o),
(60,62,o),
(8,2,cs),
(2,-4,o),
(2,-12,o),
(2,-18,cs),
(2,-26,o),
(12,-26,o),
(20,-26,cs)
);
}
);
};
layerId = m01;
shapes = (
{
closed = 1;
nodes = (
(248,0,ls),
(277,0,o),
(296,-1,o),
(336,-4,cs),
(362,-6,o),
(373,-9,o),
(382,-10,cs),
(398,-12,o),
(420,-16,o),
(422,-4,cs),
(446,126,l),
(449,139,o),
(456,160,o),
(450,164,cs),
(444,168,o),
(393,174,o),
(386,170,cs),
(376,164,o),
(369,141,o),
(368,140,cs),
(346,102,o),
(338,68,o),
(302,68,cs),
(118,68,l),
(162,107,o),
(241,165,o),
(309,243,cs),
(399,344,o),
(433,416,o),
(433,501,cs),
(433,614,o),
(342,682,o),
(258,683,cs),
(200,684,o),
(72,688,o),
(44,538,cs),
(42,528,o),
(37,521,o),
(60,518,cs),
(118,510,ls),
(124,509,o),
(128,515,o),
(132,522,cs),
(149,552,o),
(130,646,o),
(242,644,cs),
(314,643,o),
(344,563,o),
(347,474,cs),
(350,387,o),
(304,310,o),
(224,224,cs),
(144,138,o),
(56,61,o),
(9,17,cs),
(4,12,o),
(3,9,o),
(6,2,cs),
(9,-4,o),
(12,-4,o),
(17,-4,cs),
(21,-4,o),
(33,-3,o),
(48,-2,cs),
(63,-1,o),
(81,0,o),
(98,0,cs)
);
}
);
width = 900;
},
{
layerId = m002;
shapes = (
{
closed = 1;
nodes = (
(315,0,ls),
(345,0,o),
(364,-1,o),
(370,-14,cs),
(374,-23,o),
(374,-24,o),
(383,-24,cs),
(401,-24,o),
(393,-24,o),
(398,-13,cs),
(463,143,l),
(467,149,o),
(463,153,o),
(455,157,cs),
(448,160.4,o),
(444.4,161.2,o),
(441.2,158,cs),
(439.6,156.4,o),
(438.4,154.4,o),
(437,152,cs),
(415,115,o),
(389,68,o),
(321,68,cs),
(118,68,l),
(162,107,o),
(241,165,o),
(309,243,cs),
(399,344,o),
(433,416,o),
(433,501,cs),
(433,614,o),
(342,683,o),
(258,683,cs),
(123,683,o),
(74,572,o),
(58,533,cs),
(54,524,o),
(55,521,o),
(58,519,c),
(72,513,ls),
(77,510,o),
(80,511,o),
(84,518,cs),
(101,548,o),
(133,614,o),
(218,615,cs),
(290,616,o),
(344,563,o),
(347,474,cs),
(350,387,o),
(304,310,o),
(224,224,cs),
(144,138,o),
(56,61,o),
(9,17,cs),
(4,12,o),
(3,9,o),
(6,2,cs),
(9,-4,o),
(12,-4,o),
(17,-4,cs),
(21,-4,o),
(33,-3,o),
(48,-2,cs),
(63,-1,o),
(81,0,o),
(98,0,cs)
);
}
);
width = 900;
},
{
layerId = m003;
shapes = (
{
closed = 1;
nodes = (
(315.2,0,ls),
(345.2,0,o),
(364,-0.8,o),
(370,-14,cs),
(374,-22.8,o),
(374,-24,o),
(383.2,-24,cs),
(401.2,-24,o),
(392.4,-23.6,o),
(398,-12.8,cs),
(497.6,175.6,l),
(498.4,178,o),
(458.8,308,o),
(446,305.6,cs),
(440.8,304.8,o),
(416.8,288.8,o),
(413.2,284.8,cs),
(396.4,265.6,o),
(393.2,208.8,o),
(396.4,172.8,cs),
(397.2,163.2,o),
(389.2,68,o),
(321.2,68,cs),
(118,68,l),
(162,107,o),
(241,165,o),
(309,243,cs),
(399,344,o),
(433,416,o),
(433,501,cs),
(433,614,o),
(342,683,o),
(258,683,cs),
(123,683,o),
(74,572,o),
(58,533,cs),
(54,524,o),
(55.2,425.2,o),
(58,423.2,c),
(72,417.2,ls),
(77.6,414.8,o),
(80,415.2,o),
(84,422,cs),
(101.2,452,o),
(133,614,o),
(218,615,cs),
(290,616,o),
(344,563,o),
(347,474,cs),
(350,387,o),
(304,310,o),
(224,224,cs),
(144,138,o),
(56,61,o),
(9,17,cs),
(4,12,o),
(3,9,o),
(6,2,cs),
(9,-4,o),
(12,-4,o),
(17,-4,cs),
(21,-4,o),
(33,-3,o),
(48,-2,cs),
(63,-1,o),
(81.2,0,o),
(98,0,cs)
);
}
);
width = 900;
}
);
unicode = 50;
},
{
glyphname = three;
lastChange = "2023-03-17 21:32:12 +0000";
layers = (
{
background = {
shapes = (
{
closed = 1;
nodes = (
(547,436,o),
(549,586,o),
(548,598,cs),
(549,617,o),
(565,506,o),
(582,526,cs),
(660,612,ls),
(664,615,o),
(671,620,o),
(668,624,cs),
(642,682,ls),
(642,685,o),
(636,687,o),
(630,688,cs),
(626,687,o),
(566,656,o),
(542,656,cs),
(520,655,o),
(486,654,o),
(436,654,cs),
(423,654,o),
(193,652,o),
(142,666,cs),
(132,669,o),
(97,699,o),
(94,690,cs),
(94,688,o),
(94,685,o),
(94,682,cs),
(76,604,o),
(65,537,o),
(60,510,cs),
(59,498,o),
(92,502,o),
(110,502,cs),
(121,502,o),
(125,502,o),
(136,502,cs),
(147,502,o),
(146,504,o),
(148,510,cs),
(159,532,o),
(155,523,o),
(176,566,cs),
(191,594,o),
(227,607,o),
(254,614,cs),
(281,620,o),
(424,621,o),
(454,622,c),
(454,608,o),
(455,407,o),
(454,346,cs),
(454,296,l),
(441,296,o),
(336,299,o),
(324,302,cs),
(302,305,o),
(298,313,o),
(292,346,cs),
(291,360,o),
(291,366,o),
(288,394,cs),
(289,398,o),
(287,402,o),
(282,402,cs),
(242,400,ls),
(239,400,o),
(237,397,o),
(236,394,cs),
(239,376,o),
(239,293,o),
(238,280,cs),
(239,243,o),
(236,195,o),
(234,176,cs),
(234,170,o),
(236,167,o),
(240,168,cs),
(276,164,ls),
(283,164,o),
(284,165,o),
(284,170,cs),
(286,178,o),
(289,208,o),
(290,220,cs),
(295,242,o),
(297,255,o),
(318,258,cs),
(366,264,o),
(439,264,o),
(454,264,c),
(454,228,ls),
(455,197,o),
(454,29,o),
(454,14,cs),
(454,-13,o),
(446,-24,o),
(414,-8,cs),
(350,24,ls),
(347,26,o),
(333,20,o),
(330,16,cs),
(306,-48,ls),
(305,-53,o),
(309,-57,o),
(314,-56,cs),
(325,-57,o),
(415,-54,o),
(500,-54,cs),
(579,-54,o),
(667,-53,o),
(680,-52,cs),
(686,-53,o),
(688,-51,o),
(686,-46,cs),
(668,16,ls),
(668,19,o),
(653,26,o),
(648,24,cs),
(580,-16,ls),
(558,-29,o),
(552,-14,o),
(550,4,cs),
(549,24,o),
(547,150,o),
(546,322,cs),
(546,392,ls)
);
}
);
};
layerId = m01;
shapes = (
{
closed = 1;
nodes = (
(275,-15,o),
(357,26,o),
(402,92,cs),
(422,124,o),
(436,162,o),
(435,205,cs),
(435,293,o),
(357,363,o),
(289,380,c),
(341,412,o),
(401,466,o),
(401,552,cs),
(401,603,o),
(362,683,o),
(253,683,cs),
(140,683,o),
(74,592,o),
(60,524,cs),
(58,514,o),
(60,508,o),
(62,508,c),
(140,504,ls),
(144,504,o),
(147,506,o),
(150,514,cs),
(172,572,o),
(178,622,o),
(242,622,cs),
(305,622,o),
(329,573,o),
(329,509,cs),
(329,432,o),
(263,380,o),
(199,367,cs),
(194,366,o),
(188,363,o),
(187,353,cs),
(186,344,o),
(187,342,o),
(205,338,cs),
(286,319,o),
(349,260,o),
(349,159,cs),
(349,89,o),
(294,22,o),
(202,22,cs),
(132,22,o),
(130,54,o),
(124,74,cs),
(102,146,o),
(98,170,o),
(84,170,cs),
(67,170,o),
(16,176,o),
(16,160,cs),
(16,128,o),
(35,59,o),
(50,-8,cs),
(54,-26,o),
(134,-15,o),
(185,-15,cs)
);
}
);
width = 900;
},
{
layerId = m002;
shapes = (
{
closed = 1;
nodes = (
(280,-15,o),
(366,30,o),
(408,103,cs),
(425,133,o),
(435,167,o),
(435,205,cs),
(435,293,o),
(357,363,o),
(289,380,c),
(341,412,o),
(401,466,o),
(401,552,cs),
(401,603,o),
(362,683,o),
(253,683,cs),
(140,683,o),
(79,590,o),
(65,521,cs),
(63,512,o),
(64,507,o),
(66,506,c),
(84,502,ls),
(88,501,o),
(91,504,o),
(94,512,cs),
(115,569,o),
(153,621,o),
(227,621,cs),
(290,621,o),
(329,573,o),
(329,509,cs),
(329,432,o),
(263,379,o),
(199,367,cs),
(190,365,o),
(188,363,o),
(187,353,cs),
(186,344,o),
(187,342,o),
(205,338,cs),
(286,319,o),
(349,260,o),
(349,159,cs),
(349,89,o),
(294,22,o),
(202,22,cs),
(132,22,o),
(114,52,o),
(109,63,cs),
(107,68,o),
(101,107,o),
(68,107,cs),
(51,107,o),
(35,90,o),
(35,64,cs),
(35,48,o),
(45,24,o),
(76,7,cs),
(99,-6,o),
(134,-15,o),
(185,-15,cs)
);
}
);
width = 900;
},
{
layerId = m003;
shapes = (
{
closed = 1;
nodes = (
(291,-15,o),
(385,41,o),
(420,128,cs),
(430,152,o),
(435,177,o),
(436,206,cs),
(435,293,o),
(358,364,o),
(289,380,c),
(341,412,o),
(401,466,o),
(401,552,cs),
(401,603,o),
(362,683,o),
(253,683,cs),
(140,683,o),
(79,630,o),
(66,562,cs),
(63,552,o),
(62,540,o),
(62,534,cs),
(64,448,ls),
(64,445,o),
(91,430,o),
(94,438,cs),
(115,495,o),
(153,621,o),
(227,621,cs),
(290,621,o),
(329,573,o),
(329,509,cs),
(329,432,o),
(263,379,o),
(199,367,cs),
(190,365,o),
(188,363,o),
(187,353,cs),
(186,344,o),
(187,342,o),
(205,338,cs),
(286,319,o),
(349,260,o),
(349,159,cs),
(349,89,o),
(294,22,o),
(202,22,cs),
(132,22,o),
(107,45,o),
(102,56,cs),
(100,61,o),
(69,164,o),
(36,164,cs),
(24,164,o),
(30,80,o),
(30,54,cs),
(30,39,o),
(28,30,o),
(30,2,cs),
(32,-25,o),
(128,-15,o),
(186,-14,cs)
);
}
);
width = 900;
}
);
unicode = 51;
},
{
glyphname = four;
lastChange = "2023-03-18 00:33:34 +0000";
layers = (
{
background = {
shapes = (
{
closed = 1;
nodes = (
(296,540,ls),
(298,513,o),
(296,319,o),
(294,272,cs),
(295,248,o),
(292,212,o),
(266,224,cs),
(218,246,ls),
(216,248,o),
(206,240,o),
(202,236,cs),
(182,192,ls),
(182,187,o),
(185,185,o),
(188,186,cs),
(213,185,o),
(261,188,o),
(346,188,cs),
(419,188,o),
(480,186,o),
(498,186,cs),
(504,186,o),
(510,187,o),
(506,192,cs),
(484,238,ls),
(484,242,o),
(471,246,o),
(464,244,cs),
(422,224,ls),
(403,214,o),
(393,234,o),
(390,258,cs),
(391,328,o),
(390,482,o),
(388,510,cs),
(388,530,ls),
(390,537,o),
(393,540,o),
(402,540,cs),
(768,540,ls),
(787,540,o),
(792,539,o),
(790,528,cs),
(790,514,ls),
(792,478,o),
(790,317,o),
(788,270,cs),
(789,243,o),
(786,213,o),
(760,224,cs),
(716,244,ls),
(712,247,o),
(700,242,o),
(696,238,cs),
(676,192,ls),
(676,188,o),
(679,185,o),
(682,186,cs),
(713,185,o),
(759,188,o),
(844,188,cs),
(919,188,o),
(973,185,o),
(990,186,cs),
(998,185,o),
(1003,187,o),
(998,194,cs),
(978,236,ls),
(978,240,o),
(966,247,o),
(958,244,cs),
(922,226,ls),
(895,211,o),
(887,238,o),
(886,274,cs),
(886,331,o),
(884,521,o),
(882,554,cs),
(882,588,ls),
(884,624,o),
(886,793,o),
(884,808,cs),
(886,843,o),
(889,861,o),
(916,860,cs),
(990,858,ls),
(997,858,o),
(1003,859,o),
(998,866,cs),
(978,910,ls),
(977,917,o),
(970,917,o),
(962,918,cs),
(944,917,o),
(903,896,o),
(834,896,cs),
(767,896,o),
(732,917,o),
(710,918,cs),
(706,917,o),
(701,913,o),
(698,910,cs),
(676,866,ls),
(675,861,o),
(679,858,o),
(682,858,cs),
(754,860,ls),
(785,861,o),
(789,841,o),
(788,810,cs),
(789,797,o),
(792,658,o),
(790,602,cs),
(790,592,ls),
(792,578,o),
(787,576,o),
(770,576,cs),
(400,576,ls),
(393,576,o),
(390,579,o),
(388,584,cs),
(388,602,ls),
(390,657,o),
(392,789,o),
(390,804,cs),
(392,843,o),
(397,861,o),
(430,860,cs),
(496,858,ls),
(504,858,o),
(509,860,o),
(504,866,cs),
(484,910,ls),
(484,914,o),
(477,916,o),
(468,916,cs),
(451,916,o),
(425,896,o),
(346,896,cs),
(259,896,o),
(239,917,o),
(218,918,cs),
(214,917,o),
(206,915,o),
(202,910,cs),
(182,866,ls),
(181,860,o),
(184,858,o),
(188,858,cs),
(250,860,ls),
(289,861,o),
(296,846,o),
(294,796,cs),
(296,779,o),
(298,644,o),
(296,582,cs)
);
}
);
};
layerId = m01;
shapes = (
{
closed = 1;
nodes = (
(375,0,ls),
(387,0,o),
(389,3,o),
(389,14,cs),
(389,187,l),
(494,186,ls),
(507,186,o),
(509,188,o),
(506,194,cs),
(484,240,ls),
(481,246,o),
(471,278,o),
(464,276,cs),
(400,256,o),
(390,214,o),
(390,308,cs),
(390,354,l),
(389,653,ls),
(389,676,o),
(385,683,o),
(376,683,cs),
(368,683,o),
(360,675,o),
(354,667,cs),
(29,219,ls),
(22,209,o),
(19,205,o),
(19,199,cs),
(19,191,o),
(25,187,o),
(34,187,cs),
(313,187,l),
(314,142,o),
(314,98,o),
(313,52,c),
(314,38,o),
(314,24,o),
(313,11,cs),
(313,2,o),
(316,0,o),
(325,0,cs)
);
},
{
closed = 1;
nodes = (
(314,248,l),
(118,248,ls),
(100,248,o),
(99,258,o),
(111,275,cs),
(295,529,ls),
(304,542,o),
(314,539,o),
(314,523,cs)
);
}
);
width = 900;
},
{
layerId = m002;
shapes = (
{
closed = 1;
nodes = (
(375,0,ls),
(387,0,o),
(389,3,o),
(389,14,cs),
(389,187,l),
(466,187,ls),
(479,187,o),
(482,191,o),
(482,197,cs),
(482,245,ls),
(482,251,o),
(477,253,o),
(470,253,cs),
(448,254,o),
(426,254,o),
(404,253,c),
(389,253,l),
(389,653,ls),
(389,676,o),
(385,683,o),
(376,683,cs),
(368,683,o),
(360,675,o),
(354,667,cs),
(29,219,ls),
(22,209,o),
(19,205,o),
(19,199,cs),
(19,191,o),
(25,187,o),
(34,187,cs),
(313,187,l),
(314,146,o),
(314,106,o),
(313,66,c),
(314,48,o),
(314,30,o),
(313,11,cs),
(313,2,o),
(316,0,o),
(325,0,cs)
);
},
{
closed = 1;
nodes = (
(314,248,l),
(118,248,ls),
(100,248,o),
(99,258,o),
(111,275,cs),
(295,529,ls),
(304,542,o),
(314,539,o),
(314,523,cs)
);
}
);
width = 900;
},
{
background = {
shapes = (
{
closed = 1;
nodes = (
(372,29,o),
(375,171,o),
(376,188,cs),
(380,212,o),
(394,24,o),
(420,24,cs),
(474,24,ls),
(480,24,o),
(483,27,o),
(482,34,cs),
(482,250,ls),
(483,254,o),
(480,255,o),
(476,256,cs),
(463,255,o),
(419,252,o),
(328,252,cs),
(303,252,o),
(203,255,o),
(180,256,cs),
(51,255,o),
(-57,240,o),
(-146,166,cs),
(-210,109,o),
(-256,26,o),
(-256,-90,cs),
(-256,-205,o),
(-223,-281,o),
(-158,-352,cs),
(-61,-459,o),
(77,-459,o),
(154,-458,cs),
(217,-459,o),
(293,-456,o),
(338,-456,cs),
(425,-456,o),
(465,-459,o),
(478,-458,cs),
(484,-459,o),
(486,-457,o),
(486,-452,cs),
(486,-426,ls),
(486,-422,o),
(485,-385,o),
(484,-380,cs),
(484,-328,ls),
(482,-291,o),
(457,-278,o),
(424,-238,cs),
(381,-184,o),
(372,-150,o),
(372,-72,cs),
(372,4,ls)
);
},
{
closed = 1;
nodes = (
(280,-107,o),
(279,-277,o),
(278,-338,cs),
(278,-359,o),
(274,-375,o),
(260,-394,cs),
(245,-416,o),
(205,-427,o),
(154,-426,cs),
(53,-427,o),
(-30,-383,o),
(-80,-318,cs),
(-122,-267,o),
(-153,-185,o),
(-154,-94,cs),
(-153,-16,o),
(-119,74,o),
(-72,128,cs),
(-19,184,o),
(69,223,o),
(180,224,cs),
(202,223,o),
(243,223,o),
(260,214,cs),
(274,204,o),
(278,188,o),
(278,166,cs),
(280,124,o),
(280,-7,o),
(280,-22,cs),
(280,-94,ls)
);
}
);
};
layerId = m003;
shapes = (
{
closed = 1;
nodes = (
(370,0,ls),
(381,0,o),
(384,3,o),
(384,14,cs),
(384,188,l),
(426,158,ls),
(437,150,o),
(482,151,o),
(482,158,cs),
(482,245,ls),
(482,251,o),
(477,253,o),
(470,253,cs),
(448,254,o),
(428,254,o),
(406,254,c),
(389,253,l),
(389,653,ls),
(389,676,o),
(385,683,o),
(376,683,cs),
(368,683,o),
(360,675,o),
(354,667,cs),
(29,219,ls),
(22,209,o),
(19,205,o),
(19,199,cs),
(19,191,o),
(25,187,o),
(34,187,cs),
(314,188,l),
(298,152,o),
(295,143,o),
(264,106,cs),
(242,80,o),
(238,64,o),
(238,48,cs),
(238,16,o),
(238,0,o),
(238,0,cs)
);
},
{
closed = 1;
nodes = (
(314,248,l),
(118,248,ls),
(100,248,o),
(99,258,o),
(111,275,cs),
(295,529,ls),
(304,542,o),
(314,539,o),
(314,523,cs)
);
}
);
width = 900;
}
);
unicode = 52;
},
{
glyphname = five;
lastChange = "2023-03-17 22:45:42 +0000";
layers = (
{
background = {
shapes = (
{
closed = 1;
nodes = (
(30,336,ls),
(28,163,o),
(26,37,o),
(26,18,cs),
(23,-1,o),
(17,-16,o),
(-4,-2,cs),
(-72,38,ls),
(-78,39,o),
(-93,32,o),
(-92,30,cs),
(-110,-32,ls),
(-113,-38,o),
(-111,-40,o),
(-104,-38,cs),
(-92,-40,o),
(-4,-41,o),
(76,-40,cs),
(160,-41,o),
(250,-44,o),
(262,-42,cs),
(266,-44,o),
(270,-40,o),
(270,-34,cs),
(246,30,ls),
(242,33,o),
(228,39,o),
(226,38,cs),
(162,6,ls),
(129,-11,o),
(121,0,o),
(122,28,cs),
(121,42,o),
(120,210,o),
(122,242,cs),
(122,278,l),
(136,277,o),
(209,277,o),
(258,272,cs),
(278,268,o),
(280,255,o),
(286,234,cs),
(286,221,o),
(289,191,o),
(292,184,cs),
(291,178,o),
(292,177,o),
(300,178,cs),
(336,182,ls),
(339,180,o),
(341,183,o),
(342,190,cs),
(339,208,o),
(336,256,o),
(338,294,cs),
(336,306,o),
(336,389,o),
(340,408,cs),
(338,410,o),
(336,413,o),
(334,414,cs),
(294,416,ls),
(288,415,o),
(286,411,o),
(288,408,cs),
(284,379,o),
(284,373,o),
(284,360,cs),
(277,326,o),
(273,318,o),
(252,316,cs),
(239,312,o),
(134,309,o),
(122,310,c),
(122,360,ls),
(120,420,o),
(121,621,o),
(122,636,c),
(151,634,o),
(294,633,o),
(322,628,cs),
(348,620,o),
(384,607,o),
(400,580,cs),
(420,536,o),
(416,545,o),
(428,524,cs),
(429,517,o),
(428,515,o),
(440,516,cs),
(450,515,o),
(454,515,o),
(466,516,cs),
(483,515,o),
(516,511,o),
(516,524,cs),
(510,550,o),
(499,617,o),
(482,696,cs),
(481,698,o),
(481,701,o),
(482,704,cs),
(478,712,o),
(443,682,o),
(434,680,cs),
(382,665,o),
(152,667,o),
(140,668,cs),
(89,667,o),
(55,668,o),
(34,670,cs),
(9,669,o),
(-51,700,o),
(-54,702,cs),
(-61,700,o),
(-67,698,o),
(-66,696,cs),
(-92,638,ls),
(-96,633,o),
(-89,628,o),
(-84,626,cs),
(-6,540,ls),
(10,519,o),
(26,630,o),
(28,612,cs),
(26,599,o),
(28,449,o),
(30,406,cs)
);
}
);
};
layerId = m01;
shapes = (
{
closed = 1;
nodes = (
(159,591,l),
(400,586,ls),
(426,585,o),
(422,511,o),
(436,512,cs),
(516,516,ls),
(523,516,o),
(488,670,o),
(478,672,cs),
(472,673,o),
(460,672,o),
(428,670,cs),
(396,668,o),
(382,668,o),
(359,668,cs),
(145,668,ls),
(132,668,o),
(131,664,o),
(129,652,cs),
(93,370,ls),
(92,364,o),
(93,361,o),
(98,359,cs),
(105,355,o),
(110,356,o),
(116,357,cs),
(142,359,o),
(192,359,o),
(246,335,cs),
(311,307,o),
(334,252,o),
(334,182,cs),
(334,94,o),
(256,27,o),
(178,28,cs),
(68,30,o),
(65,129,o),
(50,138,cs),
(35,147,o),
(-16,140,o),
(-36,136,cs),
(-49,133,o),
(-8,24,o),
(2,0,cs),
(13,-26,o),
(83,-15,o),
(157,-15,cs),
(293,-15,o),
(410,90,o),
(409,233,cs),
(409,323,o),
(353,393,o),
(255,419,cs),
(233,425,o),
(166,432,o),
(141,430,c)
);
}
);
width = 900;
},
{
layerId = m002;
shapes = (
{
closed = 1;
nodes = (
(159,591,l),
(367,591,ls),
(398,591,o),
(403,595,o),
(410,611,cs),
(446,711,ls),
(448,717,o),
(443,718,o),
(432,723,cs),
(426,725,o),
(423,724,o),
(420,718,cs),
(403,685,o),
(394,668,o),
(359,668,cs),
(145,668,ls),
(132,668,o),
(130,664,o),
(129,652,cs),
(93,370,ls),
(92,364,o),
(93,361,o),
(98,359,cs),
(105,355,o),
(110,356,o),
(116,357,cs),
(142,359,o),
(192,359,o),
(246,335,cs),
(311,307,o),
(334,252,o),
(334,182,cs),
(334,94,o),
(256,28,o),
(178,28,cs),
(148,28,o),
(114,38,o),
(99,47,cs),
(84,56,o),
(67,67,o),
(49,67,cs),
(36,67,o),
(27,55,o),
(27,41,cs),
(27,12,o),
(83,-15,o),
(157,-15,cs),
(293,-15,o),
(410,90,o),
(409,233,cs),
(409,323,o),
(353,393,o),
(255,419,cs),
(233,425,o),
(166,432,o),
(141,430,c)
);
}
);
width = 900;
},
{
background = {
shapes = (
{
closed = 1;
nodes = (
(337,445,o),
(340,587,o),
(342,604,cs),
(345,628,o),
(359,440,o),
(384,440,cs),
(440,440,ls),
(445,440,o),
(448,443,o),
(448,450,cs),
(448,666,ls),
(448,670,o),
(445,671,o),
(442,672,cs),
(428,671,o),
(384,668,o),
(294,668,cs),
(268,668,o),
(168,671,o),
(146,672,cs),
(16,671,o),
(-92,656,o),
(-180,582,cs),
(-245,525,o),
(-291,442,o),
(-290,326,cs),
(-291,211,o),
(-258,135,o),
(-192,64,cs),
(-96,-43,o),
(42,-43,o),
(120,-42,cs),
(182,-43,o),
(258,-40,o),
(304,-40,cs),
(390,-40,o),
(430,-43,o),
(444,-42,cs),
(449,-43,o),
(451,-41,o),
(452,-36,cs),
(452,-10,ls),
(451,-6,o),
(450,31,o),
(450,36,cs),
(448,88,ls),
(447,125,o),
(422,138,o),
(390,178,cs),
(346,232,o),
(337,266,o),
(338,344,cs),
(338,420,ls)
);
},
{
closed = 1;
nodes = (
(245,309,o),
(244,139,o),
(244,78,cs),
(243,57,o),
(239,41,o),
(226,22,cs),
(210,0,o),
(170,-11,o),
(120,-10,cs),
(18,-11,o),
(-65,33,o),
(-114,98,cs),
(-157,149,o),
(-188,231,o),
(-188,322,cs),
(-188,400,o),
(-154,490,o),
(-106,544,cs),
(-54,600,o),
(34,639,o),
(146,640,cs),
(167,639,o),
(208,639,o),
(226,630,cs),
(239,620,o),
(243,604,o),
(244,582,cs),
(245,540,o),
(245,409,o),
(246,394,cs),
(246,322,ls)
);
}
);
};
layerId = m003;
shapes = (
{
closed = 1;
nodes = (
(159,591,l),
(344,590,ls),
(362,590,o),
(369,514,o),
(372,496,cs),
(382,444,ls),
(383,437,o),
(412,438,o),
(446,440,cs),
(454,440,o),
(452,670,o),
(444,670,cs),
(424,670,o),
(394,668,o),
(359,668,cs),
(145,668,ls),
(132,668,o),
(131,664,o),
(129,652,cs),
(93,370,ls),
(92,364,o),
(93,361,o),
(98,359,cs),
(105,355,o),
(110,356,o),
(116,357,cs),
(142,359,o),
(192,359,o),
(246,335,cs),
(311,307,o),
(334,252,o),
(334,182,cs),
(334,94,o),
(256,28,o),
(178,28,cs),
(148,28,o),
(114,38,o),
(99,47,cs),
(84,56,o),
(67,67,o),
(49,67,cs),
(36,67,o),
(27,55,o),
(27,41,cs),
(27,12,o),
(83,-15,o),
(157,-15,cs),
(293,-15,o),
(410,90,o),
(409,233,cs),
(409,323,o),
(353,393,o),
(255,419,cs),
(233,425,o),
(166,432,o),
(141,430,c)
);
}
);
width = 900;
}
);
unicode = 53;
},
{
glyphname = six;
lastChange = "2023-03-17 22:05:06 +0000";
layers = (
{
background = {
shapes = (
{
closed = 1;
nodes = (
(-62,322,ls),
(-63,150,o),
(-65,24,o),
(-66,4,cs),
(-68,-14,o),
(-74,-29,o),
(-96,-16,cs),
(-164,24,ls),
(-169,26,o),
(-184,19,o),
(-184,16,cs),
(-202,-46,ls),
(-204,-51,o),
(-202,-53,o),
(-196,-52,cs),
(-183,-53,o),
(-95,-54,o),
(-16,-54,cs),
(69,-54,o),
(159,-57,o),
(170,-56,cs),
(175,-57,o),
(179,-53,o),
(178,-48,cs),
(154,16,ls),
(151,20,o),
(137,26,o),
(134,24,cs),
(70,-8,ls),
(38,-24,o),
(30,-13,o),
(30,14,cs),
(30,29,o),
(29,197,o),
(30,228,cs),
(30,264,l),
(45,264,o),
(118,264,o),
(166,258,cs),
(187,255,o),
(189,242,o),
(194,220,cs),
(195,208,o),
(198,178,o),
(200,170,cs),
(200,165,o),
(201,164,o),
(208,164,cs),
(244,168,ls),
(248,167,o),
(250,170,o),
(250,176,cs),
(248,195,o),
(245,243,o),
(246,280,cs),
(245,293,o),
(245,376,o),
(248,394,cs),
(247,397,o),
(245,400,o),
(242,400,cs),
(202,402,ls),
(197,402,o),
(195,398,o),
(196,394,cs),
(193,366,o),
(193,360,o),
(192,346,cs),
(186,313,o),
(182,305,o),
(160,302,cs),
(148,299,o),
(43,296,o),
(30,296,c),
(30,346,ls),
(29,407,o),
(30,608,o),
(30,622,c),
(60,621,o),
(203,620,o),
(230,614,cs),
(257,607,o),
(293,594,o),
(308,566,cs),
(329,523,o),
(325,532,o),
(336,510,cs),
(338,504,o),
(337,502,o),
(348,502,cs),
(359,502,o),
(363,502,o),
(374,502,cs),
(392,502,o),
(425,498,o),
(424,510,cs),
(419,537,o),
(408,604,o),
(390,682,cs),
(390,685,o),
(390,688,o),
(390,690,cs),
(387,699,o),
(352,669,o),
(342,666,cs),
(291,652,o),
(61,654,o),
(48,654,cs),
(-2,654,o),
(-36,655,o),
(-58,656,cs),
(-82,656,o),
(-142,687,o),
(-146,688,cs),
(-152,687,o),
(-158,685,o),
(-158,682,cs),
(-184,624,ls),
(-187,620,o),
(-180,615,o),
(-176,612,cs),
(-98,526,ls),
(-81,506,o),
(-65,617,o),
(-64,598,cs),
(-65,586,o),
(-63,436,o),
(-62,392,cs)
);
}
);
};
layerId = m01;
shapes = (
{
closed = 1;
nodes = (
(315,-15,o),
(357,5,o),
(394,45,cs),
(429,81,o),
(456,124,o),
(456,217,cs),
(456,282,o),
(404,393,o),
(279,393,cs),
(221,393,o),
(178,375,o),
(146,347,c),
(171,511,o),
(235,566,o),
(322,574,cs),
(344,576,o),
(351,505,o),
(360,502,cs),
(374,498,o),
(428,504,o),
(442,506,cs),
(447,507,o),
(442,618,o),
(428,622,cs),
(378,638,o),
(250,614,o),
(196,575,cs),
(76,488,o),
(44,349,o),
(44,224,cs),
(44,172,o),
(58,94,o),
(108,40,cs),
(138,4,o),
(185,-15,o),
(252,-15,cs)
);
},
{
closed = 1;
nodes = (
(137,17,o),
(129,141,o),
(129,192,cs),
(129,234,o),
(137,275,o),
(151,301,cs),
(163,326,o),
(191,350,o),
(250,350,cs),
(327,350,o),
(371,275,o),
(371,186,cs),
(371,28,o),
(280,17,o),
(258,17,cs)
);
}
);
width = 900;
},
{
layerId = m002;
shapes = (
{
closed = 1;
nodes = (
(315,-15,o),
(357,5,o),
(394,45,cs),
(429,81,o),
(456,124,o),
(456,217,cs),
(456,282,o),
(404,393,o),
(279,393,cs),
(221,393,o),
(178,375,o),
(146,347,c),
(171,511,o),
(303,621,o),
(383,657,cs),
(389,660,o),
(392,665,o),
(392,673,cs),
(392,680,o),
(386,683,o),
(380,683,cs),
(373,683,o),
(359,679,o),
(343,672,cs),
(298,654,o),
(244,621,o),
(196,575,cs),
(90,472,o),
(44,349,o),
(44,224,cs),
(44,172,o),
(58,94,o),
(108,40,cs),
(138,4,o),
(185,-15,o),
(252,-15,cs)
);
},
{
closed = 1;
nodes = (
(137,17,o),
(129,141,o),
(129,192,cs),
(129,234,o),
(137,275,o),
(151,301,cs),
(163,326,o),
(191,350,o),
(250,350,cs),
(327,350,o),
(371,275,o),
(371,186,cs),
(371,28,o),
(280,17,o),
(258,17,cs)
);
}
);
width = 900;
},
{
layerId = m003;
shapes = (
{
closed = 1;
nodes = (
(315,-15,o),
(357,5,o),
(394,45,cs),
(429,81,o),
(456,124,o),
(456,217,cs),
(456,282,o),
(404,393,o),
(279,393,cs),
(221,393,o),
(178,375,o),
(146,347,c),
(171,511,o),
(303,601,o),
(384,638,cs),
(389,640,o),
(392,645,o),
(392,654,cs),
(392,660,o),
(386,683,o),
(380,683,cs),
(373,683,o),
(359,679,o),
(343,672,cs),
(298,654,o),
(244,621,o),
(196,575,cs),
(90,472,o),
(44,349,o),
(44,224,cs),
(44,172,o),
(58,94,o),
(108,40,cs),
(138,4,o),
(185,-15,o),
(252,-15,cs)
);
},
{
closed = 1;
nodes = (
(137,17,o),
(129,141,o),
(129,192,cs),
(129,234,o),
(137,275,o),
(151,301,cs),
(163,326,o),
(191,350,o),
(250,350,cs),
(327,350,o),
(371,275,o),
(371,186,cs),
(371,28,o),
(280,17,o),
(258,17,cs)
);
}
);
width = 900;
}
);
unicode = 54;
},
{
glyphname = seven;
lastChange = "2023-03-17 22:36:54 +0000";
layers = (
{
background = {
shapes = (
{
closed = 1;
nodes = (
(232,0,ls),
(326,0,o),
(485,-4,o),
(540,-10,cs),
(553,-13,o),
(561,-15,o),
(566,-14,cs),
(570,-15,o),
(576,-11,o),
(578,-4,cs),
(586,23,o),
(598,104,o),
(608,152,cs),
(609,155,o),
(608,164,o),
(606,164,cs),
(552,170,ls),
(546,171,o),
(538,174,o),
(534,160,cs),
(524,124,o),
(466,36,o),
(422,36,cs),
(132,36,l),
(151,67,o),
(591,668,o),
(610,690,cs),
(621,703,o),
(619,714,o),
(604,714,cs),
(568,714,o),
(533,713,o),
(498,712,cs),
(461,710,o),
(425,708,o),
(390,708,cs),
(306,708,o),
(165,708,o),
(118,714,cs),
(110,715,o),
(102,716,o),
(98,716,cs),
(93,716,o),
(88,714,o),
(86,706,cs),
(56,550,ls),
(54,541,o),
(78,538,o),
(82,538,cs),
(118,536,ls),
(126,536,o),
(128,536,o),
(134,552,cs),
(150,594,o),
(166,626,o),
(188,646,cs),
(203,659,o),
(232,670,o),
(248,670,cs),
(480,676,l),
(473,664,o),
(59,88,o),
(8,28,cs),
(2,22,o),
(1,14,o),
(2,8,cs),
(1,0,o),
(12,0,o),
(20,0,cs)
);
}
);
};
layerId = m01;
shapes = (
{
closed = 1;
nodes = (
(226,670,ls),
(174,670,o),
(140,670,o),
(124,670,cs),
(112,670,o),
(96,671,o),
(86,670,cs),
(76,669,o),
(73,642,o),
(72,636,cs),
(64,590,ls),
(45,479,o),
(41,471,o),
(56,468,cs),
(68,466,o),
(111,457,o),
(116,464,cs),
(145,507,o),
(158,594,o),
(174,594,cs),
(411,594,l),
(354,481,o),
(180,149,o),
(163,115,cs),
(150,88,o),
(128,47,o),
(128,22,cs),
(128,0,o),
(142,-15,o),
(167,-15,cs),
(185,-15,o),
(205,-5,o),
(217,36,cs),
(258,174,o),
(342,359,o),
(352,382,cs),
(392,481,o),
(473,631,o),
(479,641,cs),
(485,651,o),
(486,654,o),
(486,659,cs),
(486,665,o),
(481,668,o),
(476,668,cs)
);
}
);
width = 900;
},
{
layerId = m002;
shapes = (
{
closed = 1;
nodes = (
(195,668,ls),
(144,668,o),
(136,673,o),
(138,687,cs),
(140,702,o),
(136,705,o),
(125,705,cs),
(113,705,o),
(112,704,o),
(109,698,cs),
(47,537,ls),
(44,528,o),
(44,527,o),
(53,522,cs),
(60,518,o),
(67,517,o),
(72,524,cs),
(101,567,o),
(114,594,o),
(174,594,cs),
(411,594,l),
(354,481,o),
(180,149,o),
(163,115,cs),
(150,88,o),
(128,47,o),
(128,22,cs),
(128,0,o),
(142,-15,o),
(167,-15,cs),
(185,-15,o),
(205,-5,o),
(217,36,cs),
(258,174,o),
(342,359,o),
(352,382,cs),
(392,481,o),
(473,631,o),
(479,641,cs),
(485,651,o),
(486,654,o),
(486,659,cs),
(486,665,o),
(481,668,o),
(476,668,cs)
);
}
);
width = 900;
},
{
layerId = m003;
shapes = (
{
closed = 1;
nodes = (
(316,668,ls),
(264,668,o),
(224,670,o),
(178,670,cs),
(165,670,o),
(136,705,o),
(125,705,cs),
(113,705,o),
(100,672,o),
(98,666,cs),
(47,537,ls),
(37,511,o),
(37,425,o),
(46,420,cs),
(53,416,o),
(67.2,413.2,o),
(72,420,cs),
(101.2,463.2,o),
(114,594,o),
(174,594,cs),
(411,594,l),
(354,481,o),
(180,149,o),
(163,115,cs),
(150,88,o),
(128,47,o),
(128,22,cs),
(128,0,o),
(142,-15,o),
(167,-15,cs),
(185,-15,o),
(205,-5,o),
(217,36,cs),
(258,174,o),
(342,359,o),
(352,382,cs),
(392,481,o),
(473,631,o),
(479,641,cs),
(485,651,o),
(486,654,o),
(486,659,cs),
(486,665,o),
(481,668,o),
(476,668,cs)
);
}
);
width = 900;
}
);
unicode = 55;
},
{
glyphname = eight;
lastChange = "2023-03-10 18:46:38 +0000";
layers = (
{
layerId = m01;
shapes = (
{
closed = 1;
nodes = (
(370,-15,o),
(446,83,o),
(446,161,cs),
(446,252,o),
(385,303,o),
(305,341,c),
(411,415,o),
(443,459,o),
(443,554,cs),
(443,620,o),
(365,683,o),
(273,683,cs),
(131,683,o),
(59,578,o),
(59,491,cs),
(59,414,o),
(121,362,o),
(196,320,c),
(111,265,o),
(66,214,o),
(66,128,cs),
(66,64,o),
(112,-15,o),
(249,-15,cs)
);
},
{
closed = 1;
nodes = (
(197,19,o),
(129,57,o),
(129,144,cs),
(129,207,o),
(165,265,o),
(229,301,c),
(308,259,o),
(374,222,o),
(374,141,cs),
(374,58,o),
(327,19,o),
(255,19,cs)
);
},
{
closed = 1;
nodes = (
(326,642,o),
(380,592,o),
(377,519,cs),
(373,452,o),
(321,393,o),
(272,362,c),
(184,414,o),
(137,443,o),
(137,515,cs),
(137,585,o),
(186,642,o),
(257,642,cs)
);
}
);
width = 900;
},
{
layerId = m002;
shapes = (
{
closed = 1;
nodes = (
(370,-15,o),
(446,83,o),
(446,161,cs),
(446,252,o),
(385,303,o),
(305,341,c),
(411,415,o),
(443,459,o),
(443,554,cs),
(443,620,o),
(365,683,o),
(273,683,cs),
(131,683,o),
(59,578,o),
(59,491,cs),
(59,414,o),
(121,362,o),
(196,320,c),
(111,265,o),
(66,214,o),
(66,128,cs),
(66,64,o),
(112,-15,o),
(249,-15,cs)
);
},
{
closed = 1;
nodes = (
(197,19,o),
(129,57,o),
(129,144,cs),
(129,207,o),
(165,265,o),
(229,301,c),
(308,259,o),
(374,222,o),
(374,141,cs),
(374,58,o),
(327,19,o),
(255,19,cs)
);
},
{
closed = 1;
nodes = (
(326,642,o),
(380,592,o),
(377,519,cs),
(373,452,o),
(321,393,o),
(272,362,c),
(184,414,o),
(137,443,o),
(137,515,cs),
(137,585,o),
(186,642,o),
(257,642,cs)
);
}
);
width = 900;
},
{
layerId = m003;
shapes = (
{
closed = 1;
nodes = (
(370,-15,o),
(446,83,o),
(446,161,cs),
(446,252,o),
(385,303,o),
(305,341,c),
(411,415,o),
(443,459,o),
(443,554,cs),
(443,620,o),
(365,683,o),
(273,683,cs),
(131,683,o),
(59,578,o),
(59,491,cs),
(59,414,o),
(121,362,o),
(196,320,c),
(111,265,o),
(66,214,o),
(66,128,cs),
(66,64,o),
(112,-15,o),
(249,-15,cs)
);
},
{
closed = 1;
nodes = (
(197,19,o),
(129,57,o),
(129,144,cs),
(129,207,o),
(165,265,o),
(229,301,c),
(308,259,o),
(374,222,o),
(374,141,cs),
(374,58,o),
(327,19,o),
(255,19,cs)
);
},
{
closed = 1;
nodes = (
(326,642,o),
(380,592,o),
(377,519,cs),
(373,452,o),
(321,393,o),
(272,362,c),
(184,414,o),
(137,443,o),
(137,515,cs),
(137,585,o),
(186,642,o),
(257,642,cs)
);
}
);
width = 900;
}
);
unicode = 56;
},
{
glyphname = nine;
lastChange = "2023-03-17 22:00:54 +0000";
layers = (
{
layerId = m01;
shapes = (
{
closed = 1;
nodes = (
(204,683,o),
(158,665,o),
(119,631,cs),
(81,598,o),
(45,515,o),
(45,477,cs),
(45,382,o),
(92,277,o),
(230,277,cs),
(289,277,o),
(325,301,o),
(352,326,c),
(353,324,l),
(331,157,o),
(198,48,o),
(112,14,cs),
(106,11,o),
(102,6,o),
(102,0,cs),
(102,-11,o),
(109,-15,o),
(118,-14,cs),
(124,-15,o),
(138,-11,o),
(148,-8,cs),
(203,10,o),
(242,32,o),
(292,76,cs),
(410,180,o),
(455,318,o),
(455,452,cs),
(455,483,o),
(446,562,o),
(401,613,cs),
(356,662,o),
(317,683,o),
(246,683,cs)
);
},
{
closed = 1;
nodes = (
(340,651,o),
(365,564,o),
(365,476,cs),
(365,435,o),
(362,402,o),
(350,377,cs),
(337,351,o),
(307,320,o),
(249,320,cs),
(181,320,o),
(125,388,o),
(125,482,cs),
(125,594,o),
(190,651,o),
(249,651,cs)
);
}
);
width = 900;
},
{
layerId = m002;
shapes = (
{
closed = 1;
nodes = (
(204,683,o),
(158,665,o),
(119,631,cs),
(81,598,o),
(45,515,o),
(45,477,cs),
(45,382,o),
(92,277,o),
(230,277,cs),
(289,277,o),
(325,301,o),
(352,326,c),
(353,324,l),
(331,157,o),
(198,48,o),
(111,13,cs),
(106,11,o),
(102,6,o),
(102,-1,cs),
(102,-11,o),
(109,-15,o),
(117,-15,cs),
(124,-15,o),
(138,-11,o),
(148,-8,cs),
(203,10,o),
(242,32,o),
(292,76,cs),
(410,180,o),
(455,318,o),
(455,452,cs),
(455,483,o),
(446,562,o),
(401,613,cs),
(356,662,o),
(317,683,o),
(246,683,cs)
);
},
{
closed = 1;
nodes = (
(340,651,o),
(365,564,o),
(365,476,cs),
(365,435,o),
(362,402,o),
(350,377,cs),
(337,351,o),
(307,320,o),
(249,320,cs),
(181,320,o),
(125,388,o),
(125,482,cs),
(125,594,o),
(190,651,o),
(249,651,cs)
);
}
);
width = 900;
},
{
layerId = m003;
shapes = (
{
closed = 1;
nodes = (
(204,683,o),
(158,665,o),
(119,631,cs),
(81,598,o),
(45,515,o),
(45,477,cs),
(45,382,o),
(92,277,o),
(230,277,cs),
(289,277,o),
(325,301,o),
(352,326,c),
(353,324,l),
(331,157,o),
(198,48,o),
(111,13,cs),
(106,11,o),
(102,6,o),
(102,-1,cs),
(102,-11,o),
(109,-15,o),
(117,-15,cs),
(124,-15,o),
(138,-11,o),
(148,-8,cs),
(203,10,o),
(242,32,o),
(292,76,cs),
(410,180,o),
(455,318,o),
(455,452,cs),
(455,483,o),
(446,562,o),
(401,613,cs),
(356,662,o),
(317,683,o),
(246,683,cs)
);
},
{
closed = 1;
nodes = (
(340,651,o),
(365,564,o),
(365,476,cs),
(365,435,o),
(362,402,o),
(350,377,cs),
(337,351,o),
(307,320,o),
(249,320,cs),
(181,320,o),
(125,388,o),
(125,482,cs),
(125,594,o),
(190,651,o),
(249,651,cs)
);
}
);
width = 900;
}
);
unicode = 57;
},
{
glyphname = BottomSerif;
lastChange = "2023-03-03 21:46:21 +0000";
layers = (
{
layerId = m002;
shapes = (
{
closed = 1;
nodes = (
(124,712,ls),
(124,629,o),
(58,586,o),
(42,564,cs),
(20,536,o),
(21,514,o),
(22,484,cs),
(22,450,ls),
(22,443,o),
(22,428,o),
(22,424,cs),
(22,414,ls),
(22,409,o),
(24,394,o),
(36,394,cs),
(55,394,o),
(114,394,o),
(164,394,cs),
(186,394,l),
(186,712,l),
(124,712,l)
);
},
{
closed = 0;
nodes = (
(28,624,l)
);
}
